<mxfile host="app.diagrams.net" modified="2024-03-17T22:41:39.576Z" agent="Mozilla/5.0 (X11; Linux x86_64) AppleWebKit/537.36 (KHTML, like Gecko) Chrome/122.0.0.0 Safari/537.36" etag="fnrg0vN9FiGqui0UOz9J" version="24.0.7" type="device">
  <diagram name="Page-1" id="bdCuxribR_A03B12ISou">
    <mxGraphModel dx="1414" dy="745" grid="1" gridSize="10" guides="1" tooltips="1" connect="1" arrows="1" fold="1" page="1" pageScale="1" pageWidth="827" pageHeight="1169" math="0" shadow="0">
      <root>
        <mxCell id="0" />
        <mxCell id="1" parent="0" />
        <mxCell id="ikJFBv8js-pOLj2k_Jm1-115" value="" style="whiteSpace=wrap;html=1;aspect=fixed;rounded=0;" parent="1" vertex="1">
          <mxGeometry x="20" y="61.87499999999997" width="360" height="360" as="geometry" />
        </mxCell>
        <mxCell id="ikJFBv8js-pOLj2k_Jm1-110" value="" style="group;rounded=0;" parent="1" vertex="1" connectable="0">
          <mxGeometry x="40" y="79.99999999999997" width="340" height="340.64" as="geometry" />
        </mxCell>
        <mxCell id="ikJFBv8js-pOLj2k_Jm1-62" value="" style="rounded=0;whiteSpace=wrap;html=1;container=0;" parent="ikJFBv8js-pOLj2k_Jm1-110" vertex="1">
          <mxGeometry x="110" y="110.00000000000003" width="100" height="100" as="geometry" />
        </mxCell>
        <mxCell id="ikJFBv8js-pOLj2k_Jm1-63" value="" style="shape=image;verticalLabelPosition=bottom;labelBackgroundColor=default;verticalAlign=top;aspect=fixed;imageAspect=0;image=data:image/jpeg,/9j/4AAQSkZJRgABAQAAAQABAAD/2wCEAAkGBwgHBgkIBwgKCgkLDRYPDQwMDRsUFRAWIB0iIiAdHx8kKDQsJCYxJx8fLT0tMTU3Ojo6Iys/RD84QzQ5OjcBCgoKDQwNGg8PGjclHyU3Nzc3Nzc3Nzc3Nzc3Nzc3Nzc3Nzc3Nzc3Nzc3Nzc3Nzc3Nzc3Nzc3Nzc3Nzc3Nzc3N//AABEIAJQA1QMBIgACEQEDEQH/xAAbAAEAAQUBAAAAAAAAAAAAAAAABAEDBQYHAv/EAD4QAAICAQIEAwUHAQQLAQAAAAECAAMRBCEFEjFBBhNRBxQiYXEyQoGRobHRwRUjY+EXJDNDUlNic4KS8Rb/xAAaAQEAAwEBAQAAAAAAAAAAAAAAAQIDBQQG/8QAJhEAAgEDAwQCAwEAAAAAAAAAAAECAxESMUFRBBMUIQUVIjJSYf/aAAwDAQACEQMRAD8A7jERAEREAREQBERAEREAREQBERAEREAREQBERAEREAREQBERAEREAREQBESkArEs6nU06WprdRatVa9WY4EwGv8AGOg07cmmPvDd8HA/OUnUjD9mXjCU9EbLE0nVeM9XWodNCnIfvF/4ninxrqL2wK6kz6+v5zHy6XJr4tTg3mJodni7ianB06Kc43BO3rLw8XaghyHoKjo5GB+8jy6Q8WobtE1BPFWoNfNy1PkHHJLa+MLelgrR+6OpBWPLpcjxqnBucTTH8V6pcHlqKndcA7/KUHijXGotX5DtjoOo/WT5dLkeLU4N0iaOfFPEW5eRtGo75Pb+k9VeIeJs5Z7dMK9gMKdz8jHl0x4tQ3aJo48S8RDFLnWsgZY8gwJeTxPraw5tCNy7D4MZ+fXpHl0yfFqG5RNV0/ifU2BSdKp5h0GRPCeLLrFdk0qhEOGLN/nJ8qnyV8apwbbE0uvxhq2XzDpafK5sZ5yMfWTNH4w09gT3ms1lm5dj0+ohdVSe4fTVVsbREjaPW0aysWaexXQ9xJAm6aaujFq3plYiJJAiIgCIiADIXFtfVw3Q26u8/DWNgOpPYCTD0mg+0jiSP5PDlI5lYWsQd89hMq08INmlOGcrGB4zxvU8Va33uwVBcBagxwP85jEaso9TubFwOUIvX5fISM5BCYTHL3zkmSaEYElH5Fb4Sx7CcSc3J+zrxgkjzWXsZVNgwv8AzXPLiSURXWy02Up1wEzk+mO882VgH+7z6jI7STSlZrYWoS5GxXtMsjSxHK6lagWa4BxkcznDD85Pdvf0NhVaxSm+GzkypZ/JWguTWhygI6bTwlCg5AAJ6kSMraFkrkdC1Rym2fkJ7auzkWy1SQ+SCW6/OSDSGBA6y4ambk5ix5FwufSVuWsU01LrpmZ7QmmYZRA2/wD6yOFFbv5b8ynoXXMk+TgTz5fyhyZKRHqxYEr1FaVH4suPiB9PpL1Nenrqaq5UY83wEKGXPbB2IlwU5lWq6Z3x8pGQxKCi7T1tXqg/k2b87AM+fTJPSWE8tUZHRyR/s38zBX09ZJChXUsDydDjqPpLq1Vo9nKC6Wb4fqp+UnIjEx/n6hghZmLrtzYAI/ES4lliWFwRzN9oOBv85fNAbDdUU4btvPY5udXITnxys3L9oHsfWRk1uTii3UULMbn8sOA5A6ZHqvQz0Gr5rA1CHm+yQeh9d/2lBVnOdhglfrnpBQ7esnNjD0X9LbqdJbVq9OErYdFBwD8yPQzeOB8Yq4lSAxVdQFHOn8fKaI3PaQxIYqMY6ZGekkcPuOj1aamlSAm/If1nr6bqXCVtjydR0ynG+50jMS1RYLqUsXo6hh+MuzuJ3VzjCIiSBERAKHpOZeNKhVx61rKxiwBgfUYxOnGa74t4GeJ1JfplB1NQIAJxzKe08/U03OFkbUJqE7s5gKMjAG2ZOqoL19M/KXX0xo1Lae4GuwHo4wTLunYBRybA7zkOm7nUzRb5CORT+XpJVGnXy2cnfICj1l0Voy5PU95Rsoygbg7fSVdO3slTueFqJPSe/Ikute/fvPRQjrHaLd0i0UIy8wJPYZMveUFEkV1j6R7sXcry7desrgWzIzLtkjHTbvgw9HKSOu+JOr04CEkkt3Jnp6TnZdhI7bsT3DHrVt0g1Z7Seah1Ax8pTysynbsXUzHtT2nry9pNZOXGR1lDST02lcPZORCprZ6ruVsIh+PPTMCvp9ZPXTjJwOvX5y4+mAXmxvLODZCmkY4oAmAOnX6GUWrldW64OSJP8gnJGVON8HrPK1Y+1+frGBOaIBpw2RtAr5iQSeh/OT7KcAEj6bzwlLGwKq5LZwAcyVB3KuasbZwG7zuF0Z2KLyH8NpkZi+B6e/TaTlvAXJ+FR2mUHSfQ0b9tX1OBVtm7CIialBERAEo3rKyJxLX0cO0j6nUtyovoMkmQ3ZBe2cd9rXipK/Ea6PhyUu+nTl1VgB5ubqFz8h+806nxlrKGIs0/OR9kK+x+uZBusst1F1utLvqbXZ7HPdycn9Z5bTFK11BrPlkkA+v0nkli3do90YyS9Gfr9oNo8oe5FlX/AGvxft+kv3e0mmu1VTh1rVkAseYAj6TUrKfKAbGctvt2izQeY1bIqlG6/SRjC+hP5WN6r9pvBgQvu2tGw25FP9ZLX2kcBZwGOrQEHdqNh+RM5Z7kfeWXHMEG7Dfeexw52Xm5TjOMyXTplVKZ1Or2mcAK/H70rD/AJEuD2oeHQFJ97DZxjyDt67zldPDVGTY2fkYXRIzkIrDtyncyvbplspnVT7U/DqW/CutZQftLQAD+ZzLb+1ngiIxTTa5m+6CirzfrOYf2bWR6H0nptDUgAI5vT8owp8DKfJ0Ye1nhDHP9na4D/wAP5nvTe1bhLs3naLWVqCOUgK+R3PXbE50NHQF6LvKjQ1JgMoyRtiVdOk9iVKpydB4l7VOHJcU0OkvuRQOR2UJzHfOx6dv1kGr2sWDTnzuDqNRn4cWkqd+/eah7jQSA6/aGVBlbtKtFNlu2FX4d846RhT0sTepuzb/9K2sNVZHBVVvv5s269vwll/azxPqOEaYKB96xtprldXNpktuKICv3N/wEyFWipyvNWA/LjkaLU1sT+fI1/tD4/wARurfRmrRFVwwrAcP9eYH9JIq8aeJDphXdbSXU8zOEALLjGDj652wdpiE0a6HWrzAeTYvwCTNPpXYnmGAd94ljsglK/tkmjjPHbqtOur4lcyUMGQAKpG2MkgZPXvn17Tufg1Uv8O8N1LqHv8gA2EZY9s/pOG1JWwG5yCM56YnZvZmaz4YqNVjvl2JDDAU56D5S9FrMy6j9Dax0lYie08QiIgCIiADNW8dWh9LRowMl2LkfIdP3m0maR4280cSTl70jB/EzGvK0Ga0VeaOLeIKruG65zbWxqZvhciQzrKr6FoNgRV3GO86kdPTqagNRUro33WGZiOIeB+A6wlvKsocnbyW5RPGqkXqe3GS0NHGoVOVnIGOnfMuVaipUPI4VSS02Z/ZppCp924lqV26OQf6TEav2e8YoJWjUJagGQeXf6TROL3K3ktjC6G1We0WZQk5xnsczICyuqo2Ag4UbSP8A/keP0eZcKFcnAPK25+gke/QcZQMt2g1DKenKhOfyktLZkKX+EzS1JYvm2EczHdM4OJc1mlSmq66gEWHb7XQTFLZraPt6TUKQMgtSw2/KUs1zeW1dtThjjJ5TnaVxdy2SJlWna9y1jZwMqQesuW6FXVCHw4bIHy7yzo7GsHm+YqD0M9W60qFKk5YHdQTDvcXRJtqo96ro8v4+UknpJSrpxyqyDOcAfSYW3WudQLLA3wKOgIJ+sqOIagsGFTqAMj4T/EjEnJGW4fQbbHutsQ/3jKpHTBO2JLtqrrAChdyPu9ph9FbqtUW8nS3qvyQ7n5bTJ/2Vxe6jzUpYDIGLuYNg98YlXqWuiLxRqNIpyqtaX+Csn4diN5XQ3NZa2ocDYlRhu0VeCfEHFteGflXmOCeXAUfjNp4B7MtQj31cQ4myouy+7gZY+u+ZMsUtSmTuavfhnrtsKkIOXlB6y6mpd6x5NbWlmwAgzibnT7MdNTqg9mqsvTP+8/ibhw/g2i4dQtNFC4XPxFRvM5StoXOecA8N8R1ZS3VUmun59x851jwtQujqehV2Cjp0EjsAqgADEucAZq9bbWzZVskb/j/MtSnaorlasb02bHEoJWdM5oiIgCIiADNb8Z6Fr9HXqqwSaCeYAfdOM/tNknllDAgjIPYyk45xaLQljJM5Ur5AM9mxRjPabDxrwm6u13CuUg7+Qxxj6H+k1S826azy9ZS9DjqLFK//AGcmrSlDVHUpVIz0ZduvZThTKLxK9NgcCWRYvY5/CXVHN6eo+c8rb5PSkiRXxRsDIB9NpcOtDKua0z9BIRCkggnPp6SSiI/2oU5ck4RexK0/Eqa8PZRz5QIQO0seZw2zms9yXPMfuieBWvMV2wZd5FrXICkdMZk9yfJHbhwWXu0LAA6FMDcAoIou0in4dL025eXaXlFYGeQHP6T2BWPsrK5z5LYQ4LXkaOx2s91UMexGZPsTSXMrXaas8my4EsIay3JjPzleYKehUj1hVZckOlDgnJqa6/gQIgG220ui+srhgDn1mGclLOcKGVhnPzkpP7xRkY2HeSq0uSXSiZRdTWCACM4lTqUGSCcnrMabBX8Pf5zxVa1rYIwucZjvPQjtLUyS6r4v6z2dR6nI7THsGNilemMbS0b1VuRtioyWz0PpHcktSO2jIWals7EcsmcBzbxEsvRVJJ+fT+ZidLRq9a2NLUzDpzkYUfjNs4Pw0cPoYEhrnOXYdPoJ6+lpznNSeh5eqqQjDFamQErETsHKEREAREQBERAKYlu2iu5OS5Fdf+FlBH6y7EAw2q8L8H1Jy2jVG9amKftMXd4G0oOdNrdRX35WCsP6H9ZtsoZjKhTlqjSNapHRmhanwjxKos1NlN47fEVMj/2JxSgDzNG5H+GQ3+c6LgRiYS6Gk9DePW1Ecyu0msVia9Dq2x393f8AiY7V3cRqs34XrRgd9O/8Tr2IxM/r4cmnnz4OTafVam7AOg1aDHXyH6/lKNdqAd9Jq89v9Xc/0nWolfro/wBE/YS4OT13a5rV5eHa1VxksdM+P2k8pa5BXSagnuBS38TpErD+Nj/QXyEuDnQo1e3+o6pgW3Apbb9JISjVMNtDqs/9ojf8ZvsYEmPxsFuH8hJ7GgNwfi91oavTED/rIEyGn8Na0hTY1de+T8WZt+Imi6CktfZnLrqr0NY0fhPkLnVa+y7mOQqoFC/vMnpPD/DtLkpQHYksWsPMSfxmUErN49NSjpEwlXqS1Z5VFVQqgAegEqBiVibmQiIgCIiAIiIAiIgCIiAIiIAiIgCIiAIiIAiIgCIiAIiIAiIgCIiAIiIAiIgCIiAIiIAiIgCIiAIiIAiIgCIiAIiIAiIgCIiAIiIAiIgCIiAIiIB//9k=;labelBorderColor=none;clipPath=inset(16.22% 7.75% 16.22% 11.5%);container=0;rounded=0;" parent="ikJFBv8js-pOLj2k_Jm1-110" vertex="1">
          <mxGeometry x="110.5" y="131.22000000000003" width="99" height="57.56" as="geometry" />
        </mxCell>
        <mxCell id="ikJFBv8js-pOLj2k_Jm1-64" value="Hamburger $10.00" style="text;html=1;align=center;verticalAlign=middle;whiteSpace=wrap;rounded=0;fontSize=9;container=0;" parent="ikJFBv8js-pOLj2k_Jm1-110" vertex="1">
          <mxGeometry x="120" y="191.28000000000006" width="80" height="20" as="geometry" />
        </mxCell>
        <mxCell id="ikJFBv8js-pOLj2k_Jm1-67" value="" style="rounded=0;whiteSpace=wrap;html=1;container=0;" parent="ikJFBv8js-pOLj2k_Jm1-110" vertex="1">
          <mxGeometry x="220" y="110" width="100" height="100" as="geometry" />
        </mxCell>
        <mxCell id="ikJFBv8js-pOLj2k_Jm1-68" value="" style="shape=image;verticalLabelPosition=bottom;labelBackgroundColor=default;verticalAlign=top;aspect=fixed;imageAspect=0;image=data:image/jpeg,/9j/4AAQSkZJRgABAQAAAQABAAD/2wCEAAkGBwgHBgkIBwgKCgkLDRYPDQwMDRsUFRAWIB0iIiAdHx8kKDQsJCYxJx8fLT0tMTU3Ojo6Iys/RD84QzQ5OjcBCgoKDQwNGg8PGjclHyU3Nzc3Nzc3Nzc3Nzc3Nzc3Nzc3Nzc3Nzc3Nzc3Nzc3Nzc3Nzc3Nzc3Nzc3Nzc3Nzc3N//AABEIAJQA1QMBIgACEQEDEQH/xAAbAAEAAQUBAAAAAAAAAAAAAAAABAEDBQYHAv/EAD4QAAICAQIEAwUHAQQLAQAAAAECAAMRBCEFEjFBBhNRBxQiYXEyQoGRobHRwRUjY+EXJDNDUlNic4KS8Rb/xAAaAQEAAwEBAQAAAAAAAAAAAAAAAQIDBQQG/8QAJhEAAgEDAwQCAwEAAAAAAAAAAAECAxESMUFRBBMUIQUVIjJSYf/aAAwDAQACEQMRAD8A7jERAEREAREQBERAEREAREQBERAEREAREQBERAEREAREQBERAEREAREQBESkArEs6nU06WprdRatVa9WY4EwGv8AGOg07cmmPvDd8HA/OUnUjD9mXjCU9EbLE0nVeM9XWodNCnIfvF/4ninxrqL2wK6kz6+v5zHy6XJr4tTg3mJodni7ianB06Kc43BO3rLw8XaghyHoKjo5GB+8jy6Q8WobtE1BPFWoNfNy1PkHHJLa+MLelgrR+6OpBWPLpcjxqnBucTTH8V6pcHlqKndcA7/KUHijXGotX5DtjoOo/WT5dLkeLU4N0iaOfFPEW5eRtGo75Pb+k9VeIeJs5Z7dMK9gMKdz8jHl0x4tQ3aJo48S8RDFLnWsgZY8gwJeTxPraw5tCNy7D4MZ+fXpHl0yfFqG5RNV0/ifU2BSdKp5h0GRPCeLLrFdk0qhEOGLN/nJ8qnyV8apwbbE0uvxhq2XzDpafK5sZ5yMfWTNH4w09gT3ms1lm5dj0+ohdVSe4fTVVsbREjaPW0aysWaexXQ9xJAm6aaujFq3plYiJJAiIgCIiADIXFtfVw3Q26u8/DWNgOpPYCTD0mg+0jiSP5PDlI5lYWsQd89hMq08INmlOGcrGB4zxvU8Va33uwVBcBagxwP85jEaso9TubFwOUIvX5fISM5BCYTHL3zkmSaEYElH5Fb4Sx7CcSc3J+zrxgkjzWXsZVNgwv8AzXPLiSURXWy02Up1wEzk+mO882VgH+7z6jI7STSlZrYWoS5GxXtMsjSxHK6lagWa4BxkcznDD85Pdvf0NhVaxSm+GzkypZ/JWguTWhygI6bTwlCg5AAJ6kSMraFkrkdC1Rym2fkJ7auzkWy1SQ+SCW6/OSDSGBA6y4ambk5ix5FwufSVuWsU01LrpmZ7QmmYZRA2/wD6yOFFbv5b8ynoXXMk+TgTz5fyhyZKRHqxYEr1FaVH4suPiB9PpL1Nenrqaq5UY83wEKGXPbB2IlwU5lWq6Z3x8pGQxKCi7T1tXqg/k2b87AM+fTJPSWE8tUZHRyR/s38zBX09ZJChXUsDydDjqPpLq1Vo9nKC6Wb4fqp+UnIjEx/n6hghZmLrtzYAI/ES4lliWFwRzN9oOBv85fNAbDdUU4btvPY5udXITnxys3L9oHsfWRk1uTii3UULMbn8sOA5A6ZHqvQz0Gr5rA1CHm+yQeh9d/2lBVnOdhglfrnpBQ7esnNjD0X9LbqdJbVq9OErYdFBwD8yPQzeOB8Yq4lSAxVdQFHOn8fKaI3PaQxIYqMY6ZGekkcPuOj1aamlSAm/If1nr6bqXCVtjydR0ynG+50jMS1RYLqUsXo6hh+MuzuJ3VzjCIiSBERAKHpOZeNKhVx61rKxiwBgfUYxOnGa74t4GeJ1JfplB1NQIAJxzKe08/U03OFkbUJqE7s5gKMjAG2ZOqoL19M/KXX0xo1Lae4GuwHo4wTLunYBRybA7zkOm7nUzRb5CORT+XpJVGnXy2cnfICj1l0Voy5PU95Rsoygbg7fSVdO3slTueFqJPSe/Ikute/fvPRQjrHaLd0i0UIy8wJPYZMveUFEkV1j6R7sXcry7desrgWzIzLtkjHTbvgw9HKSOu+JOr04CEkkt3Jnp6TnZdhI7bsT3DHrVt0g1Z7Seah1Ax8pTysynbsXUzHtT2nry9pNZOXGR1lDST02lcPZORCprZ6ruVsIh+PPTMCvp9ZPXTjJwOvX5y4+mAXmxvLODZCmkY4oAmAOnX6GUWrldW64OSJP8gnJGVON8HrPK1Y+1+frGBOaIBpw2RtAr5iQSeh/OT7KcAEj6bzwlLGwKq5LZwAcyVB3KuasbZwG7zuF0Z2KLyH8NpkZi+B6e/TaTlvAXJ+FR2mUHSfQ0b9tX1OBVtm7CIialBERAEo3rKyJxLX0cO0j6nUtyovoMkmQ3ZBe2cd9rXipK/Ea6PhyUu+nTl1VgB5ubqFz8h+806nxlrKGIs0/OR9kK+x+uZBusst1F1utLvqbXZ7HPdycn9Z5bTFK11BrPlkkA+v0nkli3do90YyS9Gfr9oNo8oe5FlX/AGvxft+kv3e0mmu1VTh1rVkAseYAj6TUrKfKAbGctvt2izQeY1bIqlG6/SRjC+hP5WN6r9pvBgQvu2tGw25FP9ZLX2kcBZwGOrQEHdqNh+RM5Z7kfeWXHMEG7Dfeexw52Xm5TjOMyXTplVKZ1Or2mcAK/H70rD/AJEuD2oeHQFJ97DZxjyDt67zldPDVGTY2fkYXRIzkIrDtyncyvbplspnVT7U/DqW/CutZQftLQAD+ZzLb+1ngiIxTTa5m+6CirzfrOYf2bWR6H0nptDUgAI5vT8owp8DKfJ0Ye1nhDHP9na4D/wAP5nvTe1bhLs3naLWVqCOUgK+R3PXbE50NHQF6LvKjQ1JgMoyRtiVdOk9iVKpydB4l7VOHJcU0OkvuRQOR2UJzHfOx6dv1kGr2sWDTnzuDqNRn4cWkqd+/eah7jQSA6/aGVBlbtKtFNlu2FX4d846RhT0sTepuzb/9K2sNVZHBVVvv5s269vwll/azxPqOEaYKB96xtprldXNpktuKICv3N/wEyFWipyvNWA/LjkaLU1sT+fI1/tD4/wARurfRmrRFVwwrAcP9eYH9JIq8aeJDphXdbSXU8zOEALLjGDj652wdpiE0a6HWrzAeTYvwCTNPpXYnmGAd94ljsglK/tkmjjPHbqtOur4lcyUMGQAKpG2MkgZPXvn17Tufg1Uv8O8N1LqHv8gA2EZY9s/pOG1JWwG5yCM56YnZvZmaz4YqNVjvl2JDDAU56D5S9FrMy6j9Dax0lYie08QiIgCIiADNW8dWh9LRowMl2LkfIdP3m0maR4280cSTl70jB/EzGvK0Ga0VeaOLeIKruG65zbWxqZvhciQzrKr6FoNgRV3GO86kdPTqagNRUro33WGZiOIeB+A6wlvKsocnbyW5RPGqkXqe3GS0NHGoVOVnIGOnfMuVaipUPI4VSS02Z/ZppCp924lqV26OQf6TEav2e8YoJWjUJagGQeXf6TROL3K3ktjC6G1We0WZQk5xnsczICyuqo2Ag4UbSP8A/keP0eZcKFcnAPK25+gke/QcZQMt2g1DKenKhOfyktLZkKX+EzS1JYvm2EczHdM4OJc1mlSmq66gEWHb7XQTFLZraPt6TUKQMgtSw2/KUs1zeW1dtThjjJ5TnaVxdy2SJlWna9y1jZwMqQesuW6FXVCHw4bIHy7yzo7GsHm+YqD0M9W60qFKk5YHdQTDvcXRJtqo96ro8v4+UknpJSrpxyqyDOcAfSYW3WudQLLA3wKOgIJ+sqOIagsGFTqAMj4T/EjEnJGW4fQbbHutsQ/3jKpHTBO2JLtqrrAChdyPu9ph9FbqtUW8nS3qvyQ7n5bTJ/2Vxe6jzUpYDIGLuYNg98YlXqWuiLxRqNIpyqtaX+Csn4diN5XQ3NZa2ocDYlRhu0VeCfEHFteGflXmOCeXAUfjNp4B7MtQj31cQ4myouy+7gZY+u+ZMsUtSmTuavfhnrtsKkIOXlB6y6mpd6x5NbWlmwAgzibnT7MdNTqg9mqsvTP+8/ibhw/g2i4dQtNFC4XPxFRvM5StoXOecA8N8R1ZS3VUmun59x851jwtQujqehV2Cjp0EjsAqgADEucAZq9bbWzZVskb/j/MtSnaorlasb02bHEoJWdM5oiIgCIiADNb8Z6Fr9HXqqwSaCeYAfdOM/tNknllDAgjIPYyk45xaLQljJM5Ur5AM9mxRjPabDxrwm6u13CuUg7+Qxxj6H+k1S826azy9ZS9DjqLFK//AGcmrSlDVHUpVIz0ZduvZThTKLxK9NgcCWRYvY5/CXVHN6eo+c8rb5PSkiRXxRsDIB9NpcOtDKua0z9BIRCkggnPp6SSiI/2oU5ck4RexK0/Eqa8PZRz5QIQO0seZw2zms9yXPMfuieBWvMV2wZd5FrXICkdMZk9yfJHbhwWXu0LAA6FMDcAoIou0in4dL025eXaXlFYGeQHP6T2BWPsrK5z5LYQ4LXkaOx2s91UMexGZPsTSXMrXaas8my4EsIay3JjPzleYKehUj1hVZckOlDgnJqa6/gQIgG220ui+srhgDn1mGclLOcKGVhnPzkpP7xRkY2HeSq0uSXSiZRdTWCACM4lTqUGSCcnrMabBX8Pf5zxVa1rYIwucZjvPQjtLUyS6r4v6z2dR6nI7THsGNilemMbS0b1VuRtioyWz0PpHcktSO2jIWals7EcsmcBzbxEsvRVJJ+fT+ZidLRq9a2NLUzDpzkYUfjNs4Pw0cPoYEhrnOXYdPoJ6+lpznNSeh5eqqQjDFamQErETsHKEREAREQBERAKYlu2iu5OS5Fdf+FlBH6y7EAw2q8L8H1Jy2jVG9amKftMXd4G0oOdNrdRX35WCsP6H9ZtsoZjKhTlqjSNapHRmhanwjxKos1NlN47fEVMj/2JxSgDzNG5H+GQ3+c6LgRiYS6Gk9DePW1Ecyu0msVia9Dq2x393f8AiY7V3cRqs34XrRgd9O/8Tr2IxM/r4cmnnz4OTafVam7AOg1aDHXyH6/lKNdqAd9Jq89v9Xc/0nWolfro/wBE/YS4OT13a5rV5eHa1VxksdM+P2k8pa5BXSagnuBS38TpErD+Nj/QXyEuDnQo1e3+o6pgW3Apbb9JISjVMNtDqs/9ojf8ZvsYEmPxsFuH8hJ7GgNwfi91oavTED/rIEyGn8Na0hTY1de+T8WZt+Imi6CktfZnLrqr0NY0fhPkLnVa+y7mOQqoFC/vMnpPD/DtLkpQHYksWsPMSfxmUErN49NSjpEwlXqS1Z5VFVQqgAegEqBiVibmQiIgCIiAIiIAiIgCIiAIiIAiIgCIiAIiIAiIgCIiAIiIAiIgCIiAIiIAiIgCIiAIiIAiIgCIiAIiIAiIgCIiAIiIAiIgCIiAIiIAiIgCIiAIiIB//9k=;labelBorderColor=none;clipPath=inset(16.22% 7.75% 16.22% 11.5%);container=0;rounded=0;" parent="ikJFBv8js-pOLj2k_Jm1-110" vertex="1">
          <mxGeometry x="220.5" y="131.22" width="99" height="57.56" as="geometry" />
        </mxCell>
        <mxCell id="ikJFBv8js-pOLj2k_Jm1-69" value="Hamburger $10.00" style="text;html=1;align=center;verticalAlign=middle;whiteSpace=wrap;rounded=0;fontSize=9;container=0;" parent="ikJFBv8js-pOLj2k_Jm1-110" vertex="1">
          <mxGeometry x="230" y="191.28" width="80" height="20" as="geometry" />
        </mxCell>
        <mxCell id="ikJFBv8js-pOLj2k_Jm1-72" value="" style="rounded=0;whiteSpace=wrap;html=1;container=0;" parent="ikJFBv8js-pOLj2k_Jm1-110" vertex="1">
          <mxGeometry y="110" width="100" height="100" as="geometry" />
        </mxCell>
        <mxCell id="ikJFBv8js-pOLj2k_Jm1-73" value="" style="shape=image;verticalLabelPosition=bottom;labelBackgroundColor=default;verticalAlign=top;aspect=fixed;imageAspect=0;image=data:image/jpeg,/9j/4AAQSkZJRgABAQAAAQABAAD/2wCEAAkGBwgHBgkIBwgKCgkLDRYPDQwMDRsUFRAWIB0iIiAdHx8kKDQsJCYxJx8fLT0tMTU3Ojo6Iys/RD84QzQ5OjcBCgoKDQwNGg8PGjclHyU3Nzc3Nzc3Nzc3Nzc3Nzc3Nzc3Nzc3Nzc3Nzc3Nzc3Nzc3Nzc3Nzc3Nzc3Nzc3Nzc3N//AABEIAJQA1QMBIgACEQEDEQH/xAAbAAEAAQUBAAAAAAAAAAAAAAAABAEDBQYHAv/EAD4QAAICAQIEAwUHAQQLAQAAAAECAAMRBCEFEjFBBhNRBxQiYXEyQoGRobHRwRUjY+EXJDNDUlNic4KS8Rb/xAAaAQEAAwEBAQAAAAAAAAAAAAAAAQIDBQQG/8QAJhEAAgEDAwQCAwEAAAAAAAAAAAECAxESMUFRBBMUIQUVIjJSYf/aAAwDAQACEQMRAD8A7jERAEREAREQBERAEREAREQBERAEREAREQBERAEREAREQBERAEREAREQBESkArEs6nU06WprdRatVa9WY4EwGv8AGOg07cmmPvDd8HA/OUnUjD9mXjCU9EbLE0nVeM9XWodNCnIfvF/4ninxrqL2wK6kz6+v5zHy6XJr4tTg3mJodni7ianB06Kc43BO3rLw8XaghyHoKjo5GB+8jy6Q8WobtE1BPFWoNfNy1PkHHJLa+MLelgrR+6OpBWPLpcjxqnBucTTH8V6pcHlqKndcA7/KUHijXGotX5DtjoOo/WT5dLkeLU4N0iaOfFPEW5eRtGo75Pb+k9VeIeJs5Z7dMK9gMKdz8jHl0x4tQ3aJo48S8RDFLnWsgZY8gwJeTxPraw5tCNy7D4MZ+fXpHl0yfFqG5RNV0/ifU2BSdKp5h0GRPCeLLrFdk0qhEOGLN/nJ8qnyV8apwbbE0uvxhq2XzDpafK5sZ5yMfWTNH4w09gT3ms1lm5dj0+ohdVSe4fTVVsbREjaPW0aysWaexXQ9xJAm6aaujFq3plYiJJAiIgCIiADIXFtfVw3Q26u8/DWNgOpPYCTD0mg+0jiSP5PDlI5lYWsQd89hMq08INmlOGcrGB4zxvU8Va33uwVBcBagxwP85jEaso9TubFwOUIvX5fISM5BCYTHL3zkmSaEYElH5Fb4Sx7CcSc3J+zrxgkjzWXsZVNgwv8AzXPLiSURXWy02Up1wEzk+mO882VgH+7z6jI7STSlZrYWoS5GxXtMsjSxHK6lagWa4BxkcznDD85Pdvf0NhVaxSm+GzkypZ/JWguTWhygI6bTwlCg5AAJ6kSMraFkrkdC1Rym2fkJ7auzkWy1SQ+SCW6/OSDSGBA6y4ambk5ix5FwufSVuWsU01LrpmZ7QmmYZRA2/wD6yOFFbv5b8ynoXXMk+TgTz5fyhyZKRHqxYEr1FaVH4suPiB9PpL1Nenrqaq5UY83wEKGXPbB2IlwU5lWq6Z3x8pGQxKCi7T1tXqg/k2b87AM+fTJPSWE8tUZHRyR/s38zBX09ZJChXUsDydDjqPpLq1Vo9nKC6Wb4fqp+UnIjEx/n6hghZmLrtzYAI/ES4lliWFwRzN9oOBv85fNAbDdUU4btvPY5udXITnxys3L9oHsfWRk1uTii3UULMbn8sOA5A6ZHqvQz0Gr5rA1CHm+yQeh9d/2lBVnOdhglfrnpBQ7esnNjD0X9LbqdJbVq9OErYdFBwD8yPQzeOB8Yq4lSAxVdQFHOn8fKaI3PaQxIYqMY6ZGekkcPuOj1aamlSAm/If1nr6bqXCVtjydR0ynG+50jMS1RYLqUsXo6hh+MuzuJ3VzjCIiSBERAKHpOZeNKhVx61rKxiwBgfUYxOnGa74t4GeJ1JfplB1NQIAJxzKe08/U03OFkbUJqE7s5gKMjAG2ZOqoL19M/KXX0xo1Lae4GuwHo4wTLunYBRybA7zkOm7nUzRb5CORT+XpJVGnXy2cnfICj1l0Voy5PU95Rsoygbg7fSVdO3slTueFqJPSe/Ikute/fvPRQjrHaLd0i0UIy8wJPYZMveUFEkV1j6R7sXcry7desrgWzIzLtkjHTbvgw9HKSOu+JOr04CEkkt3Jnp6TnZdhI7bsT3DHrVt0g1Z7Seah1Ax8pTysynbsXUzHtT2nry9pNZOXGR1lDST02lcPZORCprZ6ruVsIh+PPTMCvp9ZPXTjJwOvX5y4+mAXmxvLODZCmkY4oAmAOnX6GUWrldW64OSJP8gnJGVON8HrPK1Y+1+frGBOaIBpw2RtAr5iQSeh/OT7KcAEj6bzwlLGwKq5LZwAcyVB3KuasbZwG7zuF0Z2KLyH8NpkZi+B6e/TaTlvAXJ+FR2mUHSfQ0b9tX1OBVtm7CIialBERAEo3rKyJxLX0cO0j6nUtyovoMkmQ3ZBe2cd9rXipK/Ea6PhyUu+nTl1VgB5ubqFz8h+806nxlrKGIs0/OR9kK+x+uZBusst1F1utLvqbXZ7HPdycn9Z5bTFK11BrPlkkA+v0nkli3do90YyS9Gfr9oNo8oe5FlX/AGvxft+kv3e0mmu1VTh1rVkAseYAj6TUrKfKAbGctvt2izQeY1bIqlG6/SRjC+hP5WN6r9pvBgQvu2tGw25FP9ZLX2kcBZwGOrQEHdqNh+RM5Z7kfeWXHMEG7Dfeexw52Xm5TjOMyXTplVKZ1Or2mcAK/H70rD/AJEuD2oeHQFJ97DZxjyDt67zldPDVGTY2fkYXRIzkIrDtyncyvbplspnVT7U/DqW/CutZQftLQAD+ZzLb+1ngiIxTTa5m+6CirzfrOYf2bWR6H0nptDUgAI5vT8owp8DKfJ0Ye1nhDHP9na4D/wAP5nvTe1bhLs3naLWVqCOUgK+R3PXbE50NHQF6LvKjQ1JgMoyRtiVdOk9iVKpydB4l7VOHJcU0OkvuRQOR2UJzHfOx6dv1kGr2sWDTnzuDqNRn4cWkqd+/eah7jQSA6/aGVBlbtKtFNlu2FX4d846RhT0sTepuzb/9K2sNVZHBVVvv5s269vwll/azxPqOEaYKB96xtprldXNpktuKICv3N/wEyFWipyvNWA/LjkaLU1sT+fI1/tD4/wARurfRmrRFVwwrAcP9eYH9JIq8aeJDphXdbSXU8zOEALLjGDj652wdpiE0a6HWrzAeTYvwCTNPpXYnmGAd94ljsglK/tkmjjPHbqtOur4lcyUMGQAKpG2MkgZPXvn17Tufg1Uv8O8N1LqHv8gA2EZY9s/pOG1JWwG5yCM56YnZvZmaz4YqNVjvl2JDDAU56D5S9FrMy6j9Dax0lYie08QiIgCIiADNW8dWh9LRowMl2LkfIdP3m0maR4280cSTl70jB/EzGvK0Ga0VeaOLeIKruG65zbWxqZvhciQzrKr6FoNgRV3GO86kdPTqagNRUro33WGZiOIeB+A6wlvKsocnbyW5RPGqkXqe3GS0NHGoVOVnIGOnfMuVaipUPI4VSS02Z/ZppCp924lqV26OQf6TEav2e8YoJWjUJagGQeXf6TROL3K3ktjC6G1We0WZQk5xnsczICyuqo2Ag4UbSP8A/keP0eZcKFcnAPK25+gke/QcZQMt2g1DKenKhOfyktLZkKX+EzS1JYvm2EczHdM4OJc1mlSmq66gEWHb7XQTFLZraPt6TUKQMgtSw2/KUs1zeW1dtThjjJ5TnaVxdy2SJlWna9y1jZwMqQesuW6FXVCHw4bIHy7yzo7GsHm+YqD0M9W60qFKk5YHdQTDvcXRJtqo96ro8v4+UknpJSrpxyqyDOcAfSYW3WudQLLA3wKOgIJ+sqOIagsGFTqAMj4T/EjEnJGW4fQbbHutsQ/3jKpHTBO2JLtqrrAChdyPu9ph9FbqtUW8nS3qvyQ7n5bTJ/2Vxe6jzUpYDIGLuYNg98YlXqWuiLxRqNIpyqtaX+Csn4diN5XQ3NZa2ocDYlRhu0VeCfEHFteGflXmOCeXAUfjNp4B7MtQj31cQ4myouy+7gZY+u+ZMsUtSmTuavfhnrtsKkIOXlB6y6mpd6x5NbWlmwAgzibnT7MdNTqg9mqsvTP+8/ibhw/g2i4dQtNFC4XPxFRvM5StoXOecA8N8R1ZS3VUmun59x851jwtQujqehV2Cjp0EjsAqgADEucAZq9bbWzZVskb/j/MtSnaorlasb02bHEoJWdM5oiIgCIiADNb8Z6Fr9HXqqwSaCeYAfdOM/tNknllDAgjIPYyk45xaLQljJM5Ur5AM9mxRjPabDxrwm6u13CuUg7+Qxxj6H+k1S826azy9ZS9DjqLFK//AGcmrSlDVHUpVIz0ZduvZThTKLxK9NgcCWRYvY5/CXVHN6eo+c8rb5PSkiRXxRsDIB9NpcOtDKua0z9BIRCkggnPp6SSiI/2oU5ck4RexK0/Eqa8PZRz5QIQO0seZw2zms9yXPMfuieBWvMV2wZd5FrXICkdMZk9yfJHbhwWXu0LAA6FMDcAoIou0in4dL025eXaXlFYGeQHP6T2BWPsrK5z5LYQ4LXkaOx2s91UMexGZPsTSXMrXaas8my4EsIay3JjPzleYKehUj1hVZckOlDgnJqa6/gQIgG220ui+srhgDn1mGclLOcKGVhnPzkpP7xRkY2HeSq0uSXSiZRdTWCACM4lTqUGSCcnrMabBX8Pf5zxVa1rYIwucZjvPQjtLUyS6r4v6z2dR6nI7THsGNilemMbS0b1VuRtioyWz0PpHcktSO2jIWals7EcsmcBzbxEsvRVJJ+fT+ZidLRq9a2NLUzDpzkYUfjNs4Pw0cPoYEhrnOXYdPoJ6+lpznNSeh5eqqQjDFamQErETsHKEREAREQBERAKYlu2iu5OS5Fdf+FlBH6y7EAw2q8L8H1Jy2jVG9amKftMXd4G0oOdNrdRX35WCsP6H9ZtsoZjKhTlqjSNapHRmhanwjxKos1NlN47fEVMj/2JxSgDzNG5H+GQ3+c6LgRiYS6Gk9DePW1Ecyu0msVia9Dq2x393f8AiY7V3cRqs34XrRgd9O/8Tr2IxM/r4cmnnz4OTafVam7AOg1aDHXyH6/lKNdqAd9Jq89v9Xc/0nWolfro/wBE/YS4OT13a5rV5eHa1VxksdM+P2k8pa5BXSagnuBS38TpErD+Nj/QXyEuDnQo1e3+o6pgW3Apbb9JISjVMNtDqs/9ojf8ZvsYEmPxsFuH8hJ7GgNwfi91oavTED/rIEyGn8Na0hTY1de+T8WZt+Imi6CktfZnLrqr0NY0fhPkLnVa+y7mOQqoFC/vMnpPD/DtLkpQHYksWsPMSfxmUErN49NSjpEwlXqS1Z5VFVQqgAegEqBiVibmQiIgCIiAIiIAiIgCIiAIiIAiIgCIiAIiIAiIgCIiAIiIAiIgCIiAIiIAiIgCIiAIiIAiIgCIiAIiIAiIgCIiAIiIAiIgCIiAIiIAiIgCIiAIiIB//9k=;labelBorderColor=none;clipPath=inset(16.22% 7.75% 16.22% 11.5%);container=0;rounded=0;" parent="ikJFBv8js-pOLj2k_Jm1-110" vertex="1">
          <mxGeometry x="0.5" y="131.22" width="99" height="57.56" as="geometry" />
        </mxCell>
        <mxCell id="ikJFBv8js-pOLj2k_Jm1-74" value="Hamburger $10.00" style="text;html=1;align=center;verticalAlign=middle;whiteSpace=wrap;rounded=0;fontSize=9;container=0;" parent="ikJFBv8js-pOLj2k_Jm1-110" vertex="1">
          <mxGeometry x="10" y="191.28" width="80" height="20" as="geometry" />
        </mxCell>
        <mxCell id="ikJFBv8js-pOLj2k_Jm1-77" value="" style="rounded=0;whiteSpace=wrap;html=1;container=0;" parent="ikJFBv8js-pOLj2k_Jm1-110" vertex="1">
          <mxGeometry x="110" y="220.00000000000003" width="100" height="100" as="geometry" />
        </mxCell>
        <mxCell id="ikJFBv8js-pOLj2k_Jm1-78" value="" style="shape=image;verticalLabelPosition=bottom;labelBackgroundColor=default;verticalAlign=top;aspect=fixed;imageAspect=0;image=data:image/jpeg,/9j/4AAQSkZJRgABAQAAAQABAAD/2wCEAAkGBwgHBgkIBwgKCgkLDRYPDQwMDRsUFRAWIB0iIiAdHx8kKDQsJCYxJx8fLT0tMTU3Ojo6Iys/RD84QzQ5OjcBCgoKDQwNGg8PGjclHyU3Nzc3Nzc3Nzc3Nzc3Nzc3Nzc3Nzc3Nzc3Nzc3Nzc3Nzc3Nzc3Nzc3Nzc3Nzc3Nzc3N//AABEIAJQA1QMBIgACEQEDEQH/xAAbAAEAAQUBAAAAAAAAAAAAAAAABAEDBQYHAv/EAD4QAAICAQIEAwUHAQQLAQAAAAECAAMRBCEFEjFBBhNRBxQiYXEyQoGRobHRwRUjY+EXJDNDUlNic4KS8Rb/xAAaAQEAAwEBAQAAAAAAAAAAAAAAAQIDBQQG/8QAJhEAAgEDAwQCAwEAAAAAAAAAAAECAxESMUFRBBMUIQUVIjJSYf/aAAwDAQACEQMRAD8A7jERAEREAREQBERAEREAREQBERAEREAREQBERAEREAREQBERAEREAREQBESkArEs6nU06WprdRatVa9WY4EwGv8AGOg07cmmPvDd8HA/OUnUjD9mXjCU9EbLE0nVeM9XWodNCnIfvF/4ninxrqL2wK6kz6+v5zHy6XJr4tTg3mJodni7ianB06Kc43BO3rLw8XaghyHoKjo5GB+8jy6Q8WobtE1BPFWoNfNy1PkHHJLa+MLelgrR+6OpBWPLpcjxqnBucTTH8V6pcHlqKndcA7/KUHijXGotX5DtjoOo/WT5dLkeLU4N0iaOfFPEW5eRtGo75Pb+k9VeIeJs5Z7dMK9gMKdz8jHl0x4tQ3aJo48S8RDFLnWsgZY8gwJeTxPraw5tCNy7D4MZ+fXpHl0yfFqG5RNV0/ifU2BSdKp5h0GRPCeLLrFdk0qhEOGLN/nJ8qnyV8apwbbE0uvxhq2XzDpafK5sZ5yMfWTNH4w09gT3ms1lm5dj0+ohdVSe4fTVVsbREjaPW0aysWaexXQ9xJAm6aaujFq3plYiJJAiIgCIiADIXFtfVw3Q26u8/DWNgOpPYCTD0mg+0jiSP5PDlI5lYWsQd89hMq08INmlOGcrGB4zxvU8Va33uwVBcBagxwP85jEaso9TubFwOUIvX5fISM5BCYTHL3zkmSaEYElH5Fb4Sx7CcSc3J+zrxgkjzWXsZVNgwv8AzXPLiSURXWy02Up1wEzk+mO882VgH+7z6jI7STSlZrYWoS5GxXtMsjSxHK6lagWa4BxkcznDD85Pdvf0NhVaxSm+GzkypZ/JWguTWhygI6bTwlCg5AAJ6kSMraFkrkdC1Rym2fkJ7auzkWy1SQ+SCW6/OSDSGBA6y4ambk5ix5FwufSVuWsU01LrpmZ7QmmYZRA2/wD6yOFFbv5b8ynoXXMk+TgTz5fyhyZKRHqxYEr1FaVH4suPiB9PpL1Nenrqaq5UY83wEKGXPbB2IlwU5lWq6Z3x8pGQxKCi7T1tXqg/k2b87AM+fTJPSWE8tUZHRyR/s38zBX09ZJChXUsDydDjqPpLq1Vo9nKC6Wb4fqp+UnIjEx/n6hghZmLrtzYAI/ES4lliWFwRzN9oOBv85fNAbDdUU4btvPY5udXITnxys3L9oHsfWRk1uTii3UULMbn8sOA5A6ZHqvQz0Gr5rA1CHm+yQeh9d/2lBVnOdhglfrnpBQ7esnNjD0X9LbqdJbVq9OErYdFBwD8yPQzeOB8Yq4lSAxVdQFHOn8fKaI3PaQxIYqMY6ZGekkcPuOj1aamlSAm/If1nr6bqXCVtjydR0ynG+50jMS1RYLqUsXo6hh+MuzuJ3VzjCIiSBERAKHpOZeNKhVx61rKxiwBgfUYxOnGa74t4GeJ1JfplB1NQIAJxzKe08/U03OFkbUJqE7s5gKMjAG2ZOqoL19M/KXX0xo1Lae4GuwHo4wTLunYBRybA7zkOm7nUzRb5CORT+XpJVGnXy2cnfICj1l0Voy5PU95Rsoygbg7fSVdO3slTueFqJPSe/Ikute/fvPRQjrHaLd0i0UIy8wJPYZMveUFEkV1j6R7sXcry7desrgWzIzLtkjHTbvgw9HKSOu+JOr04CEkkt3Jnp6TnZdhI7bsT3DHrVt0g1Z7Seah1Ax8pTysynbsXUzHtT2nry9pNZOXGR1lDST02lcPZORCprZ6ruVsIh+PPTMCvp9ZPXTjJwOvX5y4+mAXmxvLODZCmkY4oAmAOnX6GUWrldW64OSJP8gnJGVON8HrPK1Y+1+frGBOaIBpw2RtAr5iQSeh/OT7KcAEj6bzwlLGwKq5LZwAcyVB3KuasbZwG7zuF0Z2KLyH8NpkZi+B6e/TaTlvAXJ+FR2mUHSfQ0b9tX1OBVtm7CIialBERAEo3rKyJxLX0cO0j6nUtyovoMkmQ3ZBe2cd9rXipK/Ea6PhyUu+nTl1VgB5ubqFz8h+806nxlrKGIs0/OR9kK+x+uZBusst1F1utLvqbXZ7HPdycn9Z5bTFK11BrPlkkA+v0nkli3do90YyS9Gfr9oNo8oe5FlX/AGvxft+kv3e0mmu1VTh1rVkAseYAj6TUrKfKAbGctvt2izQeY1bIqlG6/SRjC+hP5WN6r9pvBgQvu2tGw25FP9ZLX2kcBZwGOrQEHdqNh+RM5Z7kfeWXHMEG7Dfeexw52Xm5TjOMyXTplVKZ1Or2mcAK/H70rD/AJEuD2oeHQFJ97DZxjyDt67zldPDVGTY2fkYXRIzkIrDtyncyvbplspnVT7U/DqW/CutZQftLQAD+ZzLb+1ngiIxTTa5m+6CirzfrOYf2bWR6H0nptDUgAI5vT8owp8DKfJ0Ye1nhDHP9na4D/wAP5nvTe1bhLs3naLWVqCOUgK+R3PXbE50NHQF6LvKjQ1JgMoyRtiVdOk9iVKpydB4l7VOHJcU0OkvuRQOR2UJzHfOx6dv1kGr2sWDTnzuDqNRn4cWkqd+/eah7jQSA6/aGVBlbtKtFNlu2FX4d846RhT0sTepuzb/9K2sNVZHBVVvv5s269vwll/azxPqOEaYKB96xtprldXNpktuKICv3N/wEyFWipyvNWA/LjkaLU1sT+fI1/tD4/wARurfRmrRFVwwrAcP9eYH9JIq8aeJDphXdbSXU8zOEALLjGDj652wdpiE0a6HWrzAeTYvwCTNPpXYnmGAd94ljsglK/tkmjjPHbqtOur4lcyUMGQAKpG2MkgZPXvn17Tufg1Uv8O8N1LqHv8gA2EZY9s/pOG1JWwG5yCM56YnZvZmaz4YqNVjvl2JDDAU56D5S9FrMy6j9Dax0lYie08QiIgCIiADNW8dWh9LRowMl2LkfIdP3m0maR4280cSTl70jB/EzGvK0Ga0VeaOLeIKruG65zbWxqZvhciQzrKr6FoNgRV3GO86kdPTqagNRUro33WGZiOIeB+A6wlvKsocnbyW5RPGqkXqe3GS0NHGoVOVnIGOnfMuVaipUPI4VSS02Z/ZppCp924lqV26OQf6TEav2e8YoJWjUJagGQeXf6TROL3K3ktjC6G1We0WZQk5xnsczICyuqo2Ag4UbSP8A/keP0eZcKFcnAPK25+gke/QcZQMt2g1DKenKhOfyktLZkKX+EzS1JYvm2EczHdM4OJc1mlSmq66gEWHb7XQTFLZraPt6TUKQMgtSw2/KUs1zeW1dtThjjJ5TnaVxdy2SJlWna9y1jZwMqQesuW6FXVCHw4bIHy7yzo7GsHm+YqD0M9W60qFKk5YHdQTDvcXRJtqo96ro8v4+UknpJSrpxyqyDOcAfSYW3WudQLLA3wKOgIJ+sqOIagsGFTqAMj4T/EjEnJGW4fQbbHutsQ/3jKpHTBO2JLtqrrAChdyPu9ph9FbqtUW8nS3qvyQ7n5bTJ/2Vxe6jzUpYDIGLuYNg98YlXqWuiLxRqNIpyqtaX+Csn4diN5XQ3NZa2ocDYlRhu0VeCfEHFteGflXmOCeXAUfjNp4B7MtQj31cQ4myouy+7gZY+u+ZMsUtSmTuavfhnrtsKkIOXlB6y6mpd6x5NbWlmwAgzibnT7MdNTqg9mqsvTP+8/ibhw/g2i4dQtNFC4XPxFRvM5StoXOecA8N8R1ZS3VUmun59x851jwtQujqehV2Cjp0EjsAqgADEucAZq9bbWzZVskb/j/MtSnaorlasb02bHEoJWdM5oiIgCIiADNb8Z6Fr9HXqqwSaCeYAfdOM/tNknllDAgjIPYyk45xaLQljJM5Ur5AM9mxRjPabDxrwm6u13CuUg7+Qxxj6H+k1S826azy9ZS9DjqLFK//AGcmrSlDVHUpVIz0ZduvZThTKLxK9NgcCWRYvY5/CXVHN6eo+c8rb5PSkiRXxRsDIB9NpcOtDKua0z9BIRCkggnPp6SSiI/2oU5ck4RexK0/Eqa8PZRz5QIQO0seZw2zms9yXPMfuieBWvMV2wZd5FrXICkdMZk9yfJHbhwWXu0LAA6FMDcAoIou0in4dL025eXaXlFYGeQHP6T2BWPsrK5z5LYQ4LXkaOx2s91UMexGZPsTSXMrXaas8my4EsIay3JjPzleYKehUj1hVZckOlDgnJqa6/gQIgG220ui+srhgDn1mGclLOcKGVhnPzkpP7xRkY2HeSq0uSXSiZRdTWCACM4lTqUGSCcnrMabBX8Pf5zxVa1rYIwucZjvPQjtLUyS6r4v6z2dR6nI7THsGNilemMbS0b1VuRtioyWz0PpHcktSO2jIWals7EcsmcBzbxEsvRVJJ+fT+ZidLRq9a2NLUzDpzkYUfjNs4Pw0cPoYEhrnOXYdPoJ6+lpznNSeh5eqqQjDFamQErETsHKEREAREQBERAKYlu2iu5OS5Fdf+FlBH6y7EAw2q8L8H1Jy2jVG9amKftMXd4G0oOdNrdRX35WCsP6H9ZtsoZjKhTlqjSNapHRmhanwjxKos1NlN47fEVMj/2JxSgDzNG5H+GQ3+c6LgRiYS6Gk9DePW1Ecyu0msVia9Dq2x393f8AiY7V3cRqs34XrRgd9O/8Tr2IxM/r4cmnnz4OTafVam7AOg1aDHXyH6/lKNdqAd9Jq89v9Xc/0nWolfro/wBE/YS4OT13a5rV5eHa1VxksdM+P2k8pa5BXSagnuBS38TpErD+Nj/QXyEuDnQo1e3+o6pgW3Apbb9JISjVMNtDqs/9ojf8ZvsYEmPxsFuH8hJ7GgNwfi91oavTED/rIEyGn8Na0hTY1de+T8WZt+Imi6CktfZnLrqr0NY0fhPkLnVa+y7mOQqoFC/vMnpPD/DtLkpQHYksWsPMSfxmUErN49NSjpEwlXqS1Z5VFVQqgAegEqBiVibmQiIgCIiAIiIAiIgCIiAIiIAiIgCIiAIiIAiIgCIiAIiIAiIgCIiAIiIAiIgCIiAIiIAiIgCIiAIiIAiIgCIiAIiIAiIgCIiAIiIAiIgCIiAIiIB//9k=;labelBorderColor=none;clipPath=inset(16.22% 7.75% 16.22% 11.5%);container=0;rounded=0;" parent="ikJFBv8js-pOLj2k_Jm1-110" vertex="1">
          <mxGeometry x="110.5" y="241.22000000000006" width="99" height="57.56" as="geometry" />
        </mxCell>
        <mxCell id="ikJFBv8js-pOLj2k_Jm1-79" value="Hamburger $10.00" style="text;html=1;align=center;verticalAlign=middle;whiteSpace=wrap;rounded=0;fontSize=9;container=0;" parent="ikJFBv8js-pOLj2k_Jm1-110" vertex="1">
          <mxGeometry x="120" y="301.2800000000001" width="80" height="20" as="geometry" />
        </mxCell>
        <mxCell id="ikJFBv8js-pOLj2k_Jm1-82" value="" style="rounded=0;whiteSpace=wrap;html=1;container=0;" parent="ikJFBv8js-pOLj2k_Jm1-110" vertex="1">
          <mxGeometry x="220" y="220.00000000000003" width="100" height="100" as="geometry" />
        </mxCell>
        <mxCell id="ikJFBv8js-pOLj2k_Jm1-83" value="" style="shape=image;verticalLabelPosition=bottom;labelBackgroundColor=default;verticalAlign=top;aspect=fixed;imageAspect=0;image=data:image/jpeg,/9j/4AAQSkZJRgABAQAAAQABAAD/2wCEAAkGBwgHBgkIBwgKCgkLDRYPDQwMDRsUFRAWIB0iIiAdHx8kKDQsJCYxJx8fLT0tMTU3Ojo6Iys/RD84QzQ5OjcBCgoKDQwNGg8PGjclHyU3Nzc3Nzc3Nzc3Nzc3Nzc3Nzc3Nzc3Nzc3Nzc3Nzc3Nzc3Nzc3Nzc3Nzc3Nzc3Nzc3N//AABEIAJQA1QMBIgACEQEDEQH/xAAbAAEAAQUBAAAAAAAAAAAAAAAABAEDBQYHAv/EAD4QAAICAQIEAwUHAQQLAQAAAAECAAMRBCEFEjFBBhNRBxQiYXEyQoGRobHRwRUjY+EXJDNDUlNic4KS8Rb/xAAaAQEAAwEBAQAAAAAAAAAAAAAAAQIDBQQG/8QAJhEAAgEDAwQCAwEAAAAAAAAAAAECAxESMUFRBBMUIQUVIjJSYf/aAAwDAQACEQMRAD8A7jERAEREAREQBERAEREAREQBERAEREAREQBERAEREAREQBERAEREAREQBESkArEs6nU06WprdRatVa9WY4EwGv8AGOg07cmmPvDd8HA/OUnUjD9mXjCU9EbLE0nVeM9XWodNCnIfvF/4ninxrqL2wK6kz6+v5zHy6XJr4tTg3mJodni7ianB06Kc43BO3rLw8XaghyHoKjo5GB+8jy6Q8WobtE1BPFWoNfNy1PkHHJLa+MLelgrR+6OpBWPLpcjxqnBucTTH8V6pcHlqKndcA7/KUHijXGotX5DtjoOo/WT5dLkeLU4N0iaOfFPEW5eRtGo75Pb+k9VeIeJs5Z7dMK9gMKdz8jHl0x4tQ3aJo48S8RDFLnWsgZY8gwJeTxPraw5tCNy7D4MZ+fXpHl0yfFqG5RNV0/ifU2BSdKp5h0GRPCeLLrFdk0qhEOGLN/nJ8qnyV8apwbbE0uvxhq2XzDpafK5sZ5yMfWTNH4w09gT3ms1lm5dj0+ohdVSe4fTVVsbREjaPW0aysWaexXQ9xJAm6aaujFq3plYiJJAiIgCIiADIXFtfVw3Q26u8/DWNgOpPYCTD0mg+0jiSP5PDlI5lYWsQd89hMq08INmlOGcrGB4zxvU8Va33uwVBcBagxwP85jEaso9TubFwOUIvX5fISM5BCYTHL3zkmSaEYElH5Fb4Sx7CcSc3J+zrxgkjzWXsZVNgwv8AzXPLiSURXWy02Up1wEzk+mO882VgH+7z6jI7STSlZrYWoS5GxXtMsjSxHK6lagWa4BxkcznDD85Pdvf0NhVaxSm+GzkypZ/JWguTWhygI6bTwlCg5AAJ6kSMraFkrkdC1Rym2fkJ7auzkWy1SQ+SCW6/OSDSGBA6y4ambk5ix5FwufSVuWsU01LrpmZ7QmmYZRA2/wD6yOFFbv5b8ynoXXMk+TgTz5fyhyZKRHqxYEr1FaVH4suPiB9PpL1Nenrqaq5UY83wEKGXPbB2IlwU5lWq6Z3x8pGQxKCi7T1tXqg/k2b87AM+fTJPSWE8tUZHRyR/s38zBX09ZJChXUsDydDjqPpLq1Vo9nKC6Wb4fqp+UnIjEx/n6hghZmLrtzYAI/ES4lliWFwRzN9oOBv85fNAbDdUU4btvPY5udXITnxys3L9oHsfWRk1uTii3UULMbn8sOA5A6ZHqvQz0Gr5rA1CHm+yQeh9d/2lBVnOdhglfrnpBQ7esnNjD0X9LbqdJbVq9OErYdFBwD8yPQzeOB8Yq4lSAxVdQFHOn8fKaI3PaQxIYqMY6ZGekkcPuOj1aamlSAm/If1nr6bqXCVtjydR0ynG+50jMS1RYLqUsXo6hh+MuzuJ3VzjCIiSBERAKHpOZeNKhVx61rKxiwBgfUYxOnGa74t4GeJ1JfplB1NQIAJxzKe08/U03OFkbUJqE7s5gKMjAG2ZOqoL19M/KXX0xo1Lae4GuwHo4wTLunYBRybA7zkOm7nUzRb5CORT+XpJVGnXy2cnfICj1l0Voy5PU95Rsoygbg7fSVdO3slTueFqJPSe/Ikute/fvPRQjrHaLd0i0UIy8wJPYZMveUFEkV1j6R7sXcry7desrgWzIzLtkjHTbvgw9HKSOu+JOr04CEkkt3Jnp6TnZdhI7bsT3DHrVt0g1Z7Seah1Ax8pTysynbsXUzHtT2nry9pNZOXGR1lDST02lcPZORCprZ6ruVsIh+PPTMCvp9ZPXTjJwOvX5y4+mAXmxvLODZCmkY4oAmAOnX6GUWrldW64OSJP8gnJGVON8HrPK1Y+1+frGBOaIBpw2RtAr5iQSeh/OT7KcAEj6bzwlLGwKq5LZwAcyVB3KuasbZwG7zuF0Z2KLyH8NpkZi+B6e/TaTlvAXJ+FR2mUHSfQ0b9tX1OBVtm7CIialBERAEo3rKyJxLX0cO0j6nUtyovoMkmQ3ZBe2cd9rXipK/Ea6PhyUu+nTl1VgB5ubqFz8h+806nxlrKGIs0/OR9kK+x+uZBusst1F1utLvqbXZ7HPdycn9Z5bTFK11BrPlkkA+v0nkli3do90YyS9Gfr9oNo8oe5FlX/AGvxft+kv3e0mmu1VTh1rVkAseYAj6TUrKfKAbGctvt2izQeY1bIqlG6/SRjC+hP5WN6r9pvBgQvu2tGw25FP9ZLX2kcBZwGOrQEHdqNh+RM5Z7kfeWXHMEG7Dfeexw52Xm5TjOMyXTplVKZ1Or2mcAK/H70rD/AJEuD2oeHQFJ97DZxjyDt67zldPDVGTY2fkYXRIzkIrDtyncyvbplspnVT7U/DqW/CutZQftLQAD+ZzLb+1ngiIxTTa5m+6CirzfrOYf2bWR6H0nptDUgAI5vT8owp8DKfJ0Ye1nhDHP9na4D/wAP5nvTe1bhLs3naLWVqCOUgK+R3PXbE50NHQF6LvKjQ1JgMoyRtiVdOk9iVKpydB4l7VOHJcU0OkvuRQOR2UJzHfOx6dv1kGr2sWDTnzuDqNRn4cWkqd+/eah7jQSA6/aGVBlbtKtFNlu2FX4d846RhT0sTepuzb/9K2sNVZHBVVvv5s269vwll/azxPqOEaYKB96xtprldXNpktuKICv3N/wEyFWipyvNWA/LjkaLU1sT+fI1/tD4/wARurfRmrRFVwwrAcP9eYH9JIq8aeJDphXdbSXU8zOEALLjGDj652wdpiE0a6HWrzAeTYvwCTNPpXYnmGAd94ljsglK/tkmjjPHbqtOur4lcyUMGQAKpG2MkgZPXvn17Tufg1Uv8O8N1LqHv8gA2EZY9s/pOG1JWwG5yCM56YnZvZmaz4YqNVjvl2JDDAU56D5S9FrMy6j9Dax0lYie08QiIgCIiADNW8dWh9LRowMl2LkfIdP3m0maR4280cSTl70jB/EzGvK0Ga0VeaOLeIKruG65zbWxqZvhciQzrKr6FoNgRV3GO86kdPTqagNRUro33WGZiOIeB+A6wlvKsocnbyW5RPGqkXqe3GS0NHGoVOVnIGOnfMuVaipUPI4VSS02Z/ZppCp924lqV26OQf6TEav2e8YoJWjUJagGQeXf6TROL3K3ktjC6G1We0WZQk5xnsczICyuqo2Ag4UbSP8A/keP0eZcKFcnAPK25+gke/QcZQMt2g1DKenKhOfyktLZkKX+EzS1JYvm2EczHdM4OJc1mlSmq66gEWHb7XQTFLZraPt6TUKQMgtSw2/KUs1zeW1dtThjjJ5TnaVxdy2SJlWna9y1jZwMqQesuW6FXVCHw4bIHy7yzo7GsHm+YqD0M9W60qFKk5YHdQTDvcXRJtqo96ro8v4+UknpJSrpxyqyDOcAfSYW3WudQLLA3wKOgIJ+sqOIagsGFTqAMj4T/EjEnJGW4fQbbHutsQ/3jKpHTBO2JLtqrrAChdyPu9ph9FbqtUW8nS3qvyQ7n5bTJ/2Vxe6jzUpYDIGLuYNg98YlXqWuiLxRqNIpyqtaX+Csn4diN5XQ3NZa2ocDYlRhu0VeCfEHFteGflXmOCeXAUfjNp4B7MtQj31cQ4myouy+7gZY+u+ZMsUtSmTuavfhnrtsKkIOXlB6y6mpd6x5NbWlmwAgzibnT7MdNTqg9mqsvTP+8/ibhw/g2i4dQtNFC4XPxFRvM5StoXOecA8N8R1ZS3VUmun59x851jwtQujqehV2Cjp0EjsAqgADEucAZq9bbWzZVskb/j/MtSnaorlasb02bHEoJWdM5oiIgCIiADNb8Z6Fr9HXqqwSaCeYAfdOM/tNknllDAgjIPYyk45xaLQljJM5Ur5AM9mxRjPabDxrwm6u13CuUg7+Qxxj6H+k1S826azy9ZS9DjqLFK//AGcmrSlDVHUpVIz0ZduvZThTKLxK9NgcCWRYvY5/CXVHN6eo+c8rb5PSkiRXxRsDIB9NpcOtDKua0z9BIRCkggnPp6SSiI/2oU5ck4RexK0/Eqa8PZRz5QIQO0seZw2zms9yXPMfuieBWvMV2wZd5FrXICkdMZk9yfJHbhwWXu0LAA6FMDcAoIou0in4dL025eXaXlFYGeQHP6T2BWPsrK5z5LYQ4LXkaOx2s91UMexGZPsTSXMrXaas8my4EsIay3JjPzleYKehUj1hVZckOlDgnJqa6/gQIgG220ui+srhgDn1mGclLOcKGVhnPzkpP7xRkY2HeSq0uSXSiZRdTWCACM4lTqUGSCcnrMabBX8Pf5zxVa1rYIwucZjvPQjtLUyS6r4v6z2dR6nI7THsGNilemMbS0b1VuRtioyWz0PpHcktSO2jIWals7EcsmcBzbxEsvRVJJ+fT+ZidLRq9a2NLUzDpzkYUfjNs4Pw0cPoYEhrnOXYdPoJ6+lpznNSeh5eqqQjDFamQErETsHKEREAREQBERAKYlu2iu5OS5Fdf+FlBH6y7EAw2q8L8H1Jy2jVG9amKftMXd4G0oOdNrdRX35WCsP6H9ZtsoZjKhTlqjSNapHRmhanwjxKos1NlN47fEVMj/2JxSgDzNG5H+GQ3+c6LgRiYS6Gk9DePW1Ecyu0msVia9Dq2x393f8AiY7V3cRqs34XrRgd9O/8Tr2IxM/r4cmnnz4OTafVam7AOg1aDHXyH6/lKNdqAd9Jq89v9Xc/0nWolfro/wBE/YS4OT13a5rV5eHa1VxksdM+P2k8pa5BXSagnuBS38TpErD+Nj/QXyEuDnQo1e3+o6pgW3Apbb9JISjVMNtDqs/9ojf8ZvsYEmPxsFuH8hJ7GgNwfi91oavTED/rIEyGn8Na0hTY1de+T8WZt+Imi6CktfZnLrqr0NY0fhPkLnVa+y7mOQqoFC/vMnpPD/DtLkpQHYksWsPMSfxmUErN49NSjpEwlXqS1Z5VFVQqgAegEqBiVibmQiIgCIiAIiIAiIgCIiAIiIAiIgCIiAIiIAiIgCIiAIiIAiIgCIiAIiIAiIgCIiAIiIAiIgCIiAIiIAiIgCIiAIiIAiIgCIiAIiIAiIgCIiAIiIB//9k=;labelBorderColor=none;clipPath=inset(16.22% 7.75% 16.22% 11.5%);container=0;rounded=0;" parent="ikJFBv8js-pOLj2k_Jm1-110" vertex="1">
          <mxGeometry x="220.5" y="241.22000000000006" width="99" height="57.56" as="geometry" />
        </mxCell>
        <mxCell id="ikJFBv8js-pOLj2k_Jm1-84" value="Hamburger $10.00" style="text;html=1;align=center;verticalAlign=middle;whiteSpace=wrap;rounded=0;fontSize=9;container=0;" parent="ikJFBv8js-pOLj2k_Jm1-110" vertex="1">
          <mxGeometry x="230" y="301.2800000000001" width="80" height="20" as="geometry" />
        </mxCell>
        <mxCell id="ikJFBv8js-pOLj2k_Jm1-87" value="" style="rounded=0;whiteSpace=wrap;html=1;container=0;" parent="ikJFBv8js-pOLj2k_Jm1-110" vertex="1">
          <mxGeometry y="220.00000000000003" width="100" height="100" as="geometry" />
        </mxCell>
        <mxCell id="ikJFBv8js-pOLj2k_Jm1-88" value="" style="shape=image;verticalLabelPosition=bottom;labelBackgroundColor=default;verticalAlign=top;aspect=fixed;imageAspect=0;image=data:image/jpeg,/9j/4AAQSkZJRgABAQAAAQABAAD/2wCEAAkGBwgHBgkIBwgKCgkLDRYPDQwMDRsUFRAWIB0iIiAdHx8kKDQsJCYxJx8fLT0tMTU3Ojo6Iys/RD84QzQ5OjcBCgoKDQwNGg8PGjclHyU3Nzc3Nzc3Nzc3Nzc3Nzc3Nzc3Nzc3Nzc3Nzc3Nzc3Nzc3Nzc3Nzc3Nzc3Nzc3Nzc3N//AABEIAJQA1QMBIgACEQEDEQH/xAAbAAEAAQUBAAAAAAAAAAAAAAAABAEDBQYHAv/EAD4QAAICAQIEAwUHAQQLAQAAAAECAAMRBCEFEjFBBhNRBxQiYXEyQoGRobHRwRUjY+EXJDNDUlNic4KS8Rb/xAAaAQEAAwEBAQAAAAAAAAAAAAAAAQIDBQQG/8QAJhEAAgEDAwQCAwEAAAAAAAAAAAECAxESMUFRBBMUIQUVIjJSYf/aAAwDAQACEQMRAD8A7jERAEREAREQBERAEREAREQBERAEREAREQBERAEREAREQBERAEREAREQBESkArEs6nU06WprdRatVa9WY4EwGv8AGOg07cmmPvDd8HA/OUnUjD9mXjCU9EbLE0nVeM9XWodNCnIfvF/4ninxrqL2wK6kz6+v5zHy6XJr4tTg3mJodni7ianB06Kc43BO3rLw8XaghyHoKjo5GB+8jy6Q8WobtE1BPFWoNfNy1PkHHJLa+MLelgrR+6OpBWPLpcjxqnBucTTH8V6pcHlqKndcA7/KUHijXGotX5DtjoOo/WT5dLkeLU4N0iaOfFPEW5eRtGo75Pb+k9VeIeJs5Z7dMK9gMKdz8jHl0x4tQ3aJo48S8RDFLnWsgZY8gwJeTxPraw5tCNy7D4MZ+fXpHl0yfFqG5RNV0/ifU2BSdKp5h0GRPCeLLrFdk0qhEOGLN/nJ8qnyV8apwbbE0uvxhq2XzDpafK5sZ5yMfWTNH4w09gT3ms1lm5dj0+ohdVSe4fTVVsbREjaPW0aysWaexXQ9xJAm6aaujFq3plYiJJAiIgCIiADIXFtfVw3Q26u8/DWNgOpPYCTD0mg+0jiSP5PDlI5lYWsQd89hMq08INmlOGcrGB4zxvU8Va33uwVBcBagxwP85jEaso9TubFwOUIvX5fISM5BCYTHL3zkmSaEYElH5Fb4Sx7CcSc3J+zrxgkjzWXsZVNgwv8AzXPLiSURXWy02Up1wEzk+mO882VgH+7z6jI7STSlZrYWoS5GxXtMsjSxHK6lagWa4BxkcznDD85Pdvf0NhVaxSm+GzkypZ/JWguTWhygI6bTwlCg5AAJ6kSMraFkrkdC1Rym2fkJ7auzkWy1SQ+SCW6/OSDSGBA6y4ambk5ix5FwufSVuWsU01LrpmZ7QmmYZRA2/wD6yOFFbv5b8ynoXXMk+TgTz5fyhyZKRHqxYEr1FaVH4suPiB9PpL1Nenrqaq5UY83wEKGXPbB2IlwU5lWq6Z3x8pGQxKCi7T1tXqg/k2b87AM+fTJPSWE8tUZHRyR/s38zBX09ZJChXUsDydDjqPpLq1Vo9nKC6Wb4fqp+UnIjEx/n6hghZmLrtzYAI/ES4lliWFwRzN9oOBv85fNAbDdUU4btvPY5udXITnxys3L9oHsfWRk1uTii3UULMbn8sOA5A6ZHqvQz0Gr5rA1CHm+yQeh9d/2lBVnOdhglfrnpBQ7esnNjD0X9LbqdJbVq9OErYdFBwD8yPQzeOB8Yq4lSAxVdQFHOn8fKaI3PaQxIYqMY6ZGekkcPuOj1aamlSAm/If1nr6bqXCVtjydR0ynG+50jMS1RYLqUsXo6hh+MuzuJ3VzjCIiSBERAKHpOZeNKhVx61rKxiwBgfUYxOnGa74t4GeJ1JfplB1NQIAJxzKe08/U03OFkbUJqE7s5gKMjAG2ZOqoL19M/KXX0xo1Lae4GuwHo4wTLunYBRybA7zkOm7nUzRb5CORT+XpJVGnXy2cnfICj1l0Voy5PU95Rsoygbg7fSVdO3slTueFqJPSe/Ikute/fvPRQjrHaLd0i0UIy8wJPYZMveUFEkV1j6R7sXcry7desrgWzIzLtkjHTbvgw9HKSOu+JOr04CEkkt3Jnp6TnZdhI7bsT3DHrVt0g1Z7Seah1Ax8pTysynbsXUzHtT2nry9pNZOXGR1lDST02lcPZORCprZ6ruVsIh+PPTMCvp9ZPXTjJwOvX5y4+mAXmxvLODZCmkY4oAmAOnX6GUWrldW64OSJP8gnJGVON8HrPK1Y+1+frGBOaIBpw2RtAr5iQSeh/OT7KcAEj6bzwlLGwKq5LZwAcyVB3KuasbZwG7zuF0Z2KLyH8NpkZi+B6e/TaTlvAXJ+FR2mUHSfQ0b9tX1OBVtm7CIialBERAEo3rKyJxLX0cO0j6nUtyovoMkmQ3ZBe2cd9rXipK/Ea6PhyUu+nTl1VgB5ubqFz8h+806nxlrKGIs0/OR9kK+x+uZBusst1F1utLvqbXZ7HPdycn9Z5bTFK11BrPlkkA+v0nkli3do90YyS9Gfr9oNo8oe5FlX/AGvxft+kv3e0mmu1VTh1rVkAseYAj6TUrKfKAbGctvt2izQeY1bIqlG6/SRjC+hP5WN6r9pvBgQvu2tGw25FP9ZLX2kcBZwGOrQEHdqNh+RM5Z7kfeWXHMEG7Dfeexw52Xm5TjOMyXTplVKZ1Or2mcAK/H70rD/AJEuD2oeHQFJ97DZxjyDt67zldPDVGTY2fkYXRIzkIrDtyncyvbplspnVT7U/DqW/CutZQftLQAD+ZzLb+1ngiIxTTa5m+6CirzfrOYf2bWR6H0nptDUgAI5vT8owp8DKfJ0Ye1nhDHP9na4D/wAP5nvTe1bhLs3naLWVqCOUgK+R3PXbE50NHQF6LvKjQ1JgMoyRtiVdOk9iVKpydB4l7VOHJcU0OkvuRQOR2UJzHfOx6dv1kGr2sWDTnzuDqNRn4cWkqd+/eah7jQSA6/aGVBlbtKtFNlu2FX4d846RhT0sTepuzb/9K2sNVZHBVVvv5s269vwll/azxPqOEaYKB96xtprldXNpktuKICv3N/wEyFWipyvNWA/LjkaLU1sT+fI1/tD4/wARurfRmrRFVwwrAcP9eYH9JIq8aeJDphXdbSXU8zOEALLjGDj652wdpiE0a6HWrzAeTYvwCTNPpXYnmGAd94ljsglK/tkmjjPHbqtOur4lcyUMGQAKpG2MkgZPXvn17Tufg1Uv8O8N1LqHv8gA2EZY9s/pOG1JWwG5yCM56YnZvZmaz4YqNVjvl2JDDAU56D5S9FrMy6j9Dax0lYie08QiIgCIiADNW8dWh9LRowMl2LkfIdP3m0maR4280cSTl70jB/EzGvK0Ga0VeaOLeIKruG65zbWxqZvhciQzrKr6FoNgRV3GO86kdPTqagNRUro33WGZiOIeB+A6wlvKsocnbyW5RPGqkXqe3GS0NHGoVOVnIGOnfMuVaipUPI4VSS02Z/ZppCp924lqV26OQf6TEav2e8YoJWjUJagGQeXf6TROL3K3ktjC6G1We0WZQk5xnsczICyuqo2Ag4UbSP8A/keP0eZcKFcnAPK25+gke/QcZQMt2g1DKenKhOfyktLZkKX+EzS1JYvm2EczHdM4OJc1mlSmq66gEWHb7XQTFLZraPt6TUKQMgtSw2/KUs1zeW1dtThjjJ5TnaVxdy2SJlWna9y1jZwMqQesuW6FXVCHw4bIHy7yzo7GsHm+YqD0M9W60qFKk5YHdQTDvcXRJtqo96ro8v4+UknpJSrpxyqyDOcAfSYW3WudQLLA3wKOgIJ+sqOIagsGFTqAMj4T/EjEnJGW4fQbbHutsQ/3jKpHTBO2JLtqrrAChdyPu9ph9FbqtUW8nS3qvyQ7n5bTJ/2Vxe6jzUpYDIGLuYNg98YlXqWuiLxRqNIpyqtaX+Csn4diN5XQ3NZa2ocDYlRhu0VeCfEHFteGflXmOCeXAUfjNp4B7MtQj31cQ4myouy+7gZY+u+ZMsUtSmTuavfhnrtsKkIOXlB6y6mpd6x5NbWlmwAgzibnT7MdNTqg9mqsvTP+8/ibhw/g2i4dQtNFC4XPxFRvM5StoXOecA8N8R1ZS3VUmun59x851jwtQujqehV2Cjp0EjsAqgADEucAZq9bbWzZVskb/j/MtSnaorlasb02bHEoJWdM5oiIgCIiADNb8Z6Fr9HXqqwSaCeYAfdOM/tNknllDAgjIPYyk45xaLQljJM5Ur5AM9mxRjPabDxrwm6u13CuUg7+Qxxj6H+k1S826azy9ZS9DjqLFK//AGcmrSlDVHUpVIz0ZduvZThTKLxK9NgcCWRYvY5/CXVHN6eo+c8rb5PSkiRXxRsDIB9NpcOtDKua0z9BIRCkggnPp6SSiI/2oU5ck4RexK0/Eqa8PZRz5QIQO0seZw2zms9yXPMfuieBWvMV2wZd5FrXICkdMZk9yfJHbhwWXu0LAA6FMDcAoIou0in4dL025eXaXlFYGeQHP6T2BWPsrK5z5LYQ4LXkaOx2s91UMexGZPsTSXMrXaas8my4EsIay3JjPzleYKehUj1hVZckOlDgnJqa6/gQIgG220ui+srhgDn1mGclLOcKGVhnPzkpP7xRkY2HeSq0uSXSiZRdTWCACM4lTqUGSCcnrMabBX8Pf5zxVa1rYIwucZjvPQjtLUyS6r4v6z2dR6nI7THsGNilemMbS0b1VuRtioyWz0PpHcktSO2jIWals7EcsmcBzbxEsvRVJJ+fT+ZidLRq9a2NLUzDpzkYUfjNs4Pw0cPoYEhrnOXYdPoJ6+lpznNSeh5eqqQjDFamQErETsHKEREAREQBERAKYlu2iu5OS5Fdf+FlBH6y7EAw2q8L8H1Jy2jVG9amKftMXd4G0oOdNrdRX35WCsP6H9ZtsoZjKhTlqjSNapHRmhanwjxKos1NlN47fEVMj/2JxSgDzNG5H+GQ3+c6LgRiYS6Gk9DePW1Ecyu0msVia9Dq2x393f8AiY7V3cRqs34XrRgd9O/8Tr2IxM/r4cmnnz4OTafVam7AOg1aDHXyH6/lKNdqAd9Jq89v9Xc/0nWolfro/wBE/YS4OT13a5rV5eHa1VxksdM+P2k8pa5BXSagnuBS38TpErD+Nj/QXyEuDnQo1e3+o6pgW3Apbb9JISjVMNtDqs/9ojf8ZvsYEmPxsFuH8hJ7GgNwfi91oavTED/rIEyGn8Na0hTY1de+T8WZt+Imi6CktfZnLrqr0NY0fhPkLnVa+y7mOQqoFC/vMnpPD/DtLkpQHYksWsPMSfxmUErN49NSjpEwlXqS1Z5VFVQqgAegEqBiVibmQiIgCIiAIiIAiIgCIiAIiIAiIgCIiAIiIAiIgCIiAIiIAiIgCIiAIiIAiIgCIiAIiIAiIgCIiAIiIAiIgCIiAIiIAiIgCIiAIiIAiIgCIiAIiIB//9k=;labelBorderColor=none;clipPath=inset(16.22% 7.75% 16.22% 11.5%);container=0;rounded=0;" parent="ikJFBv8js-pOLj2k_Jm1-110" vertex="1">
          <mxGeometry x="0.5" y="241.22000000000006" width="99" height="57.56" as="geometry" />
        </mxCell>
        <mxCell id="ikJFBv8js-pOLj2k_Jm1-89" value="Hamburger $10.00" style="text;html=1;align=center;verticalAlign=middle;whiteSpace=wrap;rounded=0;fontSize=9;container=0;" parent="ikJFBv8js-pOLj2k_Jm1-110" vertex="1">
          <mxGeometry x="10" y="301.2800000000001" width="80" height="20" as="geometry" />
        </mxCell>
        <mxCell id="ikJFBv8js-pOLj2k_Jm1-1" value="" style="rounded=0;whiteSpace=wrap;html=1;container=0;" parent="ikJFBv8js-pOLj2k_Jm1-110" vertex="1">
          <mxGeometry x="110" y="2.842170943040401e-14" width="100" height="100" as="geometry" />
        </mxCell>
        <mxCell id="ikJFBv8js-pOLj2k_Jm1-2" value="" style="shape=image;verticalLabelPosition=bottom;labelBackgroundColor=default;verticalAlign=top;aspect=fixed;imageAspect=0;image=data:image/jpeg,/9j/4AAQSkZJRgABAQAAAQABAAD/2wCEAAkGBwgHBgkIBwgKCgkLDRYPDQwMDRsUFRAWIB0iIiAdHx8kKDQsJCYxJx8fLT0tMTU3Ojo6Iys/RD84QzQ5OjcBCgoKDQwNGg8PGjclHyU3Nzc3Nzc3Nzc3Nzc3Nzc3Nzc3Nzc3Nzc3Nzc3Nzc3Nzc3Nzc3Nzc3Nzc3Nzc3Nzc3N//AABEIAJQA1QMBIgACEQEDEQH/xAAbAAEAAQUBAAAAAAAAAAAAAAAABAEDBQYHAv/EAD4QAAICAQIEAwUHAQQLAQAAAAECAAMRBCEFEjFBBhNRBxQiYXEyQoGRobHRwRUjY+EXJDNDUlNic4KS8Rb/xAAaAQEAAwEBAQAAAAAAAAAAAAAAAQIDBQQG/8QAJhEAAgEDAwQCAwEAAAAAAAAAAAECAxESMUFRBBMUIQUVIjJSYf/aAAwDAQACEQMRAD8A7jERAEREAREQBERAEREAREQBERAEREAREQBERAEREAREQBERAEREAREQBESkArEs6nU06WprdRatVa9WY4EwGv8AGOg07cmmPvDd8HA/OUnUjD9mXjCU9EbLE0nVeM9XWodNCnIfvF/4ninxrqL2wK6kz6+v5zHy6XJr4tTg3mJodni7ianB06Kc43BO3rLw8XaghyHoKjo5GB+8jy6Q8WobtE1BPFWoNfNy1PkHHJLa+MLelgrR+6OpBWPLpcjxqnBucTTH8V6pcHlqKndcA7/KUHijXGotX5DtjoOo/WT5dLkeLU4N0iaOfFPEW5eRtGo75Pb+k9VeIeJs5Z7dMK9gMKdz8jHl0x4tQ3aJo48S8RDFLnWsgZY8gwJeTxPraw5tCNy7D4MZ+fXpHl0yfFqG5RNV0/ifU2BSdKp5h0GRPCeLLrFdk0qhEOGLN/nJ8qnyV8apwbbE0uvxhq2XzDpafK5sZ5yMfWTNH4w09gT3ms1lm5dj0+ohdVSe4fTVVsbREjaPW0aysWaexXQ9xJAm6aaujFq3plYiJJAiIgCIiADIXFtfVw3Q26u8/DWNgOpPYCTD0mg+0jiSP5PDlI5lYWsQd89hMq08INmlOGcrGB4zxvU8Va33uwVBcBagxwP85jEaso9TubFwOUIvX5fISM5BCYTHL3zkmSaEYElH5Fb4Sx7CcSc3J+zrxgkjzWXsZVNgwv8AzXPLiSURXWy02Up1wEzk+mO882VgH+7z6jI7STSlZrYWoS5GxXtMsjSxHK6lagWa4BxkcznDD85Pdvf0NhVaxSm+GzkypZ/JWguTWhygI6bTwlCg5AAJ6kSMraFkrkdC1Rym2fkJ7auzkWy1SQ+SCW6/OSDSGBA6y4ambk5ix5FwufSVuWsU01LrpmZ7QmmYZRA2/wD6yOFFbv5b8ynoXXMk+TgTz5fyhyZKRHqxYEr1FaVH4suPiB9PpL1Nenrqaq5UY83wEKGXPbB2IlwU5lWq6Z3x8pGQxKCi7T1tXqg/k2b87AM+fTJPSWE8tUZHRyR/s38zBX09ZJChXUsDydDjqPpLq1Vo9nKC6Wb4fqp+UnIjEx/n6hghZmLrtzYAI/ES4lliWFwRzN9oOBv85fNAbDdUU4btvPY5udXITnxys3L9oHsfWRk1uTii3UULMbn8sOA5A6ZHqvQz0Gr5rA1CHm+yQeh9d/2lBVnOdhglfrnpBQ7esnNjD0X9LbqdJbVq9OErYdFBwD8yPQzeOB8Yq4lSAxVdQFHOn8fKaI3PaQxIYqMY6ZGekkcPuOj1aamlSAm/If1nr6bqXCVtjydR0ynG+50jMS1RYLqUsXo6hh+MuzuJ3VzjCIiSBERAKHpOZeNKhVx61rKxiwBgfUYxOnGa74t4GeJ1JfplB1NQIAJxzKe08/U03OFkbUJqE7s5gKMjAG2ZOqoL19M/KXX0xo1Lae4GuwHo4wTLunYBRybA7zkOm7nUzRb5CORT+XpJVGnXy2cnfICj1l0Voy5PU95Rsoygbg7fSVdO3slTueFqJPSe/Ikute/fvPRQjrHaLd0i0UIy8wJPYZMveUFEkV1j6R7sXcry7desrgWzIzLtkjHTbvgw9HKSOu+JOr04CEkkt3Jnp6TnZdhI7bsT3DHrVt0g1Z7Seah1Ax8pTysynbsXUzHtT2nry9pNZOXGR1lDST02lcPZORCprZ6ruVsIh+PPTMCvp9ZPXTjJwOvX5y4+mAXmxvLODZCmkY4oAmAOnX6GUWrldW64OSJP8gnJGVON8HrPK1Y+1+frGBOaIBpw2RtAr5iQSeh/OT7KcAEj6bzwlLGwKq5LZwAcyVB3KuasbZwG7zuF0Z2KLyH8NpkZi+B6e/TaTlvAXJ+FR2mUHSfQ0b9tX1OBVtm7CIialBERAEo3rKyJxLX0cO0j6nUtyovoMkmQ3ZBe2cd9rXipK/Ea6PhyUu+nTl1VgB5ubqFz8h+806nxlrKGIs0/OR9kK+x+uZBusst1F1utLvqbXZ7HPdycn9Z5bTFK11BrPlkkA+v0nkli3do90YyS9Gfr9oNo8oe5FlX/AGvxft+kv3e0mmu1VTh1rVkAseYAj6TUrKfKAbGctvt2izQeY1bIqlG6/SRjC+hP5WN6r9pvBgQvu2tGw25FP9ZLX2kcBZwGOrQEHdqNh+RM5Z7kfeWXHMEG7Dfeexw52Xm5TjOMyXTplVKZ1Or2mcAK/H70rD/AJEuD2oeHQFJ97DZxjyDt67zldPDVGTY2fkYXRIzkIrDtyncyvbplspnVT7U/DqW/CutZQftLQAD+ZzLb+1ngiIxTTa5m+6CirzfrOYf2bWR6H0nptDUgAI5vT8owp8DKfJ0Ye1nhDHP9na4D/wAP5nvTe1bhLs3naLWVqCOUgK+R3PXbE50NHQF6LvKjQ1JgMoyRtiVdOk9iVKpydB4l7VOHJcU0OkvuRQOR2UJzHfOx6dv1kGr2sWDTnzuDqNRn4cWkqd+/eah7jQSA6/aGVBlbtKtFNlu2FX4d846RhT0sTepuzb/9K2sNVZHBVVvv5s269vwll/azxPqOEaYKB96xtprldXNpktuKICv3N/wEyFWipyvNWA/LjkaLU1sT+fI1/tD4/wARurfRmrRFVwwrAcP9eYH9JIq8aeJDphXdbSXU8zOEALLjGDj652wdpiE0a6HWrzAeTYvwCTNPpXYnmGAd94ljsglK/tkmjjPHbqtOur4lcyUMGQAKpG2MkgZPXvn17Tufg1Uv8O8N1LqHv8gA2EZY9s/pOG1JWwG5yCM56YnZvZmaz4YqNVjvl2JDDAU56D5S9FrMy6j9Dax0lYie08QiIgCIiADNW8dWh9LRowMl2LkfIdP3m0maR4280cSTl70jB/EzGvK0Ga0VeaOLeIKruG65zbWxqZvhciQzrKr6FoNgRV3GO86kdPTqagNRUro33WGZiOIeB+A6wlvKsocnbyW5RPGqkXqe3GS0NHGoVOVnIGOnfMuVaipUPI4VSS02Z/ZppCp924lqV26OQf6TEav2e8YoJWjUJagGQeXf6TROL3K3ktjC6G1We0WZQk5xnsczICyuqo2Ag4UbSP8A/keP0eZcKFcnAPK25+gke/QcZQMt2g1DKenKhOfyktLZkKX+EzS1JYvm2EczHdM4OJc1mlSmq66gEWHb7XQTFLZraPt6TUKQMgtSw2/KUs1zeW1dtThjjJ5TnaVxdy2SJlWna9y1jZwMqQesuW6FXVCHw4bIHy7yzo7GsHm+YqD0M9W60qFKk5YHdQTDvcXRJtqo96ro8v4+UknpJSrpxyqyDOcAfSYW3WudQLLA3wKOgIJ+sqOIagsGFTqAMj4T/EjEnJGW4fQbbHutsQ/3jKpHTBO2JLtqrrAChdyPu9ph9FbqtUW8nS3qvyQ7n5bTJ/2Vxe6jzUpYDIGLuYNg98YlXqWuiLxRqNIpyqtaX+Csn4diN5XQ3NZa2ocDYlRhu0VeCfEHFteGflXmOCeXAUfjNp4B7MtQj31cQ4myouy+7gZY+u+ZMsUtSmTuavfhnrtsKkIOXlB6y6mpd6x5NbWlmwAgzibnT7MdNTqg9mqsvTP+8/ibhw/g2i4dQtNFC4XPxFRvM5StoXOecA8N8R1ZS3VUmun59x851jwtQujqehV2Cjp0EjsAqgADEucAZq9bbWzZVskb/j/MtSnaorlasb02bHEoJWdM5oiIgCIiADNb8Z6Fr9HXqqwSaCeYAfdOM/tNknllDAgjIPYyk45xaLQljJM5Ur5AM9mxRjPabDxrwm6u13CuUg7+Qxxj6H+k1S826azy9ZS9DjqLFK//AGcmrSlDVHUpVIz0ZduvZThTKLxK9NgcCWRYvY5/CXVHN6eo+c8rb5PSkiRXxRsDIB9NpcOtDKua0z9BIRCkggnPp6SSiI/2oU5ck4RexK0/Eqa8PZRz5QIQO0seZw2zms9yXPMfuieBWvMV2wZd5FrXICkdMZk9yfJHbhwWXu0LAA6FMDcAoIou0in4dL025eXaXlFYGeQHP6T2BWPsrK5z5LYQ4LXkaOx2s91UMexGZPsTSXMrXaas8my4EsIay3JjPzleYKehUj1hVZckOlDgnJqa6/gQIgG220ui+srhgDn1mGclLOcKGVhnPzkpP7xRkY2HeSq0uSXSiZRdTWCACM4lTqUGSCcnrMabBX8Pf5zxVa1rYIwucZjvPQjtLUyS6r4v6z2dR6nI7THsGNilemMbS0b1VuRtioyWz0PpHcktSO2jIWals7EcsmcBzbxEsvRVJJ+fT+ZidLRq9a2NLUzDpzkYUfjNs4Pw0cPoYEhrnOXYdPoJ6+lpznNSeh5eqqQjDFamQErETsHKEREAREQBERAKYlu2iu5OS5Fdf+FlBH6y7EAw2q8L8H1Jy2jVG9amKftMXd4G0oOdNrdRX35WCsP6H9ZtsoZjKhTlqjSNapHRmhanwjxKos1NlN47fEVMj/2JxSgDzNG5H+GQ3+c6LgRiYS6Gk9DePW1Ecyu0msVia9Dq2x393f8AiY7V3cRqs34XrRgd9O/8Tr2IxM/r4cmnnz4OTafVam7AOg1aDHXyH6/lKNdqAd9Jq89v9Xc/0nWolfro/wBE/YS4OT13a5rV5eHa1VxksdM+P2k8pa5BXSagnuBS38TpErD+Nj/QXyEuDnQo1e3+o6pgW3Apbb9JISjVMNtDqs/9ojf8ZvsYEmPxsFuH8hJ7GgNwfi91oavTED/rIEyGn8Na0hTY1de+T8WZt+Imi6CktfZnLrqr0NY0fhPkLnVa+y7mOQqoFC/vMnpPD/DtLkpQHYksWsPMSfxmUErN49NSjpEwlXqS1Z5VFVQqgAegEqBiVibmQiIgCIiAIiIAiIgCIiAIiIAiIgCIiAIiIAiIgCIiAIiIAiIgCIiAIiIAiIgCIiAIiIAiIgCIiAIiIAiIgCIiAIiIAiIgCIiAIiIAiIgCIiAIiIB//9k=;labelBorderColor=none;clipPath=inset(16.22% 7.75% 16.22% 11.5%);container=0;rounded=0;" parent="ikJFBv8js-pOLj2k_Jm1-110" vertex="1">
          <mxGeometry x="110.5" y="21.220000000000027" width="99" height="57.56" as="geometry" />
        </mxCell>
        <mxCell id="ikJFBv8js-pOLj2k_Jm1-13" value="Hamburger $10.00" style="text;html=1;align=center;verticalAlign=middle;whiteSpace=wrap;rounded=0;fontSize=9;container=0;" parent="ikJFBv8js-pOLj2k_Jm1-110" vertex="1">
          <mxGeometry x="120" y="81.28000000000006" width="80" height="20" as="geometry" />
        </mxCell>
        <mxCell id="ikJFBv8js-pOLj2k_Jm1-57" value="" style="rounded=0;whiteSpace=wrap;html=1;container=0;" parent="ikJFBv8js-pOLj2k_Jm1-110" vertex="1">
          <mxGeometry width="100" height="100" as="geometry" />
        </mxCell>
        <mxCell id="ikJFBv8js-pOLj2k_Jm1-58" value="" style="shape=image;verticalLabelPosition=bottom;labelBackgroundColor=default;verticalAlign=top;aspect=fixed;imageAspect=0;image=data:image/jpeg,/9j/4AAQSkZJRgABAQAAAQABAAD/2wCEAAkGBwgHBgkIBwgKCgkLDRYPDQwMDRsUFRAWIB0iIiAdHx8kKDQsJCYxJx8fLT0tMTU3Ojo6Iys/RD84QzQ5OjcBCgoKDQwNGg8PGjclHyU3Nzc3Nzc3Nzc3Nzc3Nzc3Nzc3Nzc3Nzc3Nzc3Nzc3Nzc3Nzc3Nzc3Nzc3Nzc3Nzc3N//AABEIAJQA1QMBIgACEQEDEQH/xAAbAAEAAQUBAAAAAAAAAAAAAAAABAEDBQYHAv/EAD4QAAICAQIEAwUHAQQLAQAAAAECAAMRBCEFEjFBBhNRBxQiYXEyQoGRobHRwRUjY+EXJDNDUlNic4KS8Rb/xAAaAQEAAwEBAQAAAAAAAAAAAAAAAQIDBQQG/8QAJhEAAgEDAwQCAwEAAAAAAAAAAAECAxESMUFRBBMUIQUVIjJSYf/aAAwDAQACEQMRAD8A7jERAEREAREQBERAEREAREQBERAEREAREQBERAEREAREQBERAEREAREQBESkArEs6nU06WprdRatVa9WY4EwGv8AGOg07cmmPvDd8HA/OUnUjD9mXjCU9EbLE0nVeM9XWodNCnIfvF/4ninxrqL2wK6kz6+v5zHy6XJr4tTg3mJodni7ianB06Kc43BO3rLw8XaghyHoKjo5GB+8jy6Q8WobtE1BPFWoNfNy1PkHHJLa+MLelgrR+6OpBWPLpcjxqnBucTTH8V6pcHlqKndcA7/KUHijXGotX5DtjoOo/WT5dLkeLU4N0iaOfFPEW5eRtGo75Pb+k9VeIeJs5Z7dMK9gMKdz8jHl0x4tQ3aJo48S8RDFLnWsgZY8gwJeTxPraw5tCNy7D4MZ+fXpHl0yfFqG5RNV0/ifU2BSdKp5h0GRPCeLLrFdk0qhEOGLN/nJ8qnyV8apwbbE0uvxhq2XzDpafK5sZ5yMfWTNH4w09gT3ms1lm5dj0+ohdVSe4fTVVsbREjaPW0aysWaexXQ9xJAm6aaujFq3plYiJJAiIgCIiADIXFtfVw3Q26u8/DWNgOpPYCTD0mg+0jiSP5PDlI5lYWsQd89hMq08INmlOGcrGB4zxvU8Va33uwVBcBagxwP85jEaso9TubFwOUIvX5fISM5BCYTHL3zkmSaEYElH5Fb4Sx7CcSc3J+zrxgkjzWXsZVNgwv8AzXPLiSURXWy02Up1wEzk+mO882VgH+7z6jI7STSlZrYWoS5GxXtMsjSxHK6lagWa4BxkcznDD85Pdvf0NhVaxSm+GzkypZ/JWguTWhygI6bTwlCg5AAJ6kSMraFkrkdC1Rym2fkJ7auzkWy1SQ+SCW6/OSDSGBA6y4ambk5ix5FwufSVuWsU01LrpmZ7QmmYZRA2/wD6yOFFbv5b8ynoXXMk+TgTz5fyhyZKRHqxYEr1FaVH4suPiB9PpL1Nenrqaq5UY83wEKGXPbB2IlwU5lWq6Z3x8pGQxKCi7T1tXqg/k2b87AM+fTJPSWE8tUZHRyR/s38zBX09ZJChXUsDydDjqPpLq1Vo9nKC6Wb4fqp+UnIjEx/n6hghZmLrtzYAI/ES4lliWFwRzN9oOBv85fNAbDdUU4btvPY5udXITnxys3L9oHsfWRk1uTii3UULMbn8sOA5A6ZHqvQz0Gr5rA1CHm+yQeh9d/2lBVnOdhglfrnpBQ7esnNjD0X9LbqdJbVq9OErYdFBwD8yPQzeOB8Yq4lSAxVdQFHOn8fKaI3PaQxIYqMY6ZGekkcPuOj1aamlSAm/If1nr6bqXCVtjydR0ynG+50jMS1RYLqUsXo6hh+MuzuJ3VzjCIiSBERAKHpOZeNKhVx61rKxiwBgfUYxOnGa74t4GeJ1JfplB1NQIAJxzKe08/U03OFkbUJqE7s5gKMjAG2ZOqoL19M/KXX0xo1Lae4GuwHo4wTLunYBRybA7zkOm7nUzRb5CORT+XpJVGnXy2cnfICj1l0Voy5PU95Rsoygbg7fSVdO3slTueFqJPSe/Ikute/fvPRQjrHaLd0i0UIy8wJPYZMveUFEkV1j6R7sXcry7desrgWzIzLtkjHTbvgw9HKSOu+JOr04CEkkt3Jnp6TnZdhI7bsT3DHrVt0g1Z7Seah1Ax8pTysynbsXUzHtT2nry9pNZOXGR1lDST02lcPZORCprZ6ruVsIh+PPTMCvp9ZPXTjJwOvX5y4+mAXmxvLODZCmkY4oAmAOnX6GUWrldW64OSJP8gnJGVON8HrPK1Y+1+frGBOaIBpw2RtAr5iQSeh/OT7KcAEj6bzwlLGwKq5LZwAcyVB3KuasbZwG7zuF0Z2KLyH8NpkZi+B6e/TaTlvAXJ+FR2mUHSfQ0b9tX1OBVtm7CIialBERAEo3rKyJxLX0cO0j6nUtyovoMkmQ3ZBe2cd9rXipK/Ea6PhyUu+nTl1VgB5ubqFz8h+806nxlrKGIs0/OR9kK+x+uZBusst1F1utLvqbXZ7HPdycn9Z5bTFK11BrPlkkA+v0nkli3do90YyS9Gfr9oNo8oe5FlX/AGvxft+kv3e0mmu1VTh1rVkAseYAj6TUrKfKAbGctvt2izQeY1bIqlG6/SRjC+hP5WN6r9pvBgQvu2tGw25FP9ZLX2kcBZwGOrQEHdqNh+RM5Z7kfeWXHMEG7Dfeexw52Xm5TjOMyXTplVKZ1Or2mcAK/H70rD/AJEuD2oeHQFJ97DZxjyDt67zldPDVGTY2fkYXRIzkIrDtyncyvbplspnVT7U/DqW/CutZQftLQAD+ZzLb+1ngiIxTTa5m+6CirzfrOYf2bWR6H0nptDUgAI5vT8owp8DKfJ0Ye1nhDHP9na4D/wAP5nvTe1bhLs3naLWVqCOUgK+R3PXbE50NHQF6LvKjQ1JgMoyRtiVdOk9iVKpydB4l7VOHJcU0OkvuRQOR2UJzHfOx6dv1kGr2sWDTnzuDqNRn4cWkqd+/eah7jQSA6/aGVBlbtKtFNlu2FX4d846RhT0sTepuzb/9K2sNVZHBVVvv5s269vwll/azxPqOEaYKB96xtprldXNpktuKICv3N/wEyFWipyvNWA/LjkaLU1sT+fI1/tD4/wARurfRmrRFVwwrAcP9eYH9JIq8aeJDphXdbSXU8zOEALLjGDj652wdpiE0a6HWrzAeTYvwCTNPpXYnmGAd94ljsglK/tkmjjPHbqtOur4lcyUMGQAKpG2MkgZPXvn17Tufg1Uv8O8N1LqHv8gA2EZY9s/pOG1JWwG5yCM56YnZvZmaz4YqNVjvl2JDDAU56D5S9FrMy6j9Dax0lYie08QiIgCIiADNW8dWh9LRowMl2LkfIdP3m0maR4280cSTl70jB/EzGvK0Ga0VeaOLeIKruG65zbWxqZvhciQzrKr6FoNgRV3GO86kdPTqagNRUro33WGZiOIeB+A6wlvKsocnbyW5RPGqkXqe3GS0NHGoVOVnIGOnfMuVaipUPI4VSS02Z/ZppCp924lqV26OQf6TEav2e8YoJWjUJagGQeXf6TROL3K3ktjC6G1We0WZQk5xnsczICyuqo2Ag4UbSP8A/keP0eZcKFcnAPK25+gke/QcZQMt2g1DKenKhOfyktLZkKX+EzS1JYvm2EczHdM4OJc1mlSmq66gEWHb7XQTFLZraPt6TUKQMgtSw2/KUs1zeW1dtThjjJ5TnaVxdy2SJlWna9y1jZwMqQesuW6FXVCHw4bIHy7yzo7GsHm+YqD0M9W60qFKk5YHdQTDvcXRJtqo96ro8v4+UknpJSrpxyqyDOcAfSYW3WudQLLA3wKOgIJ+sqOIagsGFTqAMj4T/EjEnJGW4fQbbHutsQ/3jKpHTBO2JLtqrrAChdyPu9ph9FbqtUW8nS3qvyQ7n5bTJ/2Vxe6jzUpYDIGLuYNg98YlXqWuiLxRqNIpyqtaX+Csn4diN5XQ3NZa2ocDYlRhu0VeCfEHFteGflXmOCeXAUfjNp4B7MtQj31cQ4myouy+7gZY+u+ZMsUtSmTuavfhnrtsKkIOXlB6y6mpd6x5NbWlmwAgzibnT7MdNTqg9mqsvTP+8/ibhw/g2i4dQtNFC4XPxFRvM5StoXOecA8N8R1ZS3VUmun59x851jwtQujqehV2Cjp0EjsAqgADEucAZq9bbWzZVskb/j/MtSnaorlasb02bHEoJWdM5oiIgCIiADNb8Z6Fr9HXqqwSaCeYAfdOM/tNknllDAgjIPYyk45xaLQljJM5Ur5AM9mxRjPabDxrwm6u13CuUg7+Qxxj6H+k1S826azy9ZS9DjqLFK//AGcmrSlDVHUpVIz0ZduvZThTKLxK9NgcCWRYvY5/CXVHN6eo+c8rb5PSkiRXxRsDIB9NpcOtDKua0z9BIRCkggnPp6SSiI/2oU5ck4RexK0/Eqa8PZRz5QIQO0seZw2zms9yXPMfuieBWvMV2wZd5FrXICkdMZk9yfJHbhwWXu0LAA6FMDcAoIou0in4dL025eXaXlFYGeQHP6T2BWPsrK5z5LYQ4LXkaOx2s91UMexGZPsTSXMrXaas8my4EsIay3JjPzleYKehUj1hVZckOlDgnJqa6/gQIgG220ui+srhgDn1mGclLOcKGVhnPzkpP7xRkY2HeSq0uSXSiZRdTWCACM4lTqUGSCcnrMabBX8Pf5zxVa1rYIwucZjvPQjtLUyS6r4v6z2dR6nI7THsGNilemMbS0b1VuRtioyWz0PpHcktSO2jIWals7EcsmcBzbxEsvRVJJ+fT+ZidLRq9a2NLUzDpzkYUfjNs4Pw0cPoYEhrnOXYdPoJ6+lpznNSeh5eqqQjDFamQErETsHKEREAREQBERAKYlu2iu5OS5Fdf+FlBH6y7EAw2q8L8H1Jy2jVG9amKftMXd4G0oOdNrdRX35WCsP6H9ZtsoZjKhTlqjSNapHRmhanwjxKos1NlN47fEVMj/2JxSgDzNG5H+GQ3+c6LgRiYS6Gk9DePW1Ecyu0msVia9Dq2x393f8AiY7V3cRqs34XrRgd9O/8Tr2IxM/r4cmnnz4OTafVam7AOg1aDHXyH6/lKNdqAd9Jq89v9Xc/0nWolfro/wBE/YS4OT13a5rV5eHa1VxksdM+P2k8pa5BXSagnuBS38TpErD+Nj/QXyEuDnQo1e3+o6pgW3Apbb9JISjVMNtDqs/9ojf8ZvsYEmPxsFuH8hJ7GgNwfi91oavTED/rIEyGn8Na0hTY1de+T8WZt+Imi6CktfZnLrqr0NY0fhPkLnVa+y7mOQqoFC/vMnpPD/DtLkpQHYksWsPMSfxmUErN49NSjpEwlXqS1Z5VFVQqgAegEqBiVibmQiIgCIiAIiIAiIgCIiAIiIAiIgCIiAIiIAiIgCIiAIiIAiIgCIiAIiIAiIgCIiAIiIAiIgCIiAIiIAiIgCIiAIiIAiIgCIiAIiIAiIgCIiAIiIB//9k=;labelBorderColor=none;clipPath=inset(16.22% 7.75% 16.22% 11.5%);container=0;rounded=0;" parent="ikJFBv8js-pOLj2k_Jm1-110" vertex="1">
          <mxGeometry x="0.5" y="21.22" width="99" height="57.56" as="geometry" />
        </mxCell>
        <mxCell id="ikJFBv8js-pOLj2k_Jm1-59" value="Hamburger $10.00" style="text;html=1;align=center;verticalAlign=middle;whiteSpace=wrap;rounded=0;fontSize=9;container=0;" parent="ikJFBv8js-pOLj2k_Jm1-110" vertex="1">
          <mxGeometry x="10" y="81.28000000000003" width="80" height="20" as="geometry" />
        </mxCell>
        <mxCell id="ikJFBv8js-pOLj2k_Jm1-120" value="" style="html=1;verticalLabelPosition=bottom;labelBackgroundColor=#ffffff;verticalAlign=top;shadow=0;dashed=0;strokeWidth=2;shape=mxgraph.ios7.misc.scroll_(vertical);fillColor=#C7C7C7;rounded=0;" parent="ikJFBv8js-pOLj2k_Jm1-110" vertex="1">
          <mxGeometry x="330" y="-10" width="6" height="340" as="geometry" />
        </mxCell>
        <mxCell id="ikJFBv8js-pOLj2k_Jm1-111" value="" style="group;rounded=0;" parent="ikJFBv8js-pOLj2k_Jm1-110" vertex="1" connectable="0">
          <mxGeometry x="290" y="285.64" width="50" height="55" as="geometry" />
        </mxCell>
        <mxCell id="ikJFBv8js-pOLj2k_Jm1-117" value="" style="group;rounded=0;" parent="ikJFBv8js-pOLj2k_Jm1-111" vertex="1" connectable="0">
          <mxGeometry width="44.11764705882353" height="47.35294117647059" as="geometry" />
        </mxCell>
        <mxCell id="ikJFBv8js-pOLj2k_Jm1-112" value="" style="ellipse;whiteSpace=wrap;html=1;aspect=fixed;strokeColor=#B20000;fillColor=#e51400;fontColor=#ffffff;container=0;rounded=0;" parent="ikJFBv8js-pOLj2k_Jm1-117" vertex="1">
          <mxGeometry y="3.235294117647059" width="44.11764705882353" height="44.11764705882353" as="geometry" />
        </mxCell>
        <mxCell id="ikJFBv8js-pOLj2k_Jm1-113" value="" style="shape=image;html=1;verticalAlign=top;verticalLabelPosition=bottom;labelBackgroundColor=#ffffff;imageAspect=0;image=https://cdn0.iconfinder.com/data/icons/phosphor-regular-vol-4/256/shopping-cart-128.png;flipH=1;container=0;rounded=0;" parent="ikJFBv8js-pOLj2k_Jm1-117" vertex="1">
          <mxGeometry x="3.307142857142857" y="9.707176470588236" width="37.5" height="32.35294117647059" as="geometry" />
        </mxCell>
        <mxCell id="ikJFBv8js-pOLj2k_Jm1-114" value="5" style="ellipse;whiteSpace=wrap;html=1;aspect=fixed;fillColor=#e51400;strokeColor=#B20000;fontColor=#ffffff;container=0;rounded=0;" parent="ikJFBv8js-pOLj2k_Jm1-117" vertex="1">
          <mxGeometry x="31.25" width="11.029411764705882" height="11.029411764705882" as="geometry" />
        </mxCell>
        <mxCell id="ikJFBv8js-pOLj2k_Jm1-223" value="" style="group;rounded=0;" parent="ikJFBv8js-pOLj2k_Jm1-110" vertex="1" connectable="0">
          <mxGeometry x="220" width="100" height="101.28000000000003" as="geometry" />
        </mxCell>
        <mxCell id="ikJFBv8js-pOLj2k_Jm1-52" value="" style="rounded=0;whiteSpace=wrap;html=1;container=0;" parent="ikJFBv8js-pOLj2k_Jm1-223" vertex="1">
          <mxGeometry width="100" height="100" as="geometry" />
        </mxCell>
        <mxCell id="ikJFBv8js-pOLj2k_Jm1-53" value="" style="shape=image;verticalLabelPosition=bottom;labelBackgroundColor=default;verticalAlign=top;aspect=fixed;imageAspect=0;image=data:image/jpeg,/9j/4AAQSkZJRgABAQAAAQABAAD/2wCEAAkGBwgHBgkIBwgKCgkLDRYPDQwMDRsUFRAWIB0iIiAdHx8kKDQsJCYxJx8fLT0tMTU3Ojo6Iys/RD84QzQ5OjcBCgoKDQwNGg8PGjclHyU3Nzc3Nzc3Nzc3Nzc3Nzc3Nzc3Nzc3Nzc3Nzc3Nzc3Nzc3Nzc3Nzc3Nzc3Nzc3Nzc3N//AABEIAJQA1QMBIgACEQEDEQH/xAAbAAEAAQUBAAAAAAAAAAAAAAAABAEDBQYHAv/EAD4QAAICAQIEAwUHAQQLAQAAAAECAAMRBCEFEjFBBhNRBxQiYXEyQoGRobHRwRUjY+EXJDNDUlNic4KS8Rb/xAAaAQEAAwEBAQAAAAAAAAAAAAAAAQIDBQQG/8QAJhEAAgEDAwQCAwEAAAAAAAAAAAECAxESMUFRBBMUIQUVIjJSYf/aAAwDAQACEQMRAD8A7jERAEREAREQBERAEREAREQBERAEREAREQBERAEREAREQBERAEREAREQBESkArEs6nU06WprdRatVa9WY4EwGv8AGOg07cmmPvDd8HA/OUnUjD9mXjCU9EbLE0nVeM9XWodNCnIfvF/4ninxrqL2wK6kz6+v5zHy6XJr4tTg3mJodni7ianB06Kc43BO3rLw8XaghyHoKjo5GB+8jy6Q8WobtE1BPFWoNfNy1PkHHJLa+MLelgrR+6OpBWPLpcjxqnBucTTH8V6pcHlqKndcA7/KUHijXGotX5DtjoOo/WT5dLkeLU4N0iaOfFPEW5eRtGo75Pb+k9VeIeJs5Z7dMK9gMKdz8jHl0x4tQ3aJo48S8RDFLnWsgZY8gwJeTxPraw5tCNy7D4MZ+fXpHl0yfFqG5RNV0/ifU2BSdKp5h0GRPCeLLrFdk0qhEOGLN/nJ8qnyV8apwbbE0uvxhq2XzDpafK5sZ5yMfWTNH4w09gT3ms1lm5dj0+ohdVSe4fTVVsbREjaPW0aysWaexXQ9xJAm6aaujFq3plYiJJAiIgCIiADIXFtfVw3Q26u8/DWNgOpPYCTD0mg+0jiSP5PDlI5lYWsQd89hMq08INmlOGcrGB4zxvU8Va33uwVBcBagxwP85jEaso9TubFwOUIvX5fISM5BCYTHL3zkmSaEYElH5Fb4Sx7CcSc3J+zrxgkjzWXsZVNgwv8AzXPLiSURXWy02Up1wEzk+mO882VgH+7z6jI7STSlZrYWoS5GxXtMsjSxHK6lagWa4BxkcznDD85Pdvf0NhVaxSm+GzkypZ/JWguTWhygI6bTwlCg5AAJ6kSMraFkrkdC1Rym2fkJ7auzkWy1SQ+SCW6/OSDSGBA6y4ambk5ix5FwufSVuWsU01LrpmZ7QmmYZRA2/wD6yOFFbv5b8ynoXXMk+TgTz5fyhyZKRHqxYEr1FaVH4suPiB9PpL1Nenrqaq5UY83wEKGXPbB2IlwU5lWq6Z3x8pGQxKCi7T1tXqg/k2b87AM+fTJPSWE8tUZHRyR/s38zBX09ZJChXUsDydDjqPpLq1Vo9nKC6Wb4fqp+UnIjEx/n6hghZmLrtzYAI/ES4lliWFwRzN9oOBv85fNAbDdUU4btvPY5udXITnxys3L9oHsfWRk1uTii3UULMbn8sOA5A6ZHqvQz0Gr5rA1CHm+yQeh9d/2lBVnOdhglfrnpBQ7esnNjD0X9LbqdJbVq9OErYdFBwD8yPQzeOB8Yq4lSAxVdQFHOn8fKaI3PaQxIYqMY6ZGekkcPuOj1aamlSAm/If1nr6bqXCVtjydR0ynG+50jMS1RYLqUsXo6hh+MuzuJ3VzjCIiSBERAKHpOZeNKhVx61rKxiwBgfUYxOnGa74t4GeJ1JfplB1NQIAJxzKe08/U03OFkbUJqE7s5gKMjAG2ZOqoL19M/KXX0xo1Lae4GuwHo4wTLunYBRybA7zkOm7nUzRb5CORT+XpJVGnXy2cnfICj1l0Voy5PU95Rsoygbg7fSVdO3slTueFqJPSe/Ikute/fvPRQjrHaLd0i0UIy8wJPYZMveUFEkV1j6R7sXcry7desrgWzIzLtkjHTbvgw9HKSOu+JOr04CEkkt3Jnp6TnZdhI7bsT3DHrVt0g1Z7Seah1Ax8pTysynbsXUzHtT2nry9pNZOXGR1lDST02lcPZORCprZ6ruVsIh+PPTMCvp9ZPXTjJwOvX5y4+mAXmxvLODZCmkY4oAmAOnX6GUWrldW64OSJP8gnJGVON8HrPK1Y+1+frGBOaIBpw2RtAr5iQSeh/OT7KcAEj6bzwlLGwKq5LZwAcyVB3KuasbZwG7zuF0Z2KLyH8NpkZi+B6e/TaTlvAXJ+FR2mUHSfQ0b9tX1OBVtm7CIialBERAEo3rKyJxLX0cO0j6nUtyovoMkmQ3ZBe2cd9rXipK/Ea6PhyUu+nTl1VgB5ubqFz8h+806nxlrKGIs0/OR9kK+x+uZBusst1F1utLvqbXZ7HPdycn9Z5bTFK11BrPlkkA+v0nkli3do90YyS9Gfr9oNo8oe5FlX/AGvxft+kv3e0mmu1VTh1rVkAseYAj6TUrKfKAbGctvt2izQeY1bIqlG6/SRjC+hP5WN6r9pvBgQvu2tGw25FP9ZLX2kcBZwGOrQEHdqNh+RM5Z7kfeWXHMEG7Dfeexw52Xm5TjOMyXTplVKZ1Or2mcAK/H70rD/AJEuD2oeHQFJ97DZxjyDt67zldPDVGTY2fkYXRIzkIrDtyncyvbplspnVT7U/DqW/CutZQftLQAD+ZzLb+1ngiIxTTa5m+6CirzfrOYf2bWR6H0nptDUgAI5vT8owp8DKfJ0Ye1nhDHP9na4D/wAP5nvTe1bhLs3naLWVqCOUgK+R3PXbE50NHQF6LvKjQ1JgMoyRtiVdOk9iVKpydB4l7VOHJcU0OkvuRQOR2UJzHfOx6dv1kGr2sWDTnzuDqNRn4cWkqd+/eah7jQSA6/aGVBlbtKtFNlu2FX4d846RhT0sTepuzb/9K2sNVZHBVVvv5s269vwll/azxPqOEaYKB96xtprldXNpktuKICv3N/wEyFWipyvNWA/LjkaLU1sT+fI1/tD4/wARurfRmrRFVwwrAcP9eYH9JIq8aeJDphXdbSXU8zOEALLjGDj652wdpiE0a6HWrzAeTYvwCTNPpXYnmGAd94ljsglK/tkmjjPHbqtOur4lcyUMGQAKpG2MkgZPXvn17Tufg1Uv8O8N1LqHv8gA2EZY9s/pOG1JWwG5yCM56YnZvZmaz4YqNVjvl2JDDAU56D5S9FrMy6j9Dax0lYie08QiIgCIiADNW8dWh9LRowMl2LkfIdP3m0maR4280cSTl70jB/EzGvK0Ga0VeaOLeIKruG65zbWxqZvhciQzrKr6FoNgRV3GO86kdPTqagNRUro33WGZiOIeB+A6wlvKsocnbyW5RPGqkXqe3GS0NHGoVOVnIGOnfMuVaipUPI4VSS02Z/ZppCp924lqV26OQf6TEav2e8YoJWjUJagGQeXf6TROL3K3ktjC6G1We0WZQk5xnsczICyuqo2Ag4UbSP8A/keP0eZcKFcnAPK25+gke/QcZQMt2g1DKenKhOfyktLZkKX+EzS1JYvm2EczHdM4OJc1mlSmq66gEWHb7XQTFLZraPt6TUKQMgtSw2/KUs1zeW1dtThjjJ5TnaVxdy2SJlWna9y1jZwMqQesuW6FXVCHw4bIHy7yzo7GsHm+YqD0M9W60qFKk5YHdQTDvcXRJtqo96ro8v4+UknpJSrpxyqyDOcAfSYW3WudQLLA3wKOgIJ+sqOIagsGFTqAMj4T/EjEnJGW4fQbbHutsQ/3jKpHTBO2JLtqrrAChdyPu9ph9FbqtUW8nS3qvyQ7n5bTJ/2Vxe6jzUpYDIGLuYNg98YlXqWuiLxRqNIpyqtaX+Csn4diN5XQ3NZa2ocDYlRhu0VeCfEHFteGflXmOCeXAUfjNp4B7MtQj31cQ4myouy+7gZY+u+ZMsUtSmTuavfhnrtsKkIOXlB6y6mpd6x5NbWlmwAgzibnT7MdNTqg9mqsvTP+8/ibhw/g2i4dQtNFC4XPxFRvM5StoXOecA8N8R1ZS3VUmun59x851jwtQujqehV2Cjp0EjsAqgADEucAZq9bbWzZVskb/j/MtSnaorlasb02bHEoJWdM5oiIgCIiADNb8Z6Fr9HXqqwSaCeYAfdOM/tNknllDAgjIPYyk45xaLQljJM5Ur5AM9mxRjPabDxrwm6u13CuUg7+Qxxj6H+k1S826azy9ZS9DjqLFK//AGcmrSlDVHUpVIz0ZduvZThTKLxK9NgcCWRYvY5/CXVHN6eo+c8rb5PSkiRXxRsDIB9NpcOtDKua0z9BIRCkggnPp6SSiI/2oU5ck4RexK0/Eqa8PZRz5QIQO0seZw2zms9yXPMfuieBWvMV2wZd5FrXICkdMZk9yfJHbhwWXu0LAA6FMDcAoIou0in4dL025eXaXlFYGeQHP6T2BWPsrK5z5LYQ4LXkaOx2s91UMexGZPsTSXMrXaas8my4EsIay3JjPzleYKehUj1hVZckOlDgnJqa6/gQIgG220ui+srhgDn1mGclLOcKGVhnPzkpP7xRkY2HeSq0uSXSiZRdTWCACM4lTqUGSCcnrMabBX8Pf5zxVa1rYIwucZjvPQjtLUyS6r4v6z2dR6nI7THsGNilemMbS0b1VuRtioyWz0PpHcktSO2jIWals7EcsmcBzbxEsvRVJJ+fT+ZidLRq9a2NLUzDpzkYUfjNs4Pw0cPoYEhrnOXYdPoJ6+lpznNSeh5eqqQjDFamQErETsHKEREAREQBERAKYlu2iu5OS5Fdf+FlBH6y7EAw2q8L8H1Jy2jVG9amKftMXd4G0oOdNrdRX35WCsP6H9ZtsoZjKhTlqjSNapHRmhanwjxKos1NlN47fEVMj/2JxSgDzNG5H+GQ3+c6LgRiYS6Gk9DePW1Ecyu0msVia9Dq2x393f8AiY7V3cRqs34XrRgd9O/8Tr2IxM/r4cmnnz4OTafVam7AOg1aDHXyH6/lKNdqAd9Jq89v9Xc/0nWolfro/wBE/YS4OT13a5rV5eHa1VxksdM+P2k8pa5BXSagnuBS38TpErD+Nj/QXyEuDnQo1e3+o6pgW3Apbb9JISjVMNtDqs/9ojf8ZvsYEmPxsFuH8hJ7GgNwfi91oavTED/rIEyGn8Na0hTY1de+T8WZt+Imi6CktfZnLrqr0NY0fhPkLnVa+y7mOQqoFC/vMnpPD/DtLkpQHYksWsPMSfxmUErN49NSjpEwlXqS1Z5VFVQqgAegEqBiVibmQiIgCIiAIiIAiIgCIiAIiIAiIgCIiAIiIAiIgCIiAIiIAiIgCIiAIiIAiIgCIiAIiIAiIgCIiAIiIAiIgCIiAIiIAiIgCIiAIiIAiIgCIiAIiIB//9k=;labelBorderColor=none;clipPath=inset(16.22% 7.75% 16.22% 11.5%);container=0;rounded=0;" parent="ikJFBv8js-pOLj2k_Jm1-223" vertex="1">
          <mxGeometry x="0.5" y="21.22" width="99" height="57.56" as="geometry" />
        </mxCell>
        <mxCell id="ikJFBv8js-pOLj2k_Jm1-54" value="Hamburger $10.00" style="text;html=1;align=center;verticalAlign=middle;whiteSpace=wrap;rounded=0;fontSize=9;container=0;" parent="ikJFBv8js-pOLj2k_Jm1-223" vertex="1">
          <mxGeometry x="10" y="81.28000000000003" width="80" height="20" as="geometry" />
        </mxCell>
        <mxCell id="ikJFBv8js-pOLj2k_Jm1-119" value="" style="html=1;verticalLabelPosition=bottom;labelBackgroundColor=#ffffff;verticalAlign=top;shadow=0;dashed=0;strokeWidth=2;shape=mxgraph.ios7.misc.scroll_(vertical);fillColor=#a0a0a0;aspect=fixed;rounded=0;" parent="1" vertex="1">
          <mxGeometry x="371" y="79" width="4" height="53.29" as="geometry" />
        </mxCell>
        <mxCell id="ikJFBv8js-pOLj2k_Jm1-240" style="edgeStyle=orthogonalEdgeStyle;rounded=0;orthogonalLoop=1;jettySize=auto;html=1;exitX=0;exitY=0;exitDx=11.916666666666664;exitDy=6.166666666666671;exitPerimeter=0;strokeWidth=3;" parent="1" target="ikJFBv8js-pOLj2k_Jm1-217" edge="1">
          <mxGeometry relative="1" as="geometry">
            <mxPoint x="352.41666666666674" y="201.44666666666672" as="sourcePoint" />
          </mxGeometry>
        </mxCell>
        <mxCell id="ikJFBv8js-pOLj2k_Jm1-241" value="" style="whiteSpace=wrap;html=1;aspect=fixed;rounded=0;" parent="1" vertex="1">
          <mxGeometry x="20" y="480.005" width="360" height="360" as="geometry" />
        </mxCell>
        <mxCell id="ikJFBv8js-pOLj2k_Jm1-336" value="" style="rounded=0;whiteSpace=wrap;html=1;fillColor=none;" parent="1" vertex="1">
          <mxGeometry x="36.5" y="490" width="327" height="180" as="geometry" />
        </mxCell>
        <mxCell id="ikJFBv8js-pOLj2k_Jm1-242" style="edgeStyle=orthogonalEdgeStyle;rounded=0;orthogonalLoop=1;jettySize=auto;html=1;exitX=0.5;exitY=1;exitDx=0;exitDy=0;entryX=0.922;entryY=0.005;entryDx=0;entryDy=0;entryPerimeter=0;strokeWidth=3;" parent="1" source="ikJFBv8js-pOLj2k_Jm1-112" target="ikJFBv8js-pOLj2k_Jm1-241" edge="1">
          <mxGeometry relative="1" as="geometry" />
        </mxCell>
        <mxCell id="ikJFBv8js-pOLj2k_Jm1-354" style="edgeStyle=orthogonalEdgeStyle;rounded=0;orthogonalLoop=1;jettySize=auto;html=1;exitX=0.5;exitY=1;exitDx=0;exitDy=0;strokeWidth=3;" parent="1" source="ikJFBv8js-pOLj2k_Jm1-331" target="ikJFBv8js-pOLj2k_Jm1-353" edge="1">
          <mxGeometry relative="1" as="geometry">
            <Array as="points">
              <mxPoint x="215" y="854" />
              <mxPoint x="590" y="854" />
            </Array>
          </mxGeometry>
        </mxCell>
        <mxCell id="ikJFBv8js-pOLj2k_Jm1-331" value="Change" style="rounded=0;whiteSpace=wrap;html=1;" parent="1" vertex="1">
          <mxGeometry x="186" y="810" width="59" height="24" as="geometry" />
        </mxCell>
        <mxCell id="ikJFBv8js-pOLj2k_Jm1-352" style="edgeStyle=orthogonalEdgeStyle;rounded=0;orthogonalLoop=1;jettySize=auto;html=1;exitX=0.5;exitY=1;exitDx=0;exitDy=0;strokeWidth=3;" parent="1" source="ikJFBv8js-pOLj2k_Jm1-332" target="ikJFBv8js-pOLj2k_Jm1-351" edge="1">
          <mxGeometry relative="1" as="geometry">
            <Array as="points">
              <mxPoint x="63" y="854" />
              <mxPoint x="200" y="854" />
            </Array>
          </mxGeometry>
        </mxCell>
        <mxCell id="ikJFBv8js-pOLj2k_Jm1-332" value="Change" style="rounded=0;whiteSpace=wrap;html=1;" parent="1" vertex="1">
          <mxGeometry x="33" y="810" width="60" height="24" as="geometry" />
        </mxCell>
        <mxCell id="ikJFBv8js-pOLj2k_Jm1-338" value="" style="group;rounded=0;" parent="1" vertex="1" connectable="0">
          <mxGeometry x="55" y="505.5" width="308.5" height="164.5" as="geometry" />
        </mxCell>
        <mxCell id="ikJFBv8js-pOLj2k_Jm1-293" value="" style="group;rounded=0;" parent="ikJFBv8js-pOLj2k_Jm1-338" vertex="1" connectable="0">
          <mxGeometry width="70" height="70" as="geometry" />
        </mxCell>
        <mxCell id="ikJFBv8js-pOLj2k_Jm1-294" value="" style="rounded=0;whiteSpace=wrap;html=1;container=0;" parent="ikJFBv8js-pOLj2k_Jm1-293" vertex="1">
          <mxGeometry width="70" height="70" as="geometry" />
        </mxCell>
        <mxCell id="ikJFBv8js-pOLj2k_Jm1-295" value="" style="shape=image;verticalLabelPosition=bottom;labelBackgroundColor=default;verticalAlign=top;aspect=fixed;imageAspect=0;image=data:image/jpeg,/9j/4AAQSkZJRgABAQAAAQABAAD/2wCEAAkGBwgHBgkIBwgKCgkLDRYPDQwMDRsUFRAWIB0iIiAdHx8kKDQsJCYxJx8fLT0tMTU3Ojo6Iys/RD84QzQ5OjcBCgoKDQwNGg8PGjclHyU3Nzc3Nzc3Nzc3Nzc3Nzc3Nzc3Nzc3Nzc3Nzc3Nzc3Nzc3Nzc3Nzc3Nzc3Nzc3Nzc3N//AABEIAJQA1QMBIgACEQEDEQH/xAAbAAEAAQUBAAAAAAAAAAAAAAAABAEDBQYHAv/EAD4QAAICAQIEAwUHAQQLAQAAAAECAAMRBCEFEjFBBhNRBxQiYXEyQoGRobHRwRUjY+EXJDNDUlNic4KS8Rb/xAAaAQEAAwEBAQAAAAAAAAAAAAAAAQIDBQQG/8QAJhEAAgEDAwQCAwEAAAAAAAAAAAECAxESMUFRBBMUIQUVIjJSYf/aAAwDAQACEQMRAD8A7jERAEREAREQBERAEREAREQBERAEREAREQBERAEREAREQBERAEREAREQBESkArEs6nU06WprdRatVa9WY4EwGv8AGOg07cmmPvDd8HA/OUnUjD9mXjCU9EbLE0nVeM9XWodNCnIfvF/4ninxrqL2wK6kz6+v5zHy6XJr4tTg3mJodni7ianB06Kc43BO3rLw8XaghyHoKjo5GB+8jy6Q8WobtE1BPFWoNfNy1PkHHJLa+MLelgrR+6OpBWPLpcjxqnBucTTH8V6pcHlqKndcA7/KUHijXGotX5DtjoOo/WT5dLkeLU4N0iaOfFPEW5eRtGo75Pb+k9VeIeJs5Z7dMK9gMKdz8jHl0x4tQ3aJo48S8RDFLnWsgZY8gwJeTxPraw5tCNy7D4MZ+fXpHl0yfFqG5RNV0/ifU2BSdKp5h0GRPCeLLrFdk0qhEOGLN/nJ8qnyV8apwbbE0uvxhq2XzDpafK5sZ5yMfWTNH4w09gT3ms1lm5dj0+ohdVSe4fTVVsbREjaPW0aysWaexXQ9xJAm6aaujFq3plYiJJAiIgCIiADIXFtfVw3Q26u8/DWNgOpPYCTD0mg+0jiSP5PDlI5lYWsQd89hMq08INmlOGcrGB4zxvU8Va33uwVBcBagxwP85jEaso9TubFwOUIvX5fISM5BCYTHL3zkmSaEYElH5Fb4Sx7CcSc3J+zrxgkjzWXsZVNgwv8AzXPLiSURXWy02Up1wEzk+mO882VgH+7z6jI7STSlZrYWoS5GxXtMsjSxHK6lagWa4BxkcznDD85Pdvf0NhVaxSm+GzkypZ/JWguTWhygI6bTwlCg5AAJ6kSMraFkrkdC1Rym2fkJ7auzkWy1SQ+SCW6/OSDSGBA6y4ambk5ix5FwufSVuWsU01LrpmZ7QmmYZRA2/wD6yOFFbv5b8ynoXXMk+TgTz5fyhyZKRHqxYEr1FaVH4suPiB9PpL1Nenrqaq5UY83wEKGXPbB2IlwU5lWq6Z3x8pGQxKCi7T1tXqg/k2b87AM+fTJPSWE8tUZHRyR/s38zBX09ZJChXUsDydDjqPpLq1Vo9nKC6Wb4fqp+UnIjEx/n6hghZmLrtzYAI/ES4lliWFwRzN9oOBv85fNAbDdUU4btvPY5udXITnxys3L9oHsfWRk1uTii3UULMbn8sOA5A6ZHqvQz0Gr5rA1CHm+yQeh9d/2lBVnOdhglfrnpBQ7esnNjD0X9LbqdJbVq9OErYdFBwD8yPQzeOB8Yq4lSAxVdQFHOn8fKaI3PaQxIYqMY6ZGekkcPuOj1aamlSAm/If1nr6bqXCVtjydR0ynG+50jMS1RYLqUsXo6hh+MuzuJ3VzjCIiSBERAKHpOZeNKhVx61rKxiwBgfUYxOnGa74t4GeJ1JfplB1NQIAJxzKe08/U03OFkbUJqE7s5gKMjAG2ZOqoL19M/KXX0xo1Lae4GuwHo4wTLunYBRybA7zkOm7nUzRb5CORT+XpJVGnXy2cnfICj1l0Voy5PU95Rsoygbg7fSVdO3slTueFqJPSe/Ikute/fvPRQjrHaLd0i0UIy8wJPYZMveUFEkV1j6R7sXcry7desrgWzIzLtkjHTbvgw9HKSOu+JOr04CEkkt3Jnp6TnZdhI7bsT3DHrVt0g1Z7Seah1Ax8pTysynbsXUzHtT2nry9pNZOXGR1lDST02lcPZORCprZ6ruVsIh+PPTMCvp9ZPXTjJwOvX5y4+mAXmxvLODZCmkY4oAmAOnX6GUWrldW64OSJP8gnJGVON8HrPK1Y+1+frGBOaIBpw2RtAr5iQSeh/OT7KcAEj6bzwlLGwKq5LZwAcyVB3KuasbZwG7zuF0Z2KLyH8NpkZi+B6e/TaTlvAXJ+FR2mUHSfQ0b9tX1OBVtm7CIialBERAEo3rKyJxLX0cO0j6nUtyovoMkmQ3ZBe2cd9rXipK/Ea6PhyUu+nTl1VgB5ubqFz8h+806nxlrKGIs0/OR9kK+x+uZBusst1F1utLvqbXZ7HPdycn9Z5bTFK11BrPlkkA+v0nkli3do90YyS9Gfr9oNo8oe5FlX/AGvxft+kv3e0mmu1VTh1rVkAseYAj6TUrKfKAbGctvt2izQeY1bIqlG6/SRjC+hP5WN6r9pvBgQvu2tGw25FP9ZLX2kcBZwGOrQEHdqNh+RM5Z7kfeWXHMEG7Dfeexw52Xm5TjOMyXTplVKZ1Or2mcAK/H70rD/AJEuD2oeHQFJ97DZxjyDt67zldPDVGTY2fkYXRIzkIrDtyncyvbplspnVT7U/DqW/CutZQftLQAD+ZzLb+1ngiIxTTa5m+6CirzfrOYf2bWR6H0nptDUgAI5vT8owp8DKfJ0Ye1nhDHP9na4D/wAP5nvTe1bhLs3naLWVqCOUgK+R3PXbE50NHQF6LvKjQ1JgMoyRtiVdOk9iVKpydB4l7VOHJcU0OkvuRQOR2UJzHfOx6dv1kGr2sWDTnzuDqNRn4cWkqd+/eah7jQSA6/aGVBlbtKtFNlu2FX4d846RhT0sTepuzb/9K2sNVZHBVVvv5s269vwll/azxPqOEaYKB96xtprldXNpktuKICv3N/wEyFWipyvNWA/LjkaLU1sT+fI1/tD4/wARurfRmrRFVwwrAcP9eYH9JIq8aeJDphXdbSXU8zOEALLjGDj652wdpiE0a6HWrzAeTYvwCTNPpXYnmGAd94ljsglK/tkmjjPHbqtOur4lcyUMGQAKpG2MkgZPXvn17Tufg1Uv8O8N1LqHv8gA2EZY9s/pOG1JWwG5yCM56YnZvZmaz4YqNVjvl2JDDAU56D5S9FrMy6j9Dax0lYie08QiIgCIiADNW8dWh9LRowMl2LkfIdP3m0maR4280cSTl70jB/EzGvK0Ga0VeaOLeIKruG65zbWxqZvhciQzrKr6FoNgRV3GO86kdPTqagNRUro33WGZiOIeB+A6wlvKsocnbyW5RPGqkXqe3GS0NHGoVOVnIGOnfMuVaipUPI4VSS02Z/ZppCp924lqV26OQf6TEav2e8YoJWjUJagGQeXf6TROL3K3ktjC6G1We0WZQk5xnsczICyuqo2Ag4UbSP8A/keP0eZcKFcnAPK25+gke/QcZQMt2g1DKenKhOfyktLZkKX+EzS1JYvm2EczHdM4OJc1mlSmq66gEWHb7XQTFLZraPt6TUKQMgtSw2/KUs1zeW1dtThjjJ5TnaVxdy2SJlWna9y1jZwMqQesuW6FXVCHw4bIHy7yzo7GsHm+YqD0M9W60qFKk5YHdQTDvcXRJtqo96ro8v4+UknpJSrpxyqyDOcAfSYW3WudQLLA3wKOgIJ+sqOIagsGFTqAMj4T/EjEnJGW4fQbbHutsQ/3jKpHTBO2JLtqrrAChdyPu9ph9FbqtUW8nS3qvyQ7n5bTJ/2Vxe6jzUpYDIGLuYNg98YlXqWuiLxRqNIpyqtaX+Csn4diN5XQ3NZa2ocDYlRhu0VeCfEHFteGflXmOCeXAUfjNp4B7MtQj31cQ4myouy+7gZY+u+ZMsUtSmTuavfhnrtsKkIOXlB6y6mpd6x5NbWlmwAgzibnT7MdNTqg9mqsvTP+8/ibhw/g2i4dQtNFC4XPxFRvM5StoXOecA8N8R1ZS3VUmun59x851jwtQujqehV2Cjp0EjsAqgADEucAZq9bbWzZVskb/j/MtSnaorlasb02bHEoJWdM5oiIgCIiADNb8Z6Fr9HXqqwSaCeYAfdOM/tNknllDAgjIPYyk45xaLQljJM5Ur5AM9mxRjPabDxrwm6u13CuUg7+Qxxj6H+k1S826azy9ZS9DjqLFK//AGcmrSlDVHUpVIz0ZduvZThTKLxK9NgcCWRYvY5/CXVHN6eo+c8rb5PSkiRXxRsDIB9NpcOtDKua0z9BIRCkggnPp6SSiI/2oU5ck4RexK0/Eqa8PZRz5QIQO0seZw2zms9yXPMfuieBWvMV2wZd5FrXICkdMZk9yfJHbhwWXu0LAA6FMDcAoIou0in4dL025eXaXlFYGeQHP6T2BWPsrK5z5LYQ4LXkaOx2s91UMexGZPsTSXMrXaas8my4EsIay3JjPzleYKehUj1hVZckOlDgnJqa6/gQIgG220ui+srhgDn1mGclLOcKGVhnPzkpP7xRkY2HeSq0uSXSiZRdTWCACM4lTqUGSCcnrMabBX8Pf5zxVa1rYIwucZjvPQjtLUyS6r4v6z2dR6nI7THsGNilemMbS0b1VuRtioyWz0PpHcktSO2jIWals7EcsmcBzbxEsvRVJJ+fT+ZidLRq9a2NLUzDpzkYUfjNs4Pw0cPoYEhrnOXYdPoJ6+lpznNSeh5eqqQjDFamQErETsHKEREAREQBERAKYlu2iu5OS5Fdf+FlBH6y7EAw2q8L8H1Jy2jVG9amKftMXd4G0oOdNrdRX35WCsP6H9ZtsoZjKhTlqjSNapHRmhanwjxKos1NlN47fEVMj/2JxSgDzNG5H+GQ3+c6LgRiYS6Gk9DePW1Ecyu0msVia9Dq2x393f8AiY7V3cRqs34XrRgd9O/8Tr2IxM/r4cmnnz4OTafVam7AOg1aDHXyH6/lKNdqAd9Jq89v9Xc/0nWolfro/wBE/YS4OT13a5rV5eHa1VxksdM+P2k8pa5BXSagnuBS38TpErD+Nj/QXyEuDnQo1e3+o6pgW3Apbb9JISjVMNtDqs/9ojf8ZvsYEmPxsFuH8hJ7GgNwfi91oavTED/rIEyGn8Na0hTY1de+T8WZt+Imi6CktfZnLrqr0NY0fhPkLnVa+y7mOQqoFC/vMnpPD/DtLkpQHYksWsPMSfxmUErN49NSjpEwlXqS1Z5VFVQqgAegEqBiVibmQiIgCIiAIiIAiIgCIiAIiIAiIgCIiAIiIAiIgCIiAIiIAiIgCIiAIiIAiIgCIiAIiIAiIgCIiAIiIAiIgCIiAIiIAiIgCIiAIiIAiIgCIiAIiIB//9k=;labelBorderColor=none;clipPath=inset(16.22% 7.75% 16.22% 11.5%);container=0;rounded=0;" parent="ikJFBv8js-pOLj2k_Jm1-293" vertex="1">
          <mxGeometry y="14.649999999999977" width="70" height="40.7" as="geometry" />
        </mxCell>
        <mxCell id="ikJFBv8js-pOLj2k_Jm1-297" value="Hamburber" style="text;html=1;align=center;verticalAlign=middle;whiteSpace=wrap;rounded=0;" parent="ikJFBv8js-pOLj2k_Jm1-338" vertex="1">
          <mxGeometry x="87" y="6.25" width="60" height="30" as="geometry" />
        </mxCell>
        <mxCell id="ikJFBv8js-pOLj2k_Jm1-350" value="" style="rounded=0;whiteSpace=wrap;html=1;fillColor=none;" parent="ikJFBv8js-pOLj2k_Jm1-338" vertex="1">
          <mxGeometry x="-18.5" y="-15.5" width="327" height="180" as="geometry" />
        </mxCell>
        <mxCell id="ikJFBv8js-pOLj2k_Jm1-298" value="$10.10" style="text;html=1;align=center;verticalAlign=middle;whiteSpace=wrap;rounded=0;" parent="ikJFBv8js-pOLj2k_Jm1-338" vertex="1">
          <mxGeometry x="87" y="33.75" width="60" height="30" as="geometry" />
        </mxCell>
        <mxCell id="ikJFBv8js-pOLj2k_Jm1-312" value="" style="group;rounded=0;" parent="ikJFBv8js-pOLj2k_Jm1-338" vertex="1" connectable="0">
          <mxGeometry x="210" y="25" width="80" height="35" as="geometry" />
        </mxCell>
        <mxCell id="ikJFBv8js-pOLj2k_Jm1-313" value="" style="group;rounded=0;" parent="ikJFBv8js-pOLj2k_Jm1-312" vertex="1" connectable="0">
          <mxGeometry width="20" height="35" as="geometry" />
        </mxCell>
        <mxCell id="ikJFBv8js-pOLj2k_Jm1-314" value="" style="ellipse;whiteSpace=wrap;html=1;aspect=fixed;rounded=0;" parent="ikJFBv8js-pOLj2k_Jm1-313" vertex="1">
          <mxGeometry width="20" height="20" as="geometry" />
        </mxCell>
        <mxCell id="ikJFBv8js-pOLj2k_Jm1-315" value="" style="endArrow=none;html=1;rounded=0;entryX=1;entryY=0.5;entryDx=0;entryDy=0;exitX=0;exitY=0.5;exitDx=0;exitDy=0;" parent="ikJFBv8js-pOLj2k_Jm1-313" source="ikJFBv8js-pOLj2k_Jm1-314" target="ikJFBv8js-pOLj2k_Jm1-314" edge="1">
          <mxGeometry width="50" height="50" relative="1" as="geometry">
            <mxPoint x="17.142857142857135" y="72.5" as="sourcePoint" />
            <mxPoint x="45.71428571428571" y="22.5" as="targetPoint" />
          </mxGeometry>
        </mxCell>
        <mxCell id="ikJFBv8js-pOLj2k_Jm1-316" value="" style="endArrow=none;html=1;rounded=0;entryX=0.5;entryY=0;entryDx=0;entryDy=0;exitX=0.5;exitY=1;exitDx=0;exitDy=0;" parent="ikJFBv8js-pOLj2k_Jm1-313" source="ikJFBv8js-pOLj2k_Jm1-314" target="ikJFBv8js-pOLj2k_Jm1-314" edge="1">
          <mxGeometry width="50" height="50" relative="1" as="geometry">
            <mxPoint x="28.57142857142857" y="202.5" as="sourcePoint" />
            <mxPoint x="57.14285714285714" y="152.5" as="targetPoint" />
          </mxGeometry>
        </mxCell>
        <mxCell id="ikJFBv8js-pOLj2k_Jm1-317" value="" style="group;rounded=0;" parent="ikJFBv8js-pOLj2k_Jm1-312" vertex="1" connectable="0">
          <mxGeometry x="60" width="20" height="35" as="geometry" />
        </mxCell>
        <mxCell id="ikJFBv8js-pOLj2k_Jm1-318" value="" style="ellipse;whiteSpace=wrap;html=1;aspect=fixed;rounded=0;" parent="ikJFBv8js-pOLj2k_Jm1-317" vertex="1">
          <mxGeometry width="20" height="20" as="geometry" />
        </mxCell>
        <mxCell id="ikJFBv8js-pOLj2k_Jm1-319" value="" style="endArrow=none;html=1;rounded=0;exitX=0;exitY=0.5;exitDx=0;exitDy=0;entryX=1;entryY=0.5;entryDx=0;entryDy=0;targetPerimeterSpacing=1;jumpStyle=none;" parent="ikJFBv8js-pOLj2k_Jm1-317" source="ikJFBv8js-pOLj2k_Jm1-318" target="ikJFBv8js-pOLj2k_Jm1-318" edge="1">
          <mxGeometry width="50" height="50" relative="1" as="geometry">
            <mxPoint x="-17.142857142857135" y="62.5" as="sourcePoint" />
            <mxPoint x="11.428571428571427" y="12.5" as="targetPoint" />
          </mxGeometry>
        </mxCell>
        <mxCell id="ikJFBv8js-pOLj2k_Jm1-320" value="2" style="rounded=0;whiteSpace=wrap;html=1;" parent="ikJFBv8js-pOLj2k_Jm1-312" vertex="1">
          <mxGeometry x="30" width="20" height="20" as="geometry" />
        </mxCell>
        <mxCell id="ikJFBv8js-pOLj2k_Jm1-358" value="Ketchup&lt;div&gt;&lt;br&gt;&lt;div&gt;Tomato&lt;/div&gt;&lt;/div&gt;" style="text;html=1;align=center;verticalAlign=middle;whiteSpace=wrap;rounded=0;" parent="ikJFBv8js-pOLj2k_Jm1-338" vertex="1">
          <mxGeometry x="147" y="4.06" width="60" height="61.88" as="geometry" />
        </mxCell>
        <mxCell id="ikJFBv8js-pOLj2k_Jm1-360" value="Barbecue&lt;div&gt;&lt;br&gt;&lt;/div&gt;&lt;div&gt;Lettuce&lt;/div&gt;" style="text;html=1;align=center;verticalAlign=middle;whiteSpace=wrap;rounded=0;" parent="ikJFBv8js-pOLj2k_Jm1-338" vertex="1">
          <mxGeometry x="147" y="84.5" width="60" height="61.88" as="geometry" />
        </mxCell>
        <mxCell id="ikJFBv8js-pOLj2k_Jm1-337" value="" style="group;rounded=0;" parent="1" vertex="1" connectable="0">
          <mxGeometry x="55" y="584.5" width="290" height="70" as="geometry" />
        </mxCell>
        <mxCell id="ikJFBv8js-pOLj2k_Jm1-292" value="" style="group;rounded=0;" parent="ikJFBv8js-pOLj2k_Jm1-337" vertex="1" connectable="0">
          <mxGeometry width="70" height="70" as="geometry" />
        </mxCell>
        <mxCell id="ikJFBv8js-pOLj2k_Jm1-288" value="" style="rounded=0;whiteSpace=wrap;html=1;container=0;" parent="ikJFBv8js-pOLj2k_Jm1-292" vertex="1">
          <mxGeometry width="70" height="70" as="geometry" />
        </mxCell>
        <mxCell id="ikJFBv8js-pOLj2k_Jm1-289" value="" style="shape=image;verticalLabelPosition=bottom;labelBackgroundColor=default;verticalAlign=top;aspect=fixed;imageAspect=0;image=data:image/jpeg,/9j/4AAQSkZJRgABAQAAAQABAAD/2wCEAAkGBwgHBgkIBwgKCgkLDRYPDQwMDRsUFRAWIB0iIiAdHx8kKDQsJCYxJx8fLT0tMTU3Ojo6Iys/RD84QzQ5OjcBCgoKDQwNGg8PGjclHyU3Nzc3Nzc3Nzc3Nzc3Nzc3Nzc3Nzc3Nzc3Nzc3Nzc3Nzc3Nzc3Nzc3Nzc3Nzc3Nzc3N//AABEIAJQA1QMBIgACEQEDEQH/xAAbAAEAAQUBAAAAAAAAAAAAAAAABAEDBQYHAv/EAD4QAAICAQIEAwUHAQQLAQAAAAECAAMRBCEFEjFBBhNRBxQiYXEyQoGRobHRwRUjY+EXJDNDUlNic4KS8Rb/xAAaAQEAAwEBAQAAAAAAAAAAAAAAAQIDBQQG/8QAJhEAAgEDAwQCAwEAAAAAAAAAAAECAxESMUFRBBMUIQUVIjJSYf/aAAwDAQACEQMRAD8A7jERAEREAREQBERAEREAREQBERAEREAREQBERAEREAREQBERAEREAREQBESkArEs6nU06WprdRatVa9WY4EwGv8AGOg07cmmPvDd8HA/OUnUjD9mXjCU9EbLE0nVeM9XWodNCnIfvF/4ninxrqL2wK6kz6+v5zHy6XJr4tTg3mJodni7ianB06Kc43BO3rLw8XaghyHoKjo5GB+8jy6Q8WobtE1BPFWoNfNy1PkHHJLa+MLelgrR+6OpBWPLpcjxqnBucTTH8V6pcHlqKndcA7/KUHijXGotX5DtjoOo/WT5dLkeLU4N0iaOfFPEW5eRtGo75Pb+k9VeIeJs5Z7dMK9gMKdz8jHl0x4tQ3aJo48S8RDFLnWsgZY8gwJeTxPraw5tCNy7D4MZ+fXpHl0yfFqG5RNV0/ifU2BSdKp5h0GRPCeLLrFdk0qhEOGLN/nJ8qnyV8apwbbE0uvxhq2XzDpafK5sZ5yMfWTNH4w09gT3ms1lm5dj0+ohdVSe4fTVVsbREjaPW0aysWaexXQ9xJAm6aaujFq3plYiJJAiIgCIiADIXFtfVw3Q26u8/DWNgOpPYCTD0mg+0jiSP5PDlI5lYWsQd89hMq08INmlOGcrGB4zxvU8Va33uwVBcBagxwP85jEaso9TubFwOUIvX5fISM5BCYTHL3zkmSaEYElH5Fb4Sx7CcSc3J+zrxgkjzWXsZVNgwv8AzXPLiSURXWy02Up1wEzk+mO882VgH+7z6jI7STSlZrYWoS5GxXtMsjSxHK6lagWa4BxkcznDD85Pdvf0NhVaxSm+GzkypZ/JWguTWhygI6bTwlCg5AAJ6kSMraFkrkdC1Rym2fkJ7auzkWy1SQ+SCW6/OSDSGBA6y4ambk5ix5FwufSVuWsU01LrpmZ7QmmYZRA2/wD6yOFFbv5b8ynoXXMk+TgTz5fyhyZKRHqxYEr1FaVH4suPiB9PpL1Nenrqaq5UY83wEKGXPbB2IlwU5lWq6Z3x8pGQxKCi7T1tXqg/k2b87AM+fTJPSWE8tUZHRyR/s38zBX09ZJChXUsDydDjqPpLq1Vo9nKC6Wb4fqp+UnIjEx/n6hghZmLrtzYAI/ES4lliWFwRzN9oOBv85fNAbDdUU4btvPY5udXITnxys3L9oHsfWRk1uTii3UULMbn8sOA5A6ZHqvQz0Gr5rA1CHm+yQeh9d/2lBVnOdhglfrnpBQ7esnNjD0X9LbqdJbVq9OErYdFBwD8yPQzeOB8Yq4lSAxVdQFHOn8fKaI3PaQxIYqMY6ZGekkcPuOj1aamlSAm/If1nr6bqXCVtjydR0ynG+50jMS1RYLqUsXo6hh+MuzuJ3VzjCIiSBERAKHpOZeNKhVx61rKxiwBgfUYxOnGa74t4GeJ1JfplB1NQIAJxzKe08/U03OFkbUJqE7s5gKMjAG2ZOqoL19M/KXX0xo1Lae4GuwHo4wTLunYBRybA7zkOm7nUzRb5CORT+XpJVGnXy2cnfICj1l0Voy5PU95Rsoygbg7fSVdO3slTueFqJPSe/Ikute/fvPRQjrHaLd0i0UIy8wJPYZMveUFEkV1j6R7sXcry7desrgWzIzLtkjHTbvgw9HKSOu+JOr04CEkkt3Jnp6TnZdhI7bsT3DHrVt0g1Z7Seah1Ax8pTysynbsXUzHtT2nry9pNZOXGR1lDST02lcPZORCprZ6ruVsIh+PPTMCvp9ZPXTjJwOvX5y4+mAXmxvLODZCmkY4oAmAOnX6GUWrldW64OSJP8gnJGVON8HrPK1Y+1+frGBOaIBpw2RtAr5iQSeh/OT7KcAEj6bzwlLGwKq5LZwAcyVB3KuasbZwG7zuF0Z2KLyH8NpkZi+B6e/TaTlvAXJ+FR2mUHSfQ0b9tX1OBVtm7CIialBERAEo3rKyJxLX0cO0j6nUtyovoMkmQ3ZBe2cd9rXipK/Ea6PhyUu+nTl1VgB5ubqFz8h+806nxlrKGIs0/OR9kK+x+uZBusst1F1utLvqbXZ7HPdycn9Z5bTFK11BrPlkkA+v0nkli3do90YyS9Gfr9oNo8oe5FlX/AGvxft+kv3e0mmu1VTh1rVkAseYAj6TUrKfKAbGctvt2izQeY1bIqlG6/SRjC+hP5WN6r9pvBgQvu2tGw25FP9ZLX2kcBZwGOrQEHdqNh+RM5Z7kfeWXHMEG7Dfeexw52Xm5TjOMyXTplVKZ1Or2mcAK/H70rD/AJEuD2oeHQFJ97DZxjyDt67zldPDVGTY2fkYXRIzkIrDtyncyvbplspnVT7U/DqW/CutZQftLQAD+ZzLb+1ngiIxTTa5m+6CirzfrOYf2bWR6H0nptDUgAI5vT8owp8DKfJ0Ye1nhDHP9na4D/wAP5nvTe1bhLs3naLWVqCOUgK+R3PXbE50NHQF6LvKjQ1JgMoyRtiVdOk9iVKpydB4l7VOHJcU0OkvuRQOR2UJzHfOx6dv1kGr2sWDTnzuDqNRn4cWkqd+/eah7jQSA6/aGVBlbtKtFNlu2FX4d846RhT0sTepuzb/9K2sNVZHBVVvv5s269vwll/azxPqOEaYKB96xtprldXNpktuKICv3N/wEyFWipyvNWA/LjkaLU1sT+fI1/tD4/wARurfRmrRFVwwrAcP9eYH9JIq8aeJDphXdbSXU8zOEALLjGDj652wdpiE0a6HWrzAeTYvwCTNPpXYnmGAd94ljsglK/tkmjjPHbqtOur4lcyUMGQAKpG2MkgZPXvn17Tufg1Uv8O8N1LqHv8gA2EZY9s/pOG1JWwG5yCM56YnZvZmaz4YqNVjvl2JDDAU56D5S9FrMy6j9Dax0lYie08QiIgCIiADNW8dWh9LRowMl2LkfIdP3m0maR4280cSTl70jB/EzGvK0Ga0VeaOLeIKruG65zbWxqZvhciQzrKr6FoNgRV3GO86kdPTqagNRUro33WGZiOIeB+A6wlvKsocnbyW5RPGqkXqe3GS0NHGoVOVnIGOnfMuVaipUPI4VSS02Z/ZppCp924lqV26OQf6TEav2e8YoJWjUJagGQeXf6TROL3K3ktjC6G1We0WZQk5xnsczICyuqo2Ag4UbSP8A/keP0eZcKFcnAPK25+gke/QcZQMt2g1DKenKhOfyktLZkKX+EzS1JYvm2EczHdM4OJc1mlSmq66gEWHb7XQTFLZraPt6TUKQMgtSw2/KUs1zeW1dtThjjJ5TnaVxdy2SJlWna9y1jZwMqQesuW6FXVCHw4bIHy7yzo7GsHm+YqD0M9W60qFKk5YHdQTDvcXRJtqo96ro8v4+UknpJSrpxyqyDOcAfSYW3WudQLLA3wKOgIJ+sqOIagsGFTqAMj4T/EjEnJGW4fQbbHutsQ/3jKpHTBO2JLtqrrAChdyPu9ph9FbqtUW8nS3qvyQ7n5bTJ/2Vxe6jzUpYDIGLuYNg98YlXqWuiLxRqNIpyqtaX+Csn4diN5XQ3NZa2ocDYlRhu0VeCfEHFteGflXmOCeXAUfjNp4B7MtQj31cQ4myouy+7gZY+u+ZMsUtSmTuavfhnrtsKkIOXlB6y6mpd6x5NbWlmwAgzibnT7MdNTqg9mqsvTP+8/ibhw/g2i4dQtNFC4XPxFRvM5StoXOecA8N8R1ZS3VUmun59x851jwtQujqehV2Cjp0EjsAqgADEucAZq9bbWzZVskb/j/MtSnaorlasb02bHEoJWdM5oiIgCIiADNb8Z6Fr9HXqqwSaCeYAfdOM/tNknllDAgjIPYyk45xaLQljJM5Ur5AM9mxRjPabDxrwm6u13CuUg7+Qxxj6H+k1S826azy9ZS9DjqLFK//AGcmrSlDVHUpVIz0ZduvZThTKLxK9NgcCWRYvY5/CXVHN6eo+c8rb5PSkiRXxRsDIB9NpcOtDKua0z9BIRCkggnPp6SSiI/2oU5ck4RexK0/Eqa8PZRz5QIQO0seZw2zms9yXPMfuieBWvMV2wZd5FrXICkdMZk9yfJHbhwWXu0LAA6FMDcAoIou0in4dL025eXaXlFYGeQHP6T2BWPsrK5z5LYQ4LXkaOx2s91UMexGZPsTSXMrXaas8my4EsIay3JjPzleYKehUj1hVZckOlDgnJqa6/gQIgG220ui+srhgDn1mGclLOcKGVhnPzkpP7xRkY2HeSq0uSXSiZRdTWCACM4lTqUGSCcnrMabBX8Pf5zxVa1rYIwucZjvPQjtLUyS6r4v6z2dR6nI7THsGNilemMbS0b1VuRtioyWz0PpHcktSO2jIWals7EcsmcBzbxEsvRVJJ+fT+ZidLRq9a2NLUzDpzkYUfjNs4Pw0cPoYEhrnOXYdPoJ6+lpznNSeh5eqqQjDFamQErETsHKEREAREQBERAKYlu2iu5OS5Fdf+FlBH6y7EAw2q8L8H1Jy2jVG9amKftMXd4G0oOdNrdRX35WCsP6H9ZtsoZjKhTlqjSNapHRmhanwjxKos1NlN47fEVMj/2JxSgDzNG5H+GQ3+c6LgRiYS6Gk9DePW1Ecyu0msVia9Dq2x393f8AiY7V3cRqs34XrRgd9O/8Tr2IxM/r4cmnnz4OTafVam7AOg1aDHXyH6/lKNdqAd9Jq89v9Xc/0nWolfro/wBE/YS4OT13a5rV5eHa1VxksdM+P2k8pa5BXSagnuBS38TpErD+Nj/QXyEuDnQo1e3+o6pgW3Apbb9JISjVMNtDqs/9ojf8ZvsYEmPxsFuH8hJ7GgNwfi91oavTED/rIEyGn8Na0hTY1de+T8WZt+Imi6CktfZnLrqr0NY0fhPkLnVa+y7mOQqoFC/vMnpPD/DtLkpQHYksWsPMSfxmUErN49NSjpEwlXqS1Z5VFVQqgAegEqBiVibmQiIgCIiAIiIAiIgCIiAIiIAiIgCIiAIiIAiIgCIiAIiIAiIgCIiAIiIAiIgCIiAIiIAiIgCIiAIiIAiIgCIiAIiIAiIgCIiAIiIAiIgCIiAIiIB//9k=;labelBorderColor=none;clipPath=inset(16.22% 7.75% 16.22% 11.5%);container=0;rounded=0;" parent="ikJFBv8js-pOLj2k_Jm1-292" vertex="1">
          <mxGeometry y="14.649999999999977" width="70" height="40.7" as="geometry" />
        </mxCell>
        <mxCell id="ikJFBv8js-pOLj2k_Jm1-296" value="Hamburber" style="text;html=1;align=center;verticalAlign=middle;whiteSpace=wrap;rounded=0;" parent="ikJFBv8js-pOLj2k_Jm1-337" vertex="1">
          <mxGeometry x="86" y="7.5" width="60" height="30" as="geometry" />
        </mxCell>
        <mxCell id="ikJFBv8js-pOLj2k_Jm1-299" value="$10.00" style="text;html=1;align=center;verticalAlign=middle;whiteSpace=wrap;rounded=0;" parent="ikJFBv8js-pOLj2k_Jm1-337" vertex="1">
          <mxGeometry x="86" y="32.5" width="60" height="30" as="geometry" />
        </mxCell>
        <mxCell id="ikJFBv8js-pOLj2k_Jm1-311" value="" style="group;rounded=0;" parent="ikJFBv8js-pOLj2k_Jm1-337" vertex="1" connectable="0">
          <mxGeometry x="210" y="25.5" width="80" height="35" as="geometry" />
        </mxCell>
        <mxCell id="ikJFBv8js-pOLj2k_Jm1-306" value="" style="group;rounded=0;" parent="ikJFBv8js-pOLj2k_Jm1-311" vertex="1" connectable="0">
          <mxGeometry width="20" height="35" as="geometry" />
        </mxCell>
        <mxCell id="ikJFBv8js-pOLj2k_Jm1-303" value="" style="ellipse;whiteSpace=wrap;html=1;aspect=fixed;rounded=0;" parent="ikJFBv8js-pOLj2k_Jm1-306" vertex="1">
          <mxGeometry width="20" height="20" as="geometry" />
        </mxCell>
        <mxCell id="ikJFBv8js-pOLj2k_Jm1-304" value="" style="endArrow=none;html=1;rounded=0;entryX=1;entryY=0.5;entryDx=0;entryDy=0;exitX=0;exitY=0.5;exitDx=0;exitDy=0;" parent="ikJFBv8js-pOLj2k_Jm1-306" source="ikJFBv8js-pOLj2k_Jm1-303" target="ikJFBv8js-pOLj2k_Jm1-303" edge="1">
          <mxGeometry width="50" height="50" relative="1" as="geometry">
            <mxPoint x="17.142857142857135" y="72.5" as="sourcePoint" />
            <mxPoint x="45.71428571428571" y="22.5" as="targetPoint" />
          </mxGeometry>
        </mxCell>
        <mxCell id="ikJFBv8js-pOLj2k_Jm1-305" value="" style="endArrow=none;html=1;rounded=0;entryX=0.5;entryY=0;entryDx=0;entryDy=0;exitX=0.5;exitY=1;exitDx=0;exitDy=0;" parent="ikJFBv8js-pOLj2k_Jm1-306" source="ikJFBv8js-pOLj2k_Jm1-303" target="ikJFBv8js-pOLj2k_Jm1-303" edge="1">
          <mxGeometry width="50" height="50" relative="1" as="geometry">
            <mxPoint x="28.57142857142857" y="202.5" as="sourcePoint" />
            <mxPoint x="57.14285714285714" y="152.5" as="targetPoint" />
          </mxGeometry>
        </mxCell>
        <mxCell id="ikJFBv8js-pOLj2k_Jm1-307" value="" style="group;rounded=0;" parent="ikJFBv8js-pOLj2k_Jm1-311" vertex="1" connectable="0">
          <mxGeometry x="60" width="20" height="35" as="geometry" />
        </mxCell>
        <mxCell id="ikJFBv8js-pOLj2k_Jm1-301" value="" style="ellipse;whiteSpace=wrap;html=1;aspect=fixed;rounded=0;" parent="ikJFBv8js-pOLj2k_Jm1-307" vertex="1">
          <mxGeometry width="20" height="20" as="geometry" />
        </mxCell>
        <mxCell id="ikJFBv8js-pOLj2k_Jm1-302" value="" style="endArrow=none;html=1;rounded=0;exitX=0;exitY=0.5;exitDx=0;exitDy=0;entryX=1;entryY=0.5;entryDx=0;entryDy=0;targetPerimeterSpacing=1;jumpStyle=none;" parent="ikJFBv8js-pOLj2k_Jm1-307" source="ikJFBv8js-pOLj2k_Jm1-301" target="ikJFBv8js-pOLj2k_Jm1-301" edge="1">
          <mxGeometry width="50" height="50" relative="1" as="geometry">
            <mxPoint x="-17.142857142857135" y="62.5" as="sourcePoint" />
            <mxPoint x="11.428571428571427" y="12.5" as="targetPoint" />
          </mxGeometry>
        </mxCell>
        <mxCell id="ikJFBv8js-pOLj2k_Jm1-310" value="3" style="rounded=0;whiteSpace=wrap;html=1;" parent="ikJFBv8js-pOLj2k_Jm1-311" vertex="1">
          <mxGeometry x="30" width="20" height="20" as="geometry" />
        </mxCell>
        <mxCell id="ikJFBv8js-pOLj2k_Jm1-340" value="Total $50.20" style="rounded=0;whiteSpace=wrap;html=1;" parent="1" vertex="1">
          <mxGeometry x="183" y="679" width="85.5" height="30" as="geometry" />
        </mxCell>
        <mxCell id="ikJFBv8js-pOLj2k_Jm1-357" value="" style="edgeStyle=orthogonalEdgeStyle;rounded=0;orthogonalLoop=1;jettySize=auto;html=1;strokeWidth=3;" parent="1" source="ikJFBv8js-pOLj2k_Jm1-341" target="ikJFBv8js-pOLj2k_Jm1-355" edge="1">
          <mxGeometry relative="1" as="geometry" />
        </mxCell>
        <mxCell id="ikJFBv8js-pOLj2k_Jm1-341" value="Pay Now" style="rounded=0;whiteSpace=wrap;html=1;" parent="1" vertex="1">
          <mxGeometry x="275" y="679" width="85.5" height="30" as="geometry" />
        </mxCell>
        <mxCell id="ikJFBv8js-pOLj2k_Jm1-345" value="Address:&lt;div&gt;10a Ashford Pde&lt;/div&gt;&lt;div&gt;Merewether Heights NSW 2291&lt;/div&gt;" style="rounded=0;whiteSpace=wrap;html=1;fillColor=none;align=center;labelPosition=center;verticalLabelPosition=middle;verticalAlign=middle;textDirection=ltr;spacingLeft=6;" parent="1" vertex="1">
          <mxGeometry x="186" y="746" width="184" height="60" as="geometry" />
        </mxCell>
        <mxCell id="ikJFBv8js-pOLj2k_Jm1-346" value="Payment Info:&lt;div&gt;Card: **** **** **** *444&lt;/div&gt;&lt;div&gt;Expiry: 11/24&lt;/div&gt;" style="rounded=0;whiteSpace=wrap;html=1;fillColor=none;" parent="1" vertex="1">
          <mxGeometry x="33" y="746" width="140" height="60" as="geometry" />
        </mxCell>
        <mxCell id="ikJFBv8js-pOLj2k_Jm1-348" value="" style="html=1;verticalLabelPosition=bottom;labelBackgroundColor=#ffffff;verticalAlign=top;shadow=0;dashed=0;strokeWidth=2;shape=mxgraph.ios7.misc.scroll_(vertical);fillColor=#a0a0a0;aspect=fixed;rounded=0;" parent="1" vertex="1">
          <mxGeometry x="356.5" y="513.86" width="4" height="53.29" as="geometry" />
        </mxCell>
        <mxCell id="ikJFBv8js-pOLj2k_Jm1-351" value="&lt;div style=&quot;text-align: justify;&quot;&gt;&lt;span style=&quot;background-color: initial;&quot;&gt;Payment Information&lt;/span&gt;&lt;/div&gt;" style="whiteSpace=wrap;html=1;aspect=fixed;rounded=0;labelPosition=center;verticalLabelPosition=top;align=center;verticalAlign=bottom;spacingTop=0;spacing=-20;" parent="1" vertex="1">
          <mxGeometry x="20" y="870" width="240.01" height="240.01" as="geometry" />
        </mxCell>
        <mxCell id="ikJFBv8js-pOLj2k_Jm1-353" value="Address Information" style="whiteSpace=wrap;html=1;rounded=0;labelPosition=center;verticalLabelPosition=top;align=center;verticalAlign=bottom;spacing=-20;" parent="1" vertex="1">
          <mxGeometry x="410" y="870" width="250" height="350" as="geometry" />
        </mxCell>
        <mxCell id="ikJFBv8js-pOLj2k_Jm1-355" value="" style="whiteSpace=wrap;html=1;aspect=fixed;rounded=0;" parent="1" vertex="1">
          <mxGeometry x="414" y="480.005" width="360" height="360" as="geometry" />
        </mxCell>
        <mxCell id="ikJFBv8js-pOLj2k_Jm1-361" value="Card Number" style="rounded=0;whiteSpace=wrap;html=1;" parent="1" vertex="1">
          <mxGeometry x="33" y="900" width="77" height="30" as="geometry" />
        </mxCell>
        <mxCell id="ikJFBv8js-pOLj2k_Jm1-362" value="Card Expiry" style="rounded=0;whiteSpace=wrap;html=1;" parent="1" vertex="1">
          <mxGeometry x="33" y="950" width="77" height="30" as="geometry" />
        </mxCell>
        <mxCell id="ikJFBv8js-pOLj2k_Jm1-363" value="CSV" style="rounded=0;whiteSpace=wrap;html=1;" parent="1" vertex="1">
          <mxGeometry x="33" y="1000" width="77" height="30" as="geometry" />
        </mxCell>
        <mxCell id="ikJFBv8js-pOLj2k_Jm1-364" value="Submit" style="rounded=0;whiteSpace=wrap;html=1;" parent="1" vertex="1">
          <mxGeometry x="33" y="1050" width="85" height="40" as="geometry" />
        </mxCell>
        <mxCell id="ikJFBv8js-pOLj2k_Jm1-365" value="Reset" style="rounded=0;whiteSpace=wrap;html=1;" parent="1" vertex="1">
          <mxGeometry x="130" y="1050" width="85" height="40" as="geometry" />
        </mxCell>
        <mxCell id="ikJFBv8js-pOLj2k_Jm1-369" value="1111 2222 3333 4444" style="rounded=0;whiteSpace=wrap;html=1;" parent="1" vertex="1">
          <mxGeometry x="120" y="900" width="130" height="30" as="geometry" />
        </mxCell>
        <mxCell id="ikJFBv8js-pOLj2k_Jm1-370" value="02" style="rounded=0;whiteSpace=wrap;html=1;" parent="1" vertex="1">
          <mxGeometry x="120" y="950" width="50" height="30" as="geometry" />
        </mxCell>
        <mxCell id="ikJFBv8js-pOLj2k_Jm1-371" value="111" style="rounded=0;whiteSpace=wrap;html=1;" parent="1" vertex="1">
          <mxGeometry x="120" y="1000" width="130" height="30" as="geometry" />
        </mxCell>
        <mxCell id="ikJFBv8js-pOLj2k_Jm1-372" value="27" style="rounded=0;whiteSpace=wrap;html=1;" parent="1" vertex="1">
          <mxGeometry x="200" y="950" width="50" height="30" as="geometry" />
        </mxCell>
        <mxCell id="VFOHCxQq9T8Rhk1EeYQV-1" value="Street Number" style="rounded=0;whiteSpace=wrap;html=1;" parent="1" vertex="1">
          <mxGeometry x="420" y="900" width="90" height="30" as="geometry" />
        </mxCell>
        <mxCell id="VFOHCxQq9T8Rhk1EeYQV-2" value="Street Name" style="rounded=0;whiteSpace=wrap;html=1;" parent="1" vertex="1">
          <mxGeometry x="420" y="940" width="90" height="30" as="geometry" />
        </mxCell>
        <mxCell id="VFOHCxQq9T8Rhk1EeYQV-3" value="Suburb" style="rounded=0;whiteSpace=wrap;html=1;" parent="1" vertex="1">
          <mxGeometry x="420" y="980" width="90" height="30" as="geometry" />
        </mxCell>
        <mxCell id="VFOHCxQq9T8Rhk1EeYQV-4" value="City" style="rounded=0;whiteSpace=wrap;html=1;" parent="1" vertex="1">
          <mxGeometry x="420" y="1020" width="90" height="30" as="geometry" />
        </mxCell>
        <mxCell id="VFOHCxQq9T8Rhk1EeYQV-5" value="State" style="rounded=0;whiteSpace=wrap;html=1;" parent="1" vertex="1">
          <mxGeometry x="420" y="1060" width="90" height="30" as="geometry" />
        </mxCell>
        <mxCell id="VFOHCxQq9T8Rhk1EeYQV-6" value="Post Code" style="rounded=0;whiteSpace=wrap;html=1;" parent="1" vertex="1">
          <mxGeometry x="420" y="1100" width="90" height="30" as="geometry" />
        </mxCell>
        <mxCell id="VFOHCxQq9T8Rhk1EeYQV-7" value="" style="rounded=0;whiteSpace=wrap;html=1;" parent="1" vertex="1">
          <mxGeometry x="530" y="900" width="120" height="30" as="geometry" />
        </mxCell>
        <mxCell id="VFOHCxQq9T8Rhk1EeYQV-8" value="" style="rounded=0;whiteSpace=wrap;html=1;" parent="1" vertex="1">
          <mxGeometry x="530" y="940" width="120" height="30" as="geometry" />
        </mxCell>
        <mxCell id="VFOHCxQq9T8Rhk1EeYQV-9" value="" style="rounded=0;whiteSpace=wrap;html=1;" parent="1" vertex="1">
          <mxGeometry x="530" y="980" width="120" height="30" as="geometry" />
        </mxCell>
        <mxCell id="VFOHCxQq9T8Rhk1EeYQV-10" value="" style="rounded=0;whiteSpace=wrap;html=1;" parent="1" vertex="1">
          <mxGeometry x="530" y="1020" width="120" height="30" as="geometry" />
        </mxCell>
        <mxCell id="VFOHCxQq9T8Rhk1EeYQV-11" value="" style="rounded=0;whiteSpace=wrap;html=1;" parent="1" vertex="1">
          <mxGeometry x="530" y="1060" width="120" height="30" as="geometry" />
        </mxCell>
        <mxCell id="VFOHCxQq9T8Rhk1EeYQV-12" value="" style="rounded=0;whiteSpace=wrap;html=1;" parent="1" vertex="1">
          <mxGeometry x="530" y="1100" width="120" height="30" as="geometry" />
        </mxCell>
        <mxCell id="VFOHCxQq9T8Rhk1EeYQV-13" value="Delivery?" style="rounded=0;whiteSpace=wrap;html=1;" parent="1" vertex="1">
          <mxGeometry x="420" y="1140" width="90" height="30" as="geometry" />
        </mxCell>
        <mxCell id="VFOHCxQq9T8Rhk1EeYQV-14" value="" style="html=1;shadow=0;dashed=0;shape=mxgraph.bootstrap.checkbox2;labelPosition=right;verticalLabelPosition=middle;align=left;verticalAlign=middle;gradientColor=#DEDEDE;fillColor=#EDEDED;checked=0;spacing=5;checkedFill=#0085FC;checkedStroke=#ffffff;sketch=0;" parent="1" vertex="1">
          <mxGeometry x="530" y="1150" width="10" height="10" as="geometry" />
        </mxCell>
        <mxCell id="VFOHCxQq9T8Rhk1EeYQV-15" value="Time of pickup/delivery" style="rounded=0;whiteSpace=wrap;html=1;" parent="1" vertex="1">
          <mxGeometry x="420" y="1180" width="90" height="30" as="geometry" />
        </mxCell>
        <mxCell id="VFOHCxQq9T8Rhk1EeYQV-16" value="" style="rounded=0;whiteSpace=wrap;html=1;" parent="1" vertex="1">
          <mxGeometry x="530" y="1180" width="120" height="30" as="geometry" />
        </mxCell>
        <mxCell id="ikJFBv8js-pOLj2k_Jm1-171" value="" style="whiteSpace=wrap;html=1;aspect=fixed;rounded=0;" parent="1" vertex="1">
          <mxGeometry x="414" y="61.87499999999997" width="360" height="360" as="geometry" />
        </mxCell>
        <mxCell id="ikJFBv8js-pOLj2k_Jm1-172" value="" style="group;rounded=0;" parent="1" vertex="1" connectable="0">
          <mxGeometry x="434" y="81.23499999999993" width="340" height="340.64" as="geometry" />
        </mxCell>
        <mxCell id="ikJFBv8js-pOLj2k_Jm1-173" value="" style="rounded=0;whiteSpace=wrap;html=1;container=0;" parent="ikJFBv8js-pOLj2k_Jm1-172" vertex="1">
          <mxGeometry x="110" y="110.00000000000003" width="100" height="100" as="geometry" />
        </mxCell>
        <mxCell id="ikJFBv8js-pOLj2k_Jm1-174" value="" style="shape=image;verticalLabelPosition=bottom;labelBackgroundColor=default;verticalAlign=top;aspect=fixed;imageAspect=0;image=data:image/jpeg,/9j/4AAQSkZJRgABAQAAAQABAAD/2wCEAAkGBwgHBgkIBwgKCgkLDRYPDQwMDRsUFRAWIB0iIiAdHx8kKDQsJCYxJx8fLT0tMTU3Ojo6Iys/RD84QzQ5OjcBCgoKDQwNGg8PGjclHyU3Nzc3Nzc3Nzc3Nzc3Nzc3Nzc3Nzc3Nzc3Nzc3Nzc3Nzc3Nzc3Nzc3Nzc3Nzc3Nzc3N//AABEIAJQA1QMBIgACEQEDEQH/xAAbAAEAAQUBAAAAAAAAAAAAAAAABAEDBQYHAv/EAD4QAAICAQIEAwUHAQQLAQAAAAECAAMRBCEFEjFBBhNRBxQiYXEyQoGRobHRwRUjY+EXJDNDUlNic4KS8Rb/xAAaAQEAAwEBAQAAAAAAAAAAAAAAAQIDBQQG/8QAJhEAAgEDAwQCAwEAAAAAAAAAAAECAxESMUFRBBMUIQUVIjJSYf/aAAwDAQACEQMRAD8A7jERAEREAREQBERAEREAREQBERAEREAREQBERAEREAREQBERAEREAREQBESkArEs6nU06WprdRatVa9WY4EwGv8AGOg07cmmPvDd8HA/OUnUjD9mXjCU9EbLE0nVeM9XWodNCnIfvF/4ninxrqL2wK6kz6+v5zHy6XJr4tTg3mJodni7ianB06Kc43BO3rLw8XaghyHoKjo5GB+8jy6Q8WobtE1BPFWoNfNy1PkHHJLa+MLelgrR+6OpBWPLpcjxqnBucTTH8V6pcHlqKndcA7/KUHijXGotX5DtjoOo/WT5dLkeLU4N0iaOfFPEW5eRtGo75Pb+k9VeIeJs5Z7dMK9gMKdz8jHl0x4tQ3aJo48S8RDFLnWsgZY8gwJeTxPraw5tCNy7D4MZ+fXpHl0yfFqG5RNV0/ifU2BSdKp5h0GRPCeLLrFdk0qhEOGLN/nJ8qnyV8apwbbE0uvxhq2XzDpafK5sZ5yMfWTNH4w09gT3ms1lm5dj0+ohdVSe4fTVVsbREjaPW0aysWaexXQ9xJAm6aaujFq3plYiJJAiIgCIiADIXFtfVw3Q26u8/DWNgOpPYCTD0mg+0jiSP5PDlI5lYWsQd89hMq08INmlOGcrGB4zxvU8Va33uwVBcBagxwP85jEaso9TubFwOUIvX5fISM5BCYTHL3zkmSaEYElH5Fb4Sx7CcSc3J+zrxgkjzWXsZVNgwv8AzXPLiSURXWy02Up1wEzk+mO882VgH+7z6jI7STSlZrYWoS5GxXtMsjSxHK6lagWa4BxkcznDD85Pdvf0NhVaxSm+GzkypZ/JWguTWhygI6bTwlCg5AAJ6kSMraFkrkdC1Rym2fkJ7auzkWy1SQ+SCW6/OSDSGBA6y4ambk5ix5FwufSVuWsU01LrpmZ7QmmYZRA2/wD6yOFFbv5b8ynoXXMk+TgTz5fyhyZKRHqxYEr1FaVH4suPiB9PpL1Nenrqaq5UY83wEKGXPbB2IlwU5lWq6Z3x8pGQxKCi7T1tXqg/k2b87AM+fTJPSWE8tUZHRyR/s38zBX09ZJChXUsDydDjqPpLq1Vo9nKC6Wb4fqp+UnIjEx/n6hghZmLrtzYAI/ES4lliWFwRzN9oOBv85fNAbDdUU4btvPY5udXITnxys3L9oHsfWRk1uTii3UULMbn8sOA5A6ZHqvQz0Gr5rA1CHm+yQeh9d/2lBVnOdhglfrnpBQ7esnNjD0X9LbqdJbVq9OErYdFBwD8yPQzeOB8Yq4lSAxVdQFHOn8fKaI3PaQxIYqMY6ZGekkcPuOj1aamlSAm/If1nr6bqXCVtjydR0ynG+50jMS1RYLqUsXo6hh+MuzuJ3VzjCIiSBERAKHpOZeNKhVx61rKxiwBgfUYxOnGa74t4GeJ1JfplB1NQIAJxzKe08/U03OFkbUJqE7s5gKMjAG2ZOqoL19M/KXX0xo1Lae4GuwHo4wTLunYBRybA7zkOm7nUzRb5CORT+XpJVGnXy2cnfICj1l0Voy5PU95Rsoygbg7fSVdO3slTueFqJPSe/Ikute/fvPRQjrHaLd0i0UIy8wJPYZMveUFEkV1j6R7sXcry7desrgWzIzLtkjHTbvgw9HKSOu+JOr04CEkkt3Jnp6TnZdhI7bsT3DHrVt0g1Z7Seah1Ax8pTysynbsXUzHtT2nry9pNZOXGR1lDST02lcPZORCprZ6ruVsIh+PPTMCvp9ZPXTjJwOvX5y4+mAXmxvLODZCmkY4oAmAOnX6GUWrldW64OSJP8gnJGVON8HrPK1Y+1+frGBOaIBpw2RtAr5iQSeh/OT7KcAEj6bzwlLGwKq5LZwAcyVB3KuasbZwG7zuF0Z2KLyH8NpkZi+B6e/TaTlvAXJ+FR2mUHSfQ0b9tX1OBVtm7CIialBERAEo3rKyJxLX0cO0j6nUtyovoMkmQ3ZBe2cd9rXipK/Ea6PhyUu+nTl1VgB5ubqFz8h+806nxlrKGIs0/OR9kK+x+uZBusst1F1utLvqbXZ7HPdycn9Z5bTFK11BrPlkkA+v0nkli3do90YyS9Gfr9oNo8oe5FlX/AGvxft+kv3e0mmu1VTh1rVkAseYAj6TUrKfKAbGctvt2izQeY1bIqlG6/SRjC+hP5WN6r9pvBgQvu2tGw25FP9ZLX2kcBZwGOrQEHdqNh+RM5Z7kfeWXHMEG7Dfeexw52Xm5TjOMyXTplVKZ1Or2mcAK/H70rD/AJEuD2oeHQFJ97DZxjyDt67zldPDVGTY2fkYXRIzkIrDtyncyvbplspnVT7U/DqW/CutZQftLQAD+ZzLb+1ngiIxTTa5m+6CirzfrOYf2bWR6H0nptDUgAI5vT8owp8DKfJ0Ye1nhDHP9na4D/wAP5nvTe1bhLs3naLWVqCOUgK+R3PXbE50NHQF6LvKjQ1JgMoyRtiVdOk9iVKpydB4l7VOHJcU0OkvuRQOR2UJzHfOx6dv1kGr2sWDTnzuDqNRn4cWkqd+/eah7jQSA6/aGVBlbtKtFNlu2FX4d846RhT0sTepuzb/9K2sNVZHBVVvv5s269vwll/azxPqOEaYKB96xtprldXNpktuKICv3N/wEyFWipyvNWA/LjkaLU1sT+fI1/tD4/wARurfRmrRFVwwrAcP9eYH9JIq8aeJDphXdbSXU8zOEALLjGDj652wdpiE0a6HWrzAeTYvwCTNPpXYnmGAd94ljsglK/tkmjjPHbqtOur4lcyUMGQAKpG2MkgZPXvn17Tufg1Uv8O8N1LqHv8gA2EZY9s/pOG1JWwG5yCM56YnZvZmaz4YqNVjvl2JDDAU56D5S9FrMy6j9Dax0lYie08QiIgCIiADNW8dWh9LRowMl2LkfIdP3m0maR4280cSTl70jB/EzGvK0Ga0VeaOLeIKruG65zbWxqZvhciQzrKr6FoNgRV3GO86kdPTqagNRUro33WGZiOIeB+A6wlvKsocnbyW5RPGqkXqe3GS0NHGoVOVnIGOnfMuVaipUPI4VSS02Z/ZppCp924lqV26OQf6TEav2e8YoJWjUJagGQeXf6TROL3K3ktjC6G1We0WZQk5xnsczICyuqo2Ag4UbSP8A/keP0eZcKFcnAPK25+gke/QcZQMt2g1DKenKhOfyktLZkKX+EzS1JYvm2EczHdM4OJc1mlSmq66gEWHb7XQTFLZraPt6TUKQMgtSw2/KUs1zeW1dtThjjJ5TnaVxdy2SJlWna9y1jZwMqQesuW6FXVCHw4bIHy7yzo7GsHm+YqD0M9W60qFKk5YHdQTDvcXRJtqo96ro8v4+UknpJSrpxyqyDOcAfSYW3WudQLLA3wKOgIJ+sqOIagsGFTqAMj4T/EjEnJGW4fQbbHutsQ/3jKpHTBO2JLtqrrAChdyPu9ph9FbqtUW8nS3qvyQ7n5bTJ/2Vxe6jzUpYDIGLuYNg98YlXqWuiLxRqNIpyqtaX+Csn4diN5XQ3NZa2ocDYlRhu0VeCfEHFteGflXmOCeXAUfjNp4B7MtQj31cQ4myouy+7gZY+u+ZMsUtSmTuavfhnrtsKkIOXlB6y6mpd6x5NbWlmwAgzibnT7MdNTqg9mqsvTP+8/ibhw/g2i4dQtNFC4XPxFRvM5StoXOecA8N8R1ZS3VUmun59x851jwtQujqehV2Cjp0EjsAqgADEucAZq9bbWzZVskb/j/MtSnaorlasb02bHEoJWdM5oiIgCIiADNb8Z6Fr9HXqqwSaCeYAfdOM/tNknllDAgjIPYyk45xaLQljJM5Ur5AM9mxRjPabDxrwm6u13CuUg7+Qxxj6H+k1S826azy9ZS9DjqLFK//AGcmrSlDVHUpVIz0ZduvZThTKLxK9NgcCWRYvY5/CXVHN6eo+c8rb5PSkiRXxRsDIB9NpcOtDKua0z9BIRCkggnPp6SSiI/2oU5ck4RexK0/Eqa8PZRz5QIQO0seZw2zms9yXPMfuieBWvMV2wZd5FrXICkdMZk9yfJHbhwWXu0LAA6FMDcAoIou0in4dL025eXaXlFYGeQHP6T2BWPsrK5z5LYQ4LXkaOx2s91UMexGZPsTSXMrXaas8my4EsIay3JjPzleYKehUj1hVZckOlDgnJqa6/gQIgG220ui+srhgDn1mGclLOcKGVhnPzkpP7xRkY2HeSq0uSXSiZRdTWCACM4lTqUGSCcnrMabBX8Pf5zxVa1rYIwucZjvPQjtLUyS6r4v6z2dR6nI7THsGNilemMbS0b1VuRtioyWz0PpHcktSO2jIWals7EcsmcBzbxEsvRVJJ+fT+ZidLRq9a2NLUzDpzkYUfjNs4Pw0cPoYEhrnOXYdPoJ6+lpznNSeh5eqqQjDFamQErETsHKEREAREQBERAKYlu2iu5OS5Fdf+FlBH6y7EAw2q8L8H1Jy2jVG9amKftMXd4G0oOdNrdRX35WCsP6H9ZtsoZjKhTlqjSNapHRmhanwjxKos1NlN47fEVMj/2JxSgDzNG5H+GQ3+c6LgRiYS6Gk9DePW1Ecyu0msVia9Dq2x393f8AiY7V3cRqs34XrRgd9O/8Tr2IxM/r4cmnnz4OTafVam7AOg1aDHXyH6/lKNdqAd9Jq89v9Xc/0nWolfro/wBE/YS4OT13a5rV5eHa1VxksdM+P2k8pa5BXSagnuBS38TpErD+Nj/QXyEuDnQo1e3+o6pgW3Apbb9JISjVMNtDqs/9ojf8ZvsYEmPxsFuH8hJ7GgNwfi91oavTED/rIEyGn8Na0hTY1de+T8WZt+Imi6CktfZnLrqr0NY0fhPkLnVa+y7mOQqoFC/vMnpPD/DtLkpQHYksWsPMSfxmUErN49NSjpEwlXqS1Z5VFVQqgAegEqBiVibmQiIgCIiAIiIAiIgCIiAIiIAiIgCIiAIiIAiIgCIiAIiIAiIgCIiAIiIAiIgCIiAIiIAiIgCIiAIiIAiIgCIiAIiIAiIgCIiAIiIAiIgCIiAIiIB//9k=;labelBorderColor=none;clipPath=inset(16.22% 7.75% 16.22% 11.5%);container=0;rounded=0;" parent="ikJFBv8js-pOLj2k_Jm1-172" vertex="1">
          <mxGeometry x="110.5" y="131.22000000000003" width="99" height="57.56" as="geometry" />
        </mxCell>
        <mxCell id="ikJFBv8js-pOLj2k_Jm1-175" value="Hamburger $10.00" style="text;html=1;align=center;verticalAlign=middle;whiteSpace=wrap;rounded=0;fontSize=9;container=0;" parent="ikJFBv8js-pOLj2k_Jm1-172" vertex="1">
          <mxGeometry x="120" y="191.28000000000006" width="80" height="20" as="geometry" />
        </mxCell>
        <mxCell id="ikJFBv8js-pOLj2k_Jm1-176" value="" style="shape=cross;whiteSpace=wrap;html=1;fillColor=#b85450;strokeColor=#b85450;gradientColor=none;size=0.17777777777777715;aspect=fixed;container=0;rounded=0;" parent="ikJFBv8js-pOLj2k_Jm1-172" vertex="1">
          <mxGeometry x="190.5" y="115.28000000000006" width="15" height="15" as="geometry" />
        </mxCell>
        <mxCell id="ikJFBv8js-pOLj2k_Jm1-177" value="" style="rounded=0;whiteSpace=wrap;html=1;container=0;" parent="ikJFBv8js-pOLj2k_Jm1-172" vertex="1">
          <mxGeometry x="220" y="110" width="100" height="100" as="geometry" />
        </mxCell>
        <mxCell id="ikJFBv8js-pOLj2k_Jm1-178" value="" style="shape=image;verticalLabelPosition=bottom;labelBackgroundColor=default;verticalAlign=top;aspect=fixed;imageAspect=0;image=data:image/jpeg,/9j/4AAQSkZJRgABAQAAAQABAAD/2wCEAAkGBwgHBgkIBwgKCgkLDRYPDQwMDRsUFRAWIB0iIiAdHx8kKDQsJCYxJx8fLT0tMTU3Ojo6Iys/RD84QzQ5OjcBCgoKDQwNGg8PGjclHyU3Nzc3Nzc3Nzc3Nzc3Nzc3Nzc3Nzc3Nzc3Nzc3Nzc3Nzc3Nzc3Nzc3Nzc3Nzc3Nzc3N//AABEIAJQA1QMBIgACEQEDEQH/xAAbAAEAAQUBAAAAAAAAAAAAAAAABAEDBQYHAv/EAD4QAAICAQIEAwUHAQQLAQAAAAECAAMRBCEFEjFBBhNRBxQiYXEyQoGRobHRwRUjY+EXJDNDUlNic4KS8Rb/xAAaAQEAAwEBAQAAAAAAAAAAAAAAAQIDBQQG/8QAJhEAAgEDAwQCAwEAAAAAAAAAAAECAxESMUFRBBMUIQUVIjJSYf/aAAwDAQACEQMRAD8A7jERAEREAREQBERAEREAREQBERAEREAREQBERAEREAREQBERAEREAREQBESkArEs6nU06WprdRatVa9WY4EwGv8AGOg07cmmPvDd8HA/OUnUjD9mXjCU9EbLE0nVeM9XWodNCnIfvF/4ninxrqL2wK6kz6+v5zHy6XJr4tTg3mJodni7ianB06Kc43BO3rLw8XaghyHoKjo5GB+8jy6Q8WobtE1BPFWoNfNy1PkHHJLa+MLelgrR+6OpBWPLpcjxqnBucTTH8V6pcHlqKndcA7/KUHijXGotX5DtjoOo/WT5dLkeLU4N0iaOfFPEW5eRtGo75Pb+k9VeIeJs5Z7dMK9gMKdz8jHl0x4tQ3aJo48S8RDFLnWsgZY8gwJeTxPraw5tCNy7D4MZ+fXpHl0yfFqG5RNV0/ifU2BSdKp5h0GRPCeLLrFdk0qhEOGLN/nJ8qnyV8apwbbE0uvxhq2XzDpafK5sZ5yMfWTNH4w09gT3ms1lm5dj0+ohdVSe4fTVVsbREjaPW0aysWaexXQ9xJAm6aaujFq3plYiJJAiIgCIiADIXFtfVw3Q26u8/DWNgOpPYCTD0mg+0jiSP5PDlI5lYWsQd89hMq08INmlOGcrGB4zxvU8Va33uwVBcBagxwP85jEaso9TubFwOUIvX5fISM5BCYTHL3zkmSaEYElH5Fb4Sx7CcSc3J+zrxgkjzWXsZVNgwv8AzXPLiSURXWy02Up1wEzk+mO882VgH+7z6jI7STSlZrYWoS5GxXtMsjSxHK6lagWa4BxkcznDD85Pdvf0NhVaxSm+GzkypZ/JWguTWhygI6bTwlCg5AAJ6kSMraFkrkdC1Rym2fkJ7auzkWy1SQ+SCW6/OSDSGBA6y4ambk5ix5FwufSVuWsU01LrpmZ7QmmYZRA2/wD6yOFFbv5b8ynoXXMk+TgTz5fyhyZKRHqxYEr1FaVH4suPiB9PpL1Nenrqaq5UY83wEKGXPbB2IlwU5lWq6Z3x8pGQxKCi7T1tXqg/k2b87AM+fTJPSWE8tUZHRyR/s38zBX09ZJChXUsDydDjqPpLq1Vo9nKC6Wb4fqp+UnIjEx/n6hghZmLrtzYAI/ES4lliWFwRzN9oOBv85fNAbDdUU4btvPY5udXITnxys3L9oHsfWRk1uTii3UULMbn8sOA5A6ZHqvQz0Gr5rA1CHm+yQeh9d/2lBVnOdhglfrnpBQ7esnNjD0X9LbqdJbVq9OErYdFBwD8yPQzeOB8Yq4lSAxVdQFHOn8fKaI3PaQxIYqMY6ZGekkcPuOj1aamlSAm/If1nr6bqXCVtjydR0ynG+50jMS1RYLqUsXo6hh+MuzuJ3VzjCIiSBERAKHpOZeNKhVx61rKxiwBgfUYxOnGa74t4GeJ1JfplB1NQIAJxzKe08/U03OFkbUJqE7s5gKMjAG2ZOqoL19M/KXX0xo1Lae4GuwHo4wTLunYBRybA7zkOm7nUzRb5CORT+XpJVGnXy2cnfICj1l0Voy5PU95Rsoygbg7fSVdO3slTueFqJPSe/Ikute/fvPRQjrHaLd0i0UIy8wJPYZMveUFEkV1j6R7sXcry7desrgWzIzLtkjHTbvgw9HKSOu+JOr04CEkkt3Jnp6TnZdhI7bsT3DHrVt0g1Z7Seah1Ax8pTysynbsXUzHtT2nry9pNZOXGR1lDST02lcPZORCprZ6ruVsIh+PPTMCvp9ZPXTjJwOvX5y4+mAXmxvLODZCmkY4oAmAOnX6GUWrldW64OSJP8gnJGVON8HrPK1Y+1+frGBOaIBpw2RtAr5iQSeh/OT7KcAEj6bzwlLGwKq5LZwAcyVB3KuasbZwG7zuF0Z2KLyH8NpkZi+B6e/TaTlvAXJ+FR2mUHSfQ0b9tX1OBVtm7CIialBERAEo3rKyJxLX0cO0j6nUtyovoMkmQ3ZBe2cd9rXipK/Ea6PhyUu+nTl1VgB5ubqFz8h+806nxlrKGIs0/OR9kK+x+uZBusst1F1utLvqbXZ7HPdycn9Z5bTFK11BrPlkkA+v0nkli3do90YyS9Gfr9oNo8oe5FlX/AGvxft+kv3e0mmu1VTh1rVkAseYAj6TUrKfKAbGctvt2izQeY1bIqlG6/SRjC+hP5WN6r9pvBgQvu2tGw25FP9ZLX2kcBZwGOrQEHdqNh+RM5Z7kfeWXHMEG7Dfeexw52Xm5TjOMyXTplVKZ1Or2mcAK/H70rD/AJEuD2oeHQFJ97DZxjyDt67zldPDVGTY2fkYXRIzkIrDtyncyvbplspnVT7U/DqW/CutZQftLQAD+ZzLb+1ngiIxTTa5m+6CirzfrOYf2bWR6H0nptDUgAI5vT8owp8DKfJ0Ye1nhDHP9na4D/wAP5nvTe1bhLs3naLWVqCOUgK+R3PXbE50NHQF6LvKjQ1JgMoyRtiVdOk9iVKpydB4l7VOHJcU0OkvuRQOR2UJzHfOx6dv1kGr2sWDTnzuDqNRn4cWkqd+/eah7jQSA6/aGVBlbtKtFNlu2FX4d846RhT0sTepuzb/9K2sNVZHBVVvv5s269vwll/azxPqOEaYKB96xtprldXNpktuKICv3N/wEyFWipyvNWA/LjkaLU1sT+fI1/tD4/wARurfRmrRFVwwrAcP9eYH9JIq8aeJDphXdbSXU8zOEALLjGDj652wdpiE0a6HWrzAeTYvwCTNPpXYnmGAd94ljsglK/tkmjjPHbqtOur4lcyUMGQAKpG2MkgZPXvn17Tufg1Uv8O8N1LqHv8gA2EZY9s/pOG1JWwG5yCM56YnZvZmaz4YqNVjvl2JDDAU56D5S9FrMy6j9Dax0lYie08QiIgCIiADNW8dWh9LRowMl2LkfIdP3m0maR4280cSTl70jB/EzGvK0Ga0VeaOLeIKruG65zbWxqZvhciQzrKr6FoNgRV3GO86kdPTqagNRUro33WGZiOIeB+A6wlvKsocnbyW5RPGqkXqe3GS0NHGoVOVnIGOnfMuVaipUPI4VSS02Z/ZppCp924lqV26OQf6TEav2e8YoJWjUJagGQeXf6TROL3K3ktjC6G1We0WZQk5xnsczICyuqo2Ag4UbSP8A/keP0eZcKFcnAPK25+gke/QcZQMt2g1DKenKhOfyktLZkKX+EzS1JYvm2EczHdM4OJc1mlSmq66gEWHb7XQTFLZraPt6TUKQMgtSw2/KUs1zeW1dtThjjJ5TnaVxdy2SJlWna9y1jZwMqQesuW6FXVCHw4bIHy7yzo7GsHm+YqD0M9W60qFKk5YHdQTDvcXRJtqo96ro8v4+UknpJSrpxyqyDOcAfSYW3WudQLLA3wKOgIJ+sqOIagsGFTqAMj4T/EjEnJGW4fQbbHutsQ/3jKpHTBO2JLtqrrAChdyPu9ph9FbqtUW8nS3qvyQ7n5bTJ/2Vxe6jzUpYDIGLuYNg98YlXqWuiLxRqNIpyqtaX+Csn4diN5XQ3NZa2ocDYlRhu0VeCfEHFteGflXmOCeXAUfjNp4B7MtQj31cQ4myouy+7gZY+u+ZMsUtSmTuavfhnrtsKkIOXlB6y6mpd6x5NbWlmwAgzibnT7MdNTqg9mqsvTP+8/ibhw/g2i4dQtNFC4XPxFRvM5StoXOecA8N8R1ZS3VUmun59x851jwtQujqehV2Cjp0EjsAqgADEucAZq9bbWzZVskb/j/MtSnaorlasb02bHEoJWdM5oiIgCIiADNb8Z6Fr9HXqqwSaCeYAfdOM/tNknllDAgjIPYyk45xaLQljJM5Ur5AM9mxRjPabDxrwm6u13CuUg7+Qxxj6H+k1S826azy9ZS9DjqLFK//AGcmrSlDVHUpVIz0ZduvZThTKLxK9NgcCWRYvY5/CXVHN6eo+c8rb5PSkiRXxRsDIB9NpcOtDKua0z9BIRCkggnPp6SSiI/2oU5ck4RexK0/Eqa8PZRz5QIQO0seZw2zms9yXPMfuieBWvMV2wZd5FrXICkdMZk9yfJHbhwWXu0LAA6FMDcAoIou0in4dL025eXaXlFYGeQHP6T2BWPsrK5z5LYQ4LXkaOx2s91UMexGZPsTSXMrXaas8my4EsIay3JjPzleYKehUj1hVZckOlDgnJqa6/gQIgG220ui+srhgDn1mGclLOcKGVhnPzkpP7xRkY2HeSq0uSXSiZRdTWCACM4lTqUGSCcnrMabBX8Pf5zxVa1rYIwucZjvPQjtLUyS6r4v6z2dR6nI7THsGNilemMbS0b1VuRtioyWz0PpHcktSO2jIWals7EcsmcBzbxEsvRVJJ+fT+ZidLRq9a2NLUzDpzkYUfjNs4Pw0cPoYEhrnOXYdPoJ6+lpznNSeh5eqqQjDFamQErETsHKEREAREQBERAKYlu2iu5OS5Fdf+FlBH6y7EAw2q8L8H1Jy2jVG9amKftMXd4G0oOdNrdRX35WCsP6H9ZtsoZjKhTlqjSNapHRmhanwjxKos1NlN47fEVMj/2JxSgDzNG5H+GQ3+c6LgRiYS6Gk9DePW1Ecyu0msVia9Dq2x393f8AiY7V3cRqs34XrRgd9O/8Tr2IxM/r4cmnnz4OTafVam7AOg1aDHXyH6/lKNdqAd9Jq89v9Xc/0nWolfro/wBE/YS4OT13a5rV5eHa1VxksdM+P2k8pa5BXSagnuBS38TpErD+Nj/QXyEuDnQo1e3+o6pgW3Apbb9JISjVMNtDqs/9ojf8ZvsYEmPxsFuH8hJ7GgNwfi91oavTED/rIEyGn8Na0hTY1de+T8WZt+Imi6CktfZnLrqr0NY0fhPkLnVa+y7mOQqoFC/vMnpPD/DtLkpQHYksWsPMSfxmUErN49NSjpEwlXqS1Z5VFVQqgAegEqBiVibmQiIgCIiAIiIAiIgCIiAIiIAiIgCIiAIiIAiIgCIiAIiIAiIgCIiAIiIAiIgCIiAIiIAiIgCIiAIiIAiIgCIiAIiIAiIgCIiAIiIAiIgCIiAIiIB//9k=;labelBorderColor=none;clipPath=inset(16.22% 7.75% 16.22% 11.5%);container=0;rounded=0;" parent="ikJFBv8js-pOLj2k_Jm1-172" vertex="1">
          <mxGeometry x="220.5" y="131.22" width="99" height="57.56" as="geometry" />
        </mxCell>
        <mxCell id="ikJFBv8js-pOLj2k_Jm1-179" value="Hamburger $10.00" style="text;html=1;align=center;verticalAlign=middle;whiteSpace=wrap;rounded=0;fontSize=9;container=0;" parent="ikJFBv8js-pOLj2k_Jm1-172" vertex="1">
          <mxGeometry x="230" y="191.28" width="80" height="20" as="geometry" />
        </mxCell>
        <mxCell id="ikJFBv8js-pOLj2k_Jm1-181" value="" style="rounded=0;whiteSpace=wrap;html=1;container=0;" parent="ikJFBv8js-pOLj2k_Jm1-172" vertex="1">
          <mxGeometry y="110" width="100" height="100" as="geometry" />
        </mxCell>
        <mxCell id="ikJFBv8js-pOLj2k_Jm1-182" value="" style="shape=image;verticalLabelPosition=bottom;labelBackgroundColor=default;verticalAlign=top;aspect=fixed;imageAspect=0;image=data:image/jpeg,/9j/4AAQSkZJRgABAQAAAQABAAD/2wCEAAkGBwgHBgkIBwgKCgkLDRYPDQwMDRsUFRAWIB0iIiAdHx8kKDQsJCYxJx8fLT0tMTU3Ojo6Iys/RD84QzQ5OjcBCgoKDQwNGg8PGjclHyU3Nzc3Nzc3Nzc3Nzc3Nzc3Nzc3Nzc3Nzc3Nzc3Nzc3Nzc3Nzc3Nzc3Nzc3Nzc3Nzc3N//AABEIAJQA1QMBIgACEQEDEQH/xAAbAAEAAQUBAAAAAAAAAAAAAAAABAEDBQYHAv/EAD4QAAICAQIEAwUHAQQLAQAAAAECAAMRBCEFEjFBBhNRBxQiYXEyQoGRobHRwRUjY+EXJDNDUlNic4KS8Rb/xAAaAQEAAwEBAQAAAAAAAAAAAAAAAQIDBQQG/8QAJhEAAgEDAwQCAwEAAAAAAAAAAAECAxESMUFRBBMUIQUVIjJSYf/aAAwDAQACEQMRAD8A7jERAEREAREQBERAEREAREQBERAEREAREQBERAEREAREQBERAEREAREQBESkArEs6nU06WprdRatVa9WY4EwGv8AGOg07cmmPvDd8HA/OUnUjD9mXjCU9EbLE0nVeM9XWodNCnIfvF/4ninxrqL2wK6kz6+v5zHy6XJr4tTg3mJodni7ianB06Kc43BO3rLw8XaghyHoKjo5GB+8jy6Q8WobtE1BPFWoNfNy1PkHHJLa+MLelgrR+6OpBWPLpcjxqnBucTTH8V6pcHlqKndcA7/KUHijXGotX5DtjoOo/WT5dLkeLU4N0iaOfFPEW5eRtGo75Pb+k9VeIeJs5Z7dMK9gMKdz8jHl0x4tQ3aJo48S8RDFLnWsgZY8gwJeTxPraw5tCNy7D4MZ+fXpHl0yfFqG5RNV0/ifU2BSdKp5h0GRPCeLLrFdk0qhEOGLN/nJ8qnyV8apwbbE0uvxhq2XzDpafK5sZ5yMfWTNH4w09gT3ms1lm5dj0+ohdVSe4fTVVsbREjaPW0aysWaexXQ9xJAm6aaujFq3plYiJJAiIgCIiADIXFtfVw3Q26u8/DWNgOpPYCTD0mg+0jiSP5PDlI5lYWsQd89hMq08INmlOGcrGB4zxvU8Va33uwVBcBagxwP85jEaso9TubFwOUIvX5fISM5BCYTHL3zkmSaEYElH5Fb4Sx7CcSc3J+zrxgkjzWXsZVNgwv8AzXPLiSURXWy02Up1wEzk+mO882VgH+7z6jI7STSlZrYWoS5GxXtMsjSxHK6lagWa4BxkcznDD85Pdvf0NhVaxSm+GzkypZ/JWguTWhygI6bTwlCg5AAJ6kSMraFkrkdC1Rym2fkJ7auzkWy1SQ+SCW6/OSDSGBA6y4ambk5ix5FwufSVuWsU01LrpmZ7QmmYZRA2/wD6yOFFbv5b8ynoXXMk+TgTz5fyhyZKRHqxYEr1FaVH4suPiB9PpL1Nenrqaq5UY83wEKGXPbB2IlwU5lWq6Z3x8pGQxKCi7T1tXqg/k2b87AM+fTJPSWE8tUZHRyR/s38zBX09ZJChXUsDydDjqPpLq1Vo9nKC6Wb4fqp+UnIjEx/n6hghZmLrtzYAI/ES4lliWFwRzN9oOBv85fNAbDdUU4btvPY5udXITnxys3L9oHsfWRk1uTii3UULMbn8sOA5A6ZHqvQz0Gr5rA1CHm+yQeh9d/2lBVnOdhglfrnpBQ7esnNjD0X9LbqdJbVq9OErYdFBwD8yPQzeOB8Yq4lSAxVdQFHOn8fKaI3PaQxIYqMY6ZGekkcPuOj1aamlSAm/If1nr6bqXCVtjydR0ynG+50jMS1RYLqUsXo6hh+MuzuJ3VzjCIiSBERAKHpOZeNKhVx61rKxiwBgfUYxOnGa74t4GeJ1JfplB1NQIAJxzKe08/U03OFkbUJqE7s5gKMjAG2ZOqoL19M/KXX0xo1Lae4GuwHo4wTLunYBRybA7zkOm7nUzRb5CORT+XpJVGnXy2cnfICj1l0Voy5PU95Rsoygbg7fSVdO3slTueFqJPSe/Ikute/fvPRQjrHaLd0i0UIy8wJPYZMveUFEkV1j6R7sXcry7desrgWzIzLtkjHTbvgw9HKSOu+JOr04CEkkt3Jnp6TnZdhI7bsT3DHrVt0g1Z7Seah1Ax8pTysynbsXUzHtT2nry9pNZOXGR1lDST02lcPZORCprZ6ruVsIh+PPTMCvp9ZPXTjJwOvX5y4+mAXmxvLODZCmkY4oAmAOnX6GUWrldW64OSJP8gnJGVON8HrPK1Y+1+frGBOaIBpw2RtAr5iQSeh/OT7KcAEj6bzwlLGwKq5LZwAcyVB3KuasbZwG7zuF0Z2KLyH8NpkZi+B6e/TaTlvAXJ+FR2mUHSfQ0b9tX1OBVtm7CIialBERAEo3rKyJxLX0cO0j6nUtyovoMkmQ3ZBe2cd9rXipK/Ea6PhyUu+nTl1VgB5ubqFz8h+806nxlrKGIs0/OR9kK+x+uZBusst1F1utLvqbXZ7HPdycn9Z5bTFK11BrPlkkA+v0nkli3do90YyS9Gfr9oNo8oe5FlX/AGvxft+kv3e0mmu1VTh1rVkAseYAj6TUrKfKAbGctvt2izQeY1bIqlG6/SRjC+hP5WN6r9pvBgQvu2tGw25FP9ZLX2kcBZwGOrQEHdqNh+RM5Z7kfeWXHMEG7Dfeexw52Xm5TjOMyXTplVKZ1Or2mcAK/H70rD/AJEuD2oeHQFJ97DZxjyDt67zldPDVGTY2fkYXRIzkIrDtyncyvbplspnVT7U/DqW/CutZQftLQAD+ZzLb+1ngiIxTTa5m+6CirzfrOYf2bWR6H0nptDUgAI5vT8owp8DKfJ0Ye1nhDHP9na4D/wAP5nvTe1bhLs3naLWVqCOUgK+R3PXbE50NHQF6LvKjQ1JgMoyRtiVdOk9iVKpydB4l7VOHJcU0OkvuRQOR2UJzHfOx6dv1kGr2sWDTnzuDqNRn4cWkqd+/eah7jQSA6/aGVBlbtKtFNlu2FX4d846RhT0sTepuzb/9K2sNVZHBVVvv5s269vwll/azxPqOEaYKB96xtprldXNpktuKICv3N/wEyFWipyvNWA/LjkaLU1sT+fI1/tD4/wARurfRmrRFVwwrAcP9eYH9JIq8aeJDphXdbSXU8zOEALLjGDj652wdpiE0a6HWrzAeTYvwCTNPpXYnmGAd94ljsglK/tkmjjPHbqtOur4lcyUMGQAKpG2MkgZPXvn17Tufg1Uv8O8N1LqHv8gA2EZY9s/pOG1JWwG5yCM56YnZvZmaz4YqNVjvl2JDDAU56D5S9FrMy6j9Dax0lYie08QiIgCIiADNW8dWh9LRowMl2LkfIdP3m0maR4280cSTl70jB/EzGvK0Ga0VeaOLeIKruG65zbWxqZvhciQzrKr6FoNgRV3GO86kdPTqagNRUro33WGZiOIeB+A6wlvKsocnbyW5RPGqkXqe3GS0NHGoVOVnIGOnfMuVaipUPI4VSS02Z/ZppCp924lqV26OQf6TEav2e8YoJWjUJagGQeXf6TROL3K3ktjC6G1We0WZQk5xnsczICyuqo2Ag4UbSP8A/keP0eZcKFcnAPK25+gke/QcZQMt2g1DKenKhOfyktLZkKX+EzS1JYvm2EczHdM4OJc1mlSmq66gEWHb7XQTFLZraPt6TUKQMgtSw2/KUs1zeW1dtThjjJ5TnaVxdy2SJlWna9y1jZwMqQesuW6FXVCHw4bIHy7yzo7GsHm+YqD0M9W60qFKk5YHdQTDvcXRJtqo96ro8v4+UknpJSrpxyqyDOcAfSYW3WudQLLA3wKOgIJ+sqOIagsGFTqAMj4T/EjEnJGW4fQbbHutsQ/3jKpHTBO2JLtqrrAChdyPu9ph9FbqtUW8nS3qvyQ7n5bTJ/2Vxe6jzUpYDIGLuYNg98YlXqWuiLxRqNIpyqtaX+Csn4diN5XQ3NZa2ocDYlRhu0VeCfEHFteGflXmOCeXAUfjNp4B7MtQj31cQ4myouy+7gZY+u+ZMsUtSmTuavfhnrtsKkIOXlB6y6mpd6x5NbWlmwAgzibnT7MdNTqg9mqsvTP+8/ibhw/g2i4dQtNFC4XPxFRvM5StoXOecA8N8R1ZS3VUmun59x851jwtQujqehV2Cjp0EjsAqgADEucAZq9bbWzZVskb/j/MtSnaorlasb02bHEoJWdM5oiIgCIiADNb8Z6Fr9HXqqwSaCeYAfdOM/tNknllDAgjIPYyk45xaLQljJM5Ur5AM9mxRjPabDxrwm6u13CuUg7+Qxxj6H+k1S826azy9ZS9DjqLFK//AGcmrSlDVHUpVIz0ZduvZThTKLxK9NgcCWRYvY5/CXVHN6eo+c8rb5PSkiRXxRsDIB9NpcOtDKua0z9BIRCkggnPp6SSiI/2oU5ck4RexK0/Eqa8PZRz5QIQO0seZw2zms9yXPMfuieBWvMV2wZd5FrXICkdMZk9yfJHbhwWXu0LAA6FMDcAoIou0in4dL025eXaXlFYGeQHP6T2BWPsrK5z5LYQ4LXkaOx2s91UMexGZPsTSXMrXaas8my4EsIay3JjPzleYKehUj1hVZckOlDgnJqa6/gQIgG220ui+srhgDn1mGclLOcKGVhnPzkpP7xRkY2HeSq0uSXSiZRdTWCACM4lTqUGSCcnrMabBX8Pf5zxVa1rYIwucZjvPQjtLUyS6r4v6z2dR6nI7THsGNilemMbS0b1VuRtioyWz0PpHcktSO2jIWals7EcsmcBzbxEsvRVJJ+fT+ZidLRq9a2NLUzDpzkYUfjNs4Pw0cPoYEhrnOXYdPoJ6+lpznNSeh5eqqQjDFamQErETsHKEREAREQBERAKYlu2iu5OS5Fdf+FlBH6y7EAw2q8L8H1Jy2jVG9amKftMXd4G0oOdNrdRX35WCsP6H9ZtsoZjKhTlqjSNapHRmhanwjxKos1NlN47fEVMj/2JxSgDzNG5H+GQ3+c6LgRiYS6Gk9DePW1Ecyu0msVia9Dq2x393f8AiY7V3cRqs34XrRgd9O/8Tr2IxM/r4cmnnz4OTafVam7AOg1aDHXyH6/lKNdqAd9Jq89v9Xc/0nWolfro/wBE/YS4OT13a5rV5eHa1VxksdM+P2k8pa5BXSagnuBS38TpErD+Nj/QXyEuDnQo1e3+o6pgW3Apbb9JISjVMNtDqs/9ojf8ZvsYEmPxsFuH8hJ7GgNwfi91oavTED/rIEyGn8Na0hTY1de+T8WZt+Imi6CktfZnLrqr0NY0fhPkLnVa+y7mOQqoFC/vMnpPD/DtLkpQHYksWsPMSfxmUErN49NSjpEwlXqS1Z5VFVQqgAegEqBiVibmQiIgCIiAIiIAiIgCIiAIiIAiIgCIiAIiIAiIgCIiAIiIAiIgCIiAIiIAiIgCIiAIiIAiIgCIiAIiIAiIgCIiAIiIAiIgCIiAIiIAiIgCIiAIiIB//9k=;labelBorderColor=none;clipPath=inset(16.22% 7.75% 16.22% 11.5%);container=0;rounded=0;" parent="ikJFBv8js-pOLj2k_Jm1-172" vertex="1">
          <mxGeometry x="0.5" y="131.22" width="99" height="57.56" as="geometry" />
        </mxCell>
        <mxCell id="ikJFBv8js-pOLj2k_Jm1-183" value="Hamburger $10.00" style="text;html=1;align=center;verticalAlign=middle;whiteSpace=wrap;rounded=0;fontSize=9;container=0;" parent="ikJFBv8js-pOLj2k_Jm1-172" vertex="1">
          <mxGeometry x="10" y="191.28" width="80" height="20" as="geometry" />
        </mxCell>
        <mxCell id="ikJFBv8js-pOLj2k_Jm1-184" value="" style="shape=cross;whiteSpace=wrap;html=1;fillColor=#b85450;strokeColor=#b85450;gradientColor=none;size=0.17777777777777715;aspect=fixed;container=0;rounded=0;" parent="ikJFBv8js-pOLj2k_Jm1-172" vertex="1">
          <mxGeometry x="80.5" y="115.28000000000003" width="15" height="15" as="geometry" />
        </mxCell>
        <mxCell id="ikJFBv8js-pOLj2k_Jm1-185" value="" style="rounded=0;whiteSpace=wrap;html=1;container=0;" parent="ikJFBv8js-pOLj2k_Jm1-172" vertex="1">
          <mxGeometry x="110" y="220.00000000000003" width="100" height="100" as="geometry" />
        </mxCell>
        <mxCell id="ikJFBv8js-pOLj2k_Jm1-186" value="" style="shape=image;verticalLabelPosition=bottom;labelBackgroundColor=default;verticalAlign=top;aspect=fixed;imageAspect=0;image=data:image/jpeg,/9j/4AAQSkZJRgABAQAAAQABAAD/2wCEAAkGBwgHBgkIBwgKCgkLDRYPDQwMDRsUFRAWIB0iIiAdHx8kKDQsJCYxJx8fLT0tMTU3Ojo6Iys/RD84QzQ5OjcBCgoKDQwNGg8PGjclHyU3Nzc3Nzc3Nzc3Nzc3Nzc3Nzc3Nzc3Nzc3Nzc3Nzc3Nzc3Nzc3Nzc3Nzc3Nzc3Nzc3N//AABEIAJQA1QMBIgACEQEDEQH/xAAbAAEAAQUBAAAAAAAAAAAAAAAABAEDBQYHAv/EAD4QAAICAQIEAwUHAQQLAQAAAAECAAMRBCEFEjFBBhNRBxQiYXEyQoGRobHRwRUjY+EXJDNDUlNic4KS8Rb/xAAaAQEAAwEBAQAAAAAAAAAAAAAAAQIDBQQG/8QAJhEAAgEDAwQCAwEAAAAAAAAAAAECAxESMUFRBBMUIQUVIjJSYf/aAAwDAQACEQMRAD8A7jERAEREAREQBERAEREAREQBERAEREAREQBERAEREAREQBERAEREAREQBESkArEs6nU06WprdRatVa9WY4EwGv8AGOg07cmmPvDd8HA/OUnUjD9mXjCU9EbLE0nVeM9XWodNCnIfvF/4ninxrqL2wK6kz6+v5zHy6XJr4tTg3mJodni7ianB06Kc43BO3rLw8XaghyHoKjo5GB+8jy6Q8WobtE1BPFWoNfNy1PkHHJLa+MLelgrR+6OpBWPLpcjxqnBucTTH8V6pcHlqKndcA7/KUHijXGotX5DtjoOo/WT5dLkeLU4N0iaOfFPEW5eRtGo75Pb+k9VeIeJs5Z7dMK9gMKdz8jHl0x4tQ3aJo48S8RDFLnWsgZY8gwJeTxPraw5tCNy7D4MZ+fXpHl0yfFqG5RNV0/ifU2BSdKp5h0GRPCeLLrFdk0qhEOGLN/nJ8qnyV8apwbbE0uvxhq2XzDpafK5sZ5yMfWTNH4w09gT3ms1lm5dj0+ohdVSe4fTVVsbREjaPW0aysWaexXQ9xJAm6aaujFq3plYiJJAiIgCIiADIXFtfVw3Q26u8/DWNgOpPYCTD0mg+0jiSP5PDlI5lYWsQd89hMq08INmlOGcrGB4zxvU8Va33uwVBcBagxwP85jEaso9TubFwOUIvX5fISM5BCYTHL3zkmSaEYElH5Fb4Sx7CcSc3J+zrxgkjzWXsZVNgwv8AzXPLiSURXWy02Up1wEzk+mO882VgH+7z6jI7STSlZrYWoS5GxXtMsjSxHK6lagWa4BxkcznDD85Pdvf0NhVaxSm+GzkypZ/JWguTWhygI6bTwlCg5AAJ6kSMraFkrkdC1Rym2fkJ7auzkWy1SQ+SCW6/OSDSGBA6y4ambk5ix5FwufSVuWsU01LrpmZ7QmmYZRA2/wD6yOFFbv5b8ynoXXMk+TgTz5fyhyZKRHqxYEr1FaVH4suPiB9PpL1Nenrqaq5UY83wEKGXPbB2IlwU5lWq6Z3x8pGQxKCi7T1tXqg/k2b87AM+fTJPSWE8tUZHRyR/s38zBX09ZJChXUsDydDjqPpLq1Vo9nKC6Wb4fqp+UnIjEx/n6hghZmLrtzYAI/ES4lliWFwRzN9oOBv85fNAbDdUU4btvPY5udXITnxys3L9oHsfWRk1uTii3UULMbn8sOA5A6ZHqvQz0Gr5rA1CHm+yQeh9d/2lBVnOdhglfrnpBQ7esnNjD0X9LbqdJbVq9OErYdFBwD8yPQzeOB8Yq4lSAxVdQFHOn8fKaI3PaQxIYqMY6ZGekkcPuOj1aamlSAm/If1nr6bqXCVtjydR0ynG+50jMS1RYLqUsXo6hh+MuzuJ3VzjCIiSBERAKHpOZeNKhVx61rKxiwBgfUYxOnGa74t4GeJ1JfplB1NQIAJxzKe08/U03OFkbUJqE7s5gKMjAG2ZOqoL19M/KXX0xo1Lae4GuwHo4wTLunYBRybA7zkOm7nUzRb5CORT+XpJVGnXy2cnfICj1l0Voy5PU95Rsoygbg7fSVdO3slTueFqJPSe/Ikute/fvPRQjrHaLd0i0UIy8wJPYZMveUFEkV1j6R7sXcry7desrgWzIzLtkjHTbvgw9HKSOu+JOr04CEkkt3Jnp6TnZdhI7bsT3DHrVt0g1Z7Seah1Ax8pTysynbsXUzHtT2nry9pNZOXGR1lDST02lcPZORCprZ6ruVsIh+PPTMCvp9ZPXTjJwOvX5y4+mAXmxvLODZCmkY4oAmAOnX6GUWrldW64OSJP8gnJGVON8HrPK1Y+1+frGBOaIBpw2RtAr5iQSeh/OT7KcAEj6bzwlLGwKq5LZwAcyVB3KuasbZwG7zuF0Z2KLyH8NpkZi+B6e/TaTlvAXJ+FR2mUHSfQ0b9tX1OBVtm7CIialBERAEo3rKyJxLX0cO0j6nUtyovoMkmQ3ZBe2cd9rXipK/Ea6PhyUu+nTl1VgB5ubqFz8h+806nxlrKGIs0/OR9kK+x+uZBusst1F1utLvqbXZ7HPdycn9Z5bTFK11BrPlkkA+v0nkli3do90YyS9Gfr9oNo8oe5FlX/AGvxft+kv3e0mmu1VTh1rVkAseYAj6TUrKfKAbGctvt2izQeY1bIqlG6/SRjC+hP5WN6r9pvBgQvu2tGw25FP9ZLX2kcBZwGOrQEHdqNh+RM5Z7kfeWXHMEG7Dfeexw52Xm5TjOMyXTplVKZ1Or2mcAK/H70rD/AJEuD2oeHQFJ97DZxjyDt67zldPDVGTY2fkYXRIzkIrDtyncyvbplspnVT7U/DqW/CutZQftLQAD+ZzLb+1ngiIxTTa5m+6CirzfrOYf2bWR6H0nptDUgAI5vT8owp8DKfJ0Ye1nhDHP9na4D/wAP5nvTe1bhLs3naLWVqCOUgK+R3PXbE50NHQF6LvKjQ1JgMoyRtiVdOk9iVKpydB4l7VOHJcU0OkvuRQOR2UJzHfOx6dv1kGr2sWDTnzuDqNRn4cWkqd+/eah7jQSA6/aGVBlbtKtFNlu2FX4d846RhT0sTepuzb/9K2sNVZHBVVvv5s269vwll/azxPqOEaYKB96xtprldXNpktuKICv3N/wEyFWipyvNWA/LjkaLU1sT+fI1/tD4/wARurfRmrRFVwwrAcP9eYH9JIq8aeJDphXdbSXU8zOEALLjGDj652wdpiE0a6HWrzAeTYvwCTNPpXYnmGAd94ljsglK/tkmjjPHbqtOur4lcyUMGQAKpG2MkgZPXvn17Tufg1Uv8O8N1LqHv8gA2EZY9s/pOG1JWwG5yCM56YnZvZmaz4YqNVjvl2JDDAU56D5S9FrMy6j9Dax0lYie08QiIgCIiADNW8dWh9LRowMl2LkfIdP3m0maR4280cSTl70jB/EzGvK0Ga0VeaOLeIKruG65zbWxqZvhciQzrKr6FoNgRV3GO86kdPTqagNRUro33WGZiOIeB+A6wlvKsocnbyW5RPGqkXqe3GS0NHGoVOVnIGOnfMuVaipUPI4VSS02Z/ZppCp924lqV26OQf6TEav2e8YoJWjUJagGQeXf6TROL3K3ktjC6G1We0WZQk5xnsczICyuqo2Ag4UbSP8A/keP0eZcKFcnAPK25+gke/QcZQMt2g1DKenKhOfyktLZkKX+EzS1JYvm2EczHdM4OJc1mlSmq66gEWHb7XQTFLZraPt6TUKQMgtSw2/KUs1zeW1dtThjjJ5TnaVxdy2SJlWna9y1jZwMqQesuW6FXVCHw4bIHy7yzo7GsHm+YqD0M9W60qFKk5YHdQTDvcXRJtqo96ro8v4+UknpJSrpxyqyDOcAfSYW3WudQLLA3wKOgIJ+sqOIagsGFTqAMj4T/EjEnJGW4fQbbHutsQ/3jKpHTBO2JLtqrrAChdyPu9ph9FbqtUW8nS3qvyQ7n5bTJ/2Vxe6jzUpYDIGLuYNg98YlXqWuiLxRqNIpyqtaX+Csn4diN5XQ3NZa2ocDYlRhu0VeCfEHFteGflXmOCeXAUfjNp4B7MtQj31cQ4myouy+7gZY+u+ZMsUtSmTuavfhnrtsKkIOXlB6y6mpd6x5NbWlmwAgzibnT7MdNTqg9mqsvTP+8/ibhw/g2i4dQtNFC4XPxFRvM5StoXOecA8N8R1ZS3VUmun59x851jwtQujqehV2Cjp0EjsAqgADEucAZq9bbWzZVskb/j/MtSnaorlasb02bHEoJWdM5oiIgCIiADNb8Z6Fr9HXqqwSaCeYAfdOM/tNknllDAgjIPYyk45xaLQljJM5Ur5AM9mxRjPabDxrwm6u13CuUg7+Qxxj6H+k1S826azy9ZS9DjqLFK//AGcmrSlDVHUpVIz0ZduvZThTKLxK9NgcCWRYvY5/CXVHN6eo+c8rb5PSkiRXxRsDIB9NpcOtDKua0z9BIRCkggnPp6SSiI/2oU5ck4RexK0/Eqa8PZRz5QIQO0seZw2zms9yXPMfuieBWvMV2wZd5FrXICkdMZk9yfJHbhwWXu0LAA6FMDcAoIou0in4dL025eXaXlFYGeQHP6T2BWPsrK5z5LYQ4LXkaOx2s91UMexGZPsTSXMrXaas8my4EsIay3JjPzleYKehUj1hVZckOlDgnJqa6/gQIgG220ui+srhgDn1mGclLOcKGVhnPzkpP7xRkY2HeSq0uSXSiZRdTWCACM4lTqUGSCcnrMabBX8Pf5zxVa1rYIwucZjvPQjtLUyS6r4v6z2dR6nI7THsGNilemMbS0b1VuRtioyWz0PpHcktSO2jIWals7EcsmcBzbxEsvRVJJ+fT+ZidLRq9a2NLUzDpzkYUfjNs4Pw0cPoYEhrnOXYdPoJ6+lpznNSeh5eqqQjDFamQErETsHKEREAREQBERAKYlu2iu5OS5Fdf+FlBH6y7EAw2q8L8H1Jy2jVG9amKftMXd4G0oOdNrdRX35WCsP6H9ZtsoZjKhTlqjSNapHRmhanwjxKos1NlN47fEVMj/2JxSgDzNG5H+GQ3+c6LgRiYS6Gk9DePW1Ecyu0msVia9Dq2x393f8AiY7V3cRqs34XrRgd9O/8Tr2IxM/r4cmnnz4OTafVam7AOg1aDHXyH6/lKNdqAd9Jq89v9Xc/0nWolfro/wBE/YS4OT13a5rV5eHa1VxksdM+P2k8pa5BXSagnuBS38TpErD+Nj/QXyEuDnQo1e3+o6pgW3Apbb9JISjVMNtDqs/9ojf8ZvsYEmPxsFuH8hJ7GgNwfi91oavTED/rIEyGn8Na0hTY1de+T8WZt+Imi6CktfZnLrqr0NY0fhPkLnVa+y7mOQqoFC/vMnpPD/DtLkpQHYksWsPMSfxmUErN49NSjpEwlXqS1Z5VFVQqgAegEqBiVibmQiIgCIiAIiIAiIgCIiAIiIAiIgCIiAIiIAiIgCIiAIiIAiIgCIiAIiIAiIgCIiAIiIAiIgCIiAIiIAiIgCIiAIiIAiIgCIiAIiIAiIgCIiAIiIB//9k=;labelBorderColor=none;clipPath=inset(16.22% 7.75% 16.22% 11.5%);container=0;rounded=0;" parent="ikJFBv8js-pOLj2k_Jm1-172" vertex="1">
          <mxGeometry x="110.5" y="241.22000000000006" width="99" height="57.56" as="geometry" />
        </mxCell>
        <mxCell id="ikJFBv8js-pOLj2k_Jm1-187" value="Hamburger $10.00" style="text;html=1;align=center;verticalAlign=middle;whiteSpace=wrap;rounded=0;fontSize=9;container=0;" parent="ikJFBv8js-pOLj2k_Jm1-172" vertex="1">
          <mxGeometry x="120" y="301.2800000000001" width="80" height="20" as="geometry" />
        </mxCell>
        <mxCell id="ikJFBv8js-pOLj2k_Jm1-188" value="" style="shape=cross;whiteSpace=wrap;html=1;fillColor=#b85450;strokeColor=#b85450;gradientColor=none;size=0.17777777777777715;aspect=fixed;container=0;rounded=0;" parent="ikJFBv8js-pOLj2k_Jm1-172" vertex="1">
          <mxGeometry x="190.5" y="225.28000000000006" width="15" height="15" as="geometry" />
        </mxCell>
        <mxCell id="ikJFBv8js-pOLj2k_Jm1-189" value="" style="rounded=0;whiteSpace=wrap;html=1;container=0;" parent="ikJFBv8js-pOLj2k_Jm1-172" vertex="1">
          <mxGeometry x="220" y="220.00000000000003" width="100" height="100" as="geometry" />
        </mxCell>
        <mxCell id="ikJFBv8js-pOLj2k_Jm1-190" value="" style="shape=image;verticalLabelPosition=bottom;labelBackgroundColor=default;verticalAlign=top;aspect=fixed;imageAspect=0;image=data:image/jpeg,/9j/4AAQSkZJRgABAQAAAQABAAD/2wCEAAkGBwgHBgkIBwgKCgkLDRYPDQwMDRsUFRAWIB0iIiAdHx8kKDQsJCYxJx8fLT0tMTU3Ojo6Iys/RD84QzQ5OjcBCgoKDQwNGg8PGjclHyU3Nzc3Nzc3Nzc3Nzc3Nzc3Nzc3Nzc3Nzc3Nzc3Nzc3Nzc3Nzc3Nzc3Nzc3Nzc3Nzc3N//AABEIAJQA1QMBIgACEQEDEQH/xAAbAAEAAQUBAAAAAAAAAAAAAAAABAEDBQYHAv/EAD4QAAICAQIEAwUHAQQLAQAAAAECAAMRBCEFEjFBBhNRBxQiYXEyQoGRobHRwRUjY+EXJDNDUlNic4KS8Rb/xAAaAQEAAwEBAQAAAAAAAAAAAAAAAQIDBQQG/8QAJhEAAgEDAwQCAwEAAAAAAAAAAAECAxESMUFRBBMUIQUVIjJSYf/aAAwDAQACEQMRAD8A7jERAEREAREQBERAEREAREQBERAEREAREQBERAEREAREQBERAEREAREQBESkArEs6nU06WprdRatVa9WY4EwGv8AGOg07cmmPvDd8HA/OUnUjD9mXjCU9EbLE0nVeM9XWodNCnIfvF/4ninxrqL2wK6kz6+v5zHy6XJr4tTg3mJodni7ianB06Kc43BO3rLw8XaghyHoKjo5GB+8jy6Q8WobtE1BPFWoNfNy1PkHHJLa+MLelgrR+6OpBWPLpcjxqnBucTTH8V6pcHlqKndcA7/KUHijXGotX5DtjoOo/WT5dLkeLU4N0iaOfFPEW5eRtGo75Pb+k9VeIeJs5Z7dMK9gMKdz8jHl0x4tQ3aJo48S8RDFLnWsgZY8gwJeTxPraw5tCNy7D4MZ+fXpHl0yfFqG5RNV0/ifU2BSdKp5h0GRPCeLLrFdk0qhEOGLN/nJ8qnyV8apwbbE0uvxhq2XzDpafK5sZ5yMfWTNH4w09gT3ms1lm5dj0+ohdVSe4fTVVsbREjaPW0aysWaexXQ9xJAm6aaujFq3plYiJJAiIgCIiADIXFtfVw3Q26u8/DWNgOpPYCTD0mg+0jiSP5PDlI5lYWsQd89hMq08INmlOGcrGB4zxvU8Va33uwVBcBagxwP85jEaso9TubFwOUIvX5fISM5BCYTHL3zkmSaEYElH5Fb4Sx7CcSc3J+zrxgkjzWXsZVNgwv8AzXPLiSURXWy02Up1wEzk+mO882VgH+7z6jI7STSlZrYWoS5GxXtMsjSxHK6lagWa4BxkcznDD85Pdvf0NhVaxSm+GzkypZ/JWguTWhygI6bTwlCg5AAJ6kSMraFkrkdC1Rym2fkJ7auzkWy1SQ+SCW6/OSDSGBA6y4ambk5ix5FwufSVuWsU01LrpmZ7QmmYZRA2/wD6yOFFbv5b8ynoXXMk+TgTz5fyhyZKRHqxYEr1FaVH4suPiB9PpL1Nenrqaq5UY83wEKGXPbB2IlwU5lWq6Z3x8pGQxKCi7T1tXqg/k2b87AM+fTJPSWE8tUZHRyR/s38zBX09ZJChXUsDydDjqPpLq1Vo9nKC6Wb4fqp+UnIjEx/n6hghZmLrtzYAI/ES4lliWFwRzN9oOBv85fNAbDdUU4btvPY5udXITnxys3L9oHsfWRk1uTii3UULMbn8sOA5A6ZHqvQz0Gr5rA1CHm+yQeh9d/2lBVnOdhglfrnpBQ7esnNjD0X9LbqdJbVq9OErYdFBwD8yPQzeOB8Yq4lSAxVdQFHOn8fKaI3PaQxIYqMY6ZGekkcPuOj1aamlSAm/If1nr6bqXCVtjydR0ynG+50jMS1RYLqUsXo6hh+MuzuJ3VzjCIiSBERAKHpOZeNKhVx61rKxiwBgfUYxOnGa74t4GeJ1JfplB1NQIAJxzKe08/U03OFkbUJqE7s5gKMjAG2ZOqoL19M/KXX0xo1Lae4GuwHo4wTLunYBRybA7zkOm7nUzRb5CORT+XpJVGnXy2cnfICj1l0Voy5PU95Rsoygbg7fSVdO3slTueFqJPSe/Ikute/fvPRQjrHaLd0i0UIy8wJPYZMveUFEkV1j6R7sXcry7desrgWzIzLtkjHTbvgw9HKSOu+JOr04CEkkt3Jnp6TnZdhI7bsT3DHrVt0g1Z7Seah1Ax8pTysynbsXUzHtT2nry9pNZOXGR1lDST02lcPZORCprZ6ruVsIh+PPTMCvp9ZPXTjJwOvX5y4+mAXmxvLODZCmkY4oAmAOnX6GUWrldW64OSJP8gnJGVON8HrPK1Y+1+frGBOaIBpw2RtAr5iQSeh/OT7KcAEj6bzwlLGwKq5LZwAcyVB3KuasbZwG7zuF0Z2KLyH8NpkZi+B6e/TaTlvAXJ+FR2mUHSfQ0b9tX1OBVtm7CIialBERAEo3rKyJxLX0cO0j6nUtyovoMkmQ3ZBe2cd9rXipK/Ea6PhyUu+nTl1VgB5ubqFz8h+806nxlrKGIs0/OR9kK+x+uZBusst1F1utLvqbXZ7HPdycn9Z5bTFK11BrPlkkA+v0nkli3do90YyS9Gfr9oNo8oe5FlX/AGvxft+kv3e0mmu1VTh1rVkAseYAj6TUrKfKAbGctvt2izQeY1bIqlG6/SRjC+hP5WN6r9pvBgQvu2tGw25FP9ZLX2kcBZwGOrQEHdqNh+RM5Z7kfeWXHMEG7Dfeexw52Xm5TjOMyXTplVKZ1Or2mcAK/H70rD/AJEuD2oeHQFJ97DZxjyDt67zldPDVGTY2fkYXRIzkIrDtyncyvbplspnVT7U/DqW/CutZQftLQAD+ZzLb+1ngiIxTTa5m+6CirzfrOYf2bWR6H0nptDUgAI5vT8owp8DKfJ0Ye1nhDHP9na4D/wAP5nvTe1bhLs3naLWVqCOUgK+R3PXbE50NHQF6LvKjQ1JgMoyRtiVdOk9iVKpydB4l7VOHJcU0OkvuRQOR2UJzHfOx6dv1kGr2sWDTnzuDqNRn4cWkqd+/eah7jQSA6/aGVBlbtKtFNlu2FX4d846RhT0sTepuzb/9K2sNVZHBVVvv5s269vwll/azxPqOEaYKB96xtprldXNpktuKICv3N/wEyFWipyvNWA/LjkaLU1sT+fI1/tD4/wARurfRmrRFVwwrAcP9eYH9JIq8aeJDphXdbSXU8zOEALLjGDj652wdpiE0a6HWrzAeTYvwCTNPpXYnmGAd94ljsglK/tkmjjPHbqtOur4lcyUMGQAKpG2MkgZPXvn17Tufg1Uv8O8N1LqHv8gA2EZY9s/pOG1JWwG5yCM56YnZvZmaz4YqNVjvl2JDDAU56D5S9FrMy6j9Dax0lYie08QiIgCIiADNW8dWh9LRowMl2LkfIdP3m0maR4280cSTl70jB/EzGvK0Ga0VeaOLeIKruG65zbWxqZvhciQzrKr6FoNgRV3GO86kdPTqagNRUro33WGZiOIeB+A6wlvKsocnbyW5RPGqkXqe3GS0NHGoVOVnIGOnfMuVaipUPI4VSS02Z/ZppCp924lqV26OQf6TEav2e8YoJWjUJagGQeXf6TROL3K3ktjC6G1We0WZQk5xnsczICyuqo2Ag4UbSP8A/keP0eZcKFcnAPK25+gke/QcZQMt2g1DKenKhOfyktLZkKX+EzS1JYvm2EczHdM4OJc1mlSmq66gEWHb7XQTFLZraPt6TUKQMgtSw2/KUs1zeW1dtThjjJ5TnaVxdy2SJlWna9y1jZwMqQesuW6FXVCHw4bIHy7yzo7GsHm+YqD0M9W60qFKk5YHdQTDvcXRJtqo96ro8v4+UknpJSrpxyqyDOcAfSYW3WudQLLA3wKOgIJ+sqOIagsGFTqAMj4T/EjEnJGW4fQbbHutsQ/3jKpHTBO2JLtqrrAChdyPu9ph9FbqtUW8nS3qvyQ7n5bTJ/2Vxe6jzUpYDIGLuYNg98YlXqWuiLxRqNIpyqtaX+Csn4diN5XQ3NZa2ocDYlRhu0VeCfEHFteGflXmOCeXAUfjNp4B7MtQj31cQ4myouy+7gZY+u+ZMsUtSmTuavfhnrtsKkIOXlB6y6mpd6x5NbWlmwAgzibnT7MdNTqg9mqsvTP+8/ibhw/g2i4dQtNFC4XPxFRvM5StoXOecA8N8R1ZS3VUmun59x851jwtQujqehV2Cjp0EjsAqgADEucAZq9bbWzZVskb/j/MtSnaorlasb02bHEoJWdM5oiIgCIiADNb8Z6Fr9HXqqwSaCeYAfdOM/tNknllDAgjIPYyk45xaLQljJM5Ur5AM9mxRjPabDxrwm6u13CuUg7+Qxxj6H+k1S826azy9ZS9DjqLFK//AGcmrSlDVHUpVIz0ZduvZThTKLxK9NgcCWRYvY5/CXVHN6eo+c8rb5PSkiRXxRsDIB9NpcOtDKua0z9BIRCkggnPp6SSiI/2oU5ck4RexK0/Eqa8PZRz5QIQO0seZw2zms9yXPMfuieBWvMV2wZd5FrXICkdMZk9yfJHbhwWXu0LAA6FMDcAoIou0in4dL025eXaXlFYGeQHP6T2BWPsrK5z5LYQ4LXkaOx2s91UMexGZPsTSXMrXaas8my4EsIay3JjPzleYKehUj1hVZckOlDgnJqa6/gQIgG220ui+srhgDn1mGclLOcKGVhnPzkpP7xRkY2HeSq0uSXSiZRdTWCACM4lTqUGSCcnrMabBX8Pf5zxVa1rYIwucZjvPQjtLUyS6r4v6z2dR6nI7THsGNilemMbS0b1VuRtioyWz0PpHcktSO2jIWals7EcsmcBzbxEsvRVJJ+fT+ZidLRq9a2NLUzDpzkYUfjNs4Pw0cPoYEhrnOXYdPoJ6+lpznNSeh5eqqQjDFamQErETsHKEREAREQBERAKYlu2iu5OS5Fdf+FlBH6y7EAw2q8L8H1Jy2jVG9amKftMXd4G0oOdNrdRX35WCsP6H9ZtsoZjKhTlqjSNapHRmhanwjxKos1NlN47fEVMj/2JxSgDzNG5H+GQ3+c6LgRiYS6Gk9DePW1Ecyu0msVia9Dq2x393f8AiY7V3cRqs34XrRgd9O/8Tr2IxM/r4cmnnz4OTafVam7AOg1aDHXyH6/lKNdqAd9Jq89v9Xc/0nWolfro/wBE/YS4OT13a5rV5eHa1VxksdM+P2k8pa5BXSagnuBS38TpErD+Nj/QXyEuDnQo1e3+o6pgW3Apbb9JISjVMNtDqs/9ojf8ZvsYEmPxsFuH8hJ7GgNwfi91oavTED/rIEyGn8Na0hTY1de+T8WZt+Imi6CktfZnLrqr0NY0fhPkLnVa+y7mOQqoFC/vMnpPD/DtLkpQHYksWsPMSfxmUErN49NSjpEwlXqS1Z5VFVQqgAegEqBiVibmQiIgCIiAIiIAiIgCIiAIiIAiIgCIiAIiIAiIgCIiAIiIAiIgCIiAIiIAiIgCIiAIiIAiIgCIiAIiIAiIgCIiAIiIAiIgCIiAIiIAiIgCIiAIiIB//9k=;labelBorderColor=none;clipPath=inset(16.22% 7.75% 16.22% 11.5%);container=0;rounded=0;" parent="ikJFBv8js-pOLj2k_Jm1-172" vertex="1">
          <mxGeometry x="220.5" y="241.22000000000006" width="99" height="57.56" as="geometry" />
        </mxCell>
        <mxCell id="ikJFBv8js-pOLj2k_Jm1-191" value="Hamburger $10.00" style="text;html=1;align=center;verticalAlign=middle;whiteSpace=wrap;rounded=0;fontSize=9;container=0;" parent="ikJFBv8js-pOLj2k_Jm1-172" vertex="1">
          <mxGeometry x="230" y="301.2800000000001" width="80" height="20" as="geometry" />
        </mxCell>
        <mxCell id="ikJFBv8js-pOLj2k_Jm1-193" value="" style="rounded=0;whiteSpace=wrap;html=1;container=0;" parent="ikJFBv8js-pOLj2k_Jm1-172" vertex="1">
          <mxGeometry y="220.00000000000003" width="100" height="100" as="geometry" />
        </mxCell>
        <mxCell id="ikJFBv8js-pOLj2k_Jm1-194" value="" style="shape=image;verticalLabelPosition=bottom;labelBackgroundColor=default;verticalAlign=top;aspect=fixed;imageAspect=0;image=data:image/jpeg,/9j/4AAQSkZJRgABAQAAAQABAAD/2wCEAAkGBwgHBgkIBwgKCgkLDRYPDQwMDRsUFRAWIB0iIiAdHx8kKDQsJCYxJx8fLT0tMTU3Ojo6Iys/RD84QzQ5OjcBCgoKDQwNGg8PGjclHyU3Nzc3Nzc3Nzc3Nzc3Nzc3Nzc3Nzc3Nzc3Nzc3Nzc3Nzc3Nzc3Nzc3Nzc3Nzc3Nzc3N//AABEIAJQA1QMBIgACEQEDEQH/xAAbAAEAAQUBAAAAAAAAAAAAAAAABAEDBQYHAv/EAD4QAAICAQIEAwUHAQQLAQAAAAECAAMRBCEFEjFBBhNRBxQiYXEyQoGRobHRwRUjY+EXJDNDUlNic4KS8Rb/xAAaAQEAAwEBAQAAAAAAAAAAAAAAAQIDBQQG/8QAJhEAAgEDAwQCAwEAAAAAAAAAAAECAxESMUFRBBMUIQUVIjJSYf/aAAwDAQACEQMRAD8A7jERAEREAREQBERAEREAREQBERAEREAREQBERAEREAREQBERAEREAREQBESkArEs6nU06WprdRatVa9WY4EwGv8AGOg07cmmPvDd8HA/OUnUjD9mXjCU9EbLE0nVeM9XWodNCnIfvF/4ninxrqL2wK6kz6+v5zHy6XJr4tTg3mJodni7ianB06Kc43BO3rLw8XaghyHoKjo5GB+8jy6Q8WobtE1BPFWoNfNy1PkHHJLa+MLelgrR+6OpBWPLpcjxqnBucTTH8V6pcHlqKndcA7/KUHijXGotX5DtjoOo/WT5dLkeLU4N0iaOfFPEW5eRtGo75Pb+k9VeIeJs5Z7dMK9gMKdz8jHl0x4tQ3aJo48S8RDFLnWsgZY8gwJeTxPraw5tCNy7D4MZ+fXpHl0yfFqG5RNV0/ifU2BSdKp5h0GRPCeLLrFdk0qhEOGLN/nJ8qnyV8apwbbE0uvxhq2XzDpafK5sZ5yMfWTNH4w09gT3ms1lm5dj0+ohdVSe4fTVVsbREjaPW0aysWaexXQ9xJAm6aaujFq3plYiJJAiIgCIiADIXFtfVw3Q26u8/DWNgOpPYCTD0mg+0jiSP5PDlI5lYWsQd89hMq08INmlOGcrGB4zxvU8Va33uwVBcBagxwP85jEaso9TubFwOUIvX5fISM5BCYTHL3zkmSaEYElH5Fb4Sx7CcSc3J+zrxgkjzWXsZVNgwv8AzXPLiSURXWy02Up1wEzk+mO882VgH+7z6jI7STSlZrYWoS5GxXtMsjSxHK6lagWa4BxkcznDD85Pdvf0NhVaxSm+GzkypZ/JWguTWhygI6bTwlCg5AAJ6kSMraFkrkdC1Rym2fkJ7auzkWy1SQ+SCW6/OSDSGBA6y4ambk5ix5FwufSVuWsU01LrpmZ7QmmYZRA2/wD6yOFFbv5b8ynoXXMk+TgTz5fyhyZKRHqxYEr1FaVH4suPiB9PpL1Nenrqaq5UY83wEKGXPbB2IlwU5lWq6Z3x8pGQxKCi7T1tXqg/k2b87AM+fTJPSWE8tUZHRyR/s38zBX09ZJChXUsDydDjqPpLq1Vo9nKC6Wb4fqp+UnIjEx/n6hghZmLrtzYAI/ES4lliWFwRzN9oOBv85fNAbDdUU4btvPY5udXITnxys3L9oHsfWRk1uTii3UULMbn8sOA5A6ZHqvQz0Gr5rA1CHm+yQeh9d/2lBVnOdhglfrnpBQ7esnNjD0X9LbqdJbVq9OErYdFBwD8yPQzeOB8Yq4lSAxVdQFHOn8fKaI3PaQxIYqMY6ZGekkcPuOj1aamlSAm/If1nr6bqXCVtjydR0ynG+50jMS1RYLqUsXo6hh+MuzuJ3VzjCIiSBERAKHpOZeNKhVx61rKxiwBgfUYxOnGa74t4GeJ1JfplB1NQIAJxzKe08/U03OFkbUJqE7s5gKMjAG2ZOqoL19M/KXX0xo1Lae4GuwHo4wTLunYBRybA7zkOm7nUzRb5CORT+XpJVGnXy2cnfICj1l0Voy5PU95Rsoygbg7fSVdO3slTueFqJPSe/Ikute/fvPRQjrHaLd0i0UIy8wJPYZMveUFEkV1j6R7sXcry7desrgWzIzLtkjHTbvgw9HKSOu+JOr04CEkkt3Jnp6TnZdhI7bsT3DHrVt0g1Z7Seah1Ax8pTysynbsXUzHtT2nry9pNZOXGR1lDST02lcPZORCprZ6ruVsIh+PPTMCvp9ZPXTjJwOvX5y4+mAXmxvLODZCmkY4oAmAOnX6GUWrldW64OSJP8gnJGVON8HrPK1Y+1+frGBOaIBpw2RtAr5iQSeh/OT7KcAEj6bzwlLGwKq5LZwAcyVB3KuasbZwG7zuF0Z2KLyH8NpkZi+B6e/TaTlvAXJ+FR2mUHSfQ0b9tX1OBVtm7CIialBERAEo3rKyJxLX0cO0j6nUtyovoMkmQ3ZBe2cd9rXipK/Ea6PhyUu+nTl1VgB5ubqFz8h+806nxlrKGIs0/OR9kK+x+uZBusst1F1utLvqbXZ7HPdycn9Z5bTFK11BrPlkkA+v0nkli3do90YyS9Gfr9oNo8oe5FlX/AGvxft+kv3e0mmu1VTh1rVkAseYAj6TUrKfKAbGctvt2izQeY1bIqlG6/SRjC+hP5WN6r9pvBgQvu2tGw25FP9ZLX2kcBZwGOrQEHdqNh+RM5Z7kfeWXHMEG7Dfeexw52Xm5TjOMyXTplVKZ1Or2mcAK/H70rD/AJEuD2oeHQFJ97DZxjyDt67zldPDVGTY2fkYXRIzkIrDtyncyvbplspnVT7U/DqW/CutZQftLQAD+ZzLb+1ngiIxTTa5m+6CirzfrOYf2bWR6H0nptDUgAI5vT8owp8DKfJ0Ye1nhDHP9na4D/wAP5nvTe1bhLs3naLWVqCOUgK+R3PXbE50NHQF6LvKjQ1JgMoyRtiVdOk9iVKpydB4l7VOHJcU0OkvuRQOR2UJzHfOx6dv1kGr2sWDTnzuDqNRn4cWkqd+/eah7jQSA6/aGVBlbtKtFNlu2FX4d846RhT0sTepuzb/9K2sNVZHBVVvv5s269vwll/azxPqOEaYKB96xtprldXNpktuKICv3N/wEyFWipyvNWA/LjkaLU1sT+fI1/tD4/wARurfRmrRFVwwrAcP9eYH9JIq8aeJDphXdbSXU8zOEALLjGDj652wdpiE0a6HWrzAeTYvwCTNPpXYnmGAd94ljsglK/tkmjjPHbqtOur4lcyUMGQAKpG2MkgZPXvn17Tufg1Uv8O8N1LqHv8gA2EZY9s/pOG1JWwG5yCM56YnZvZmaz4YqNVjvl2JDDAU56D5S9FrMy6j9Dax0lYie08QiIgCIiADNW8dWh9LRowMl2LkfIdP3m0maR4280cSTl70jB/EzGvK0Ga0VeaOLeIKruG65zbWxqZvhciQzrKr6FoNgRV3GO86kdPTqagNRUro33WGZiOIeB+A6wlvKsocnbyW5RPGqkXqe3GS0NHGoVOVnIGOnfMuVaipUPI4VSS02Z/ZppCp924lqV26OQf6TEav2e8YoJWjUJagGQeXf6TROL3K3ktjC6G1We0WZQk5xnsczICyuqo2Ag4UbSP8A/keP0eZcKFcnAPK25+gke/QcZQMt2g1DKenKhOfyktLZkKX+EzS1JYvm2EczHdM4OJc1mlSmq66gEWHb7XQTFLZraPt6TUKQMgtSw2/KUs1zeW1dtThjjJ5TnaVxdy2SJlWna9y1jZwMqQesuW6FXVCHw4bIHy7yzo7GsHm+YqD0M9W60qFKk5YHdQTDvcXRJtqo96ro8v4+UknpJSrpxyqyDOcAfSYW3WudQLLA3wKOgIJ+sqOIagsGFTqAMj4T/EjEnJGW4fQbbHutsQ/3jKpHTBO2JLtqrrAChdyPu9ph9FbqtUW8nS3qvyQ7n5bTJ/2Vxe6jzUpYDIGLuYNg98YlXqWuiLxRqNIpyqtaX+Csn4diN5XQ3NZa2ocDYlRhu0VeCfEHFteGflXmOCeXAUfjNp4B7MtQj31cQ4myouy+7gZY+u+ZMsUtSmTuavfhnrtsKkIOXlB6y6mpd6x5NbWlmwAgzibnT7MdNTqg9mqsvTP+8/ibhw/g2i4dQtNFC4XPxFRvM5StoXOecA8N8R1ZS3VUmun59x851jwtQujqehV2Cjp0EjsAqgADEucAZq9bbWzZVskb/j/MtSnaorlasb02bHEoJWdM5oiIgCIiADNb8Z6Fr9HXqqwSaCeYAfdOM/tNknllDAgjIPYyk45xaLQljJM5Ur5AM9mxRjPabDxrwm6u13CuUg7+Qxxj6H+k1S826azy9ZS9DjqLFK//AGcmrSlDVHUpVIz0ZduvZThTKLxK9NgcCWRYvY5/CXVHN6eo+c8rb5PSkiRXxRsDIB9NpcOtDKua0z9BIRCkggnPp6SSiI/2oU5ck4RexK0/Eqa8PZRz5QIQO0seZw2zms9yXPMfuieBWvMV2wZd5FrXICkdMZk9yfJHbhwWXu0LAA6FMDcAoIou0in4dL025eXaXlFYGeQHP6T2BWPsrK5z5LYQ4LXkaOx2s91UMexGZPsTSXMrXaas8my4EsIay3JjPzleYKehUj1hVZckOlDgnJqa6/gQIgG220ui+srhgDn1mGclLOcKGVhnPzkpP7xRkY2HeSq0uSXSiZRdTWCACM4lTqUGSCcnrMabBX8Pf5zxVa1rYIwucZjvPQjtLUyS6r4v6z2dR6nI7THsGNilemMbS0b1VuRtioyWz0PpHcktSO2jIWals7EcsmcBzbxEsvRVJJ+fT+ZidLRq9a2NLUzDpzkYUfjNs4Pw0cPoYEhrnOXYdPoJ6+lpznNSeh5eqqQjDFamQErETsHKEREAREQBERAKYlu2iu5OS5Fdf+FlBH6y7EAw2q8L8H1Jy2jVG9amKftMXd4G0oOdNrdRX35WCsP6H9ZtsoZjKhTlqjSNapHRmhanwjxKos1NlN47fEVMj/2JxSgDzNG5H+GQ3+c6LgRiYS6Gk9DePW1Ecyu0msVia9Dq2x393f8AiY7V3cRqs34XrRgd9O/8Tr2IxM/r4cmnnz4OTafVam7AOg1aDHXyH6/lKNdqAd9Jq89v9Xc/0nWolfro/wBE/YS4OT13a5rV5eHa1VxksdM+P2k8pa5BXSagnuBS38TpErD+Nj/QXyEuDnQo1e3+o6pgW3Apbb9JISjVMNtDqs/9ojf8ZvsYEmPxsFuH8hJ7GgNwfi91oavTED/rIEyGn8Na0hTY1de+T8WZt+Imi6CktfZnLrqr0NY0fhPkLnVa+y7mOQqoFC/vMnpPD/DtLkpQHYksWsPMSfxmUErN49NSjpEwlXqS1Z5VFVQqgAegEqBiVibmQiIgCIiAIiIAiIgCIiAIiIAiIgCIiAIiIAiIgCIiAIiIAiIgCIiAIiIAiIgCIiAIiIAiIgCIiAIiIAiIgCIiAIiIAiIgCIiAIiIAiIgCIiAIiIB//9k=;labelBorderColor=none;clipPath=inset(16.22% 7.75% 16.22% 11.5%);container=0;rounded=0;" parent="ikJFBv8js-pOLj2k_Jm1-172" vertex="1">
          <mxGeometry x="0.5" y="241.22000000000006" width="99" height="57.56" as="geometry" />
        </mxCell>
        <mxCell id="ikJFBv8js-pOLj2k_Jm1-195" value="Hamburger $10.00" style="text;html=1;align=center;verticalAlign=middle;whiteSpace=wrap;rounded=0;fontSize=9;container=0;" parent="ikJFBv8js-pOLj2k_Jm1-172" vertex="1">
          <mxGeometry x="10" y="301.2800000000001" width="80" height="20" as="geometry" />
        </mxCell>
        <mxCell id="ikJFBv8js-pOLj2k_Jm1-196" value="" style="shape=cross;whiteSpace=wrap;html=1;fillColor=#b85450;strokeColor=#b85450;gradientColor=none;size=0.17777777777777715;aspect=fixed;container=0;rounded=0;" parent="ikJFBv8js-pOLj2k_Jm1-172" vertex="1">
          <mxGeometry x="80.5" y="225.28000000000006" width="15" height="15" as="geometry" />
        </mxCell>
        <mxCell id="ikJFBv8js-pOLj2k_Jm1-197" value="" style="rounded=0;whiteSpace=wrap;html=1;container=0;" parent="ikJFBv8js-pOLj2k_Jm1-172" vertex="1">
          <mxGeometry x="110" y="2.842170943040401e-14" width="100" height="100" as="geometry" />
        </mxCell>
        <mxCell id="ikJFBv8js-pOLj2k_Jm1-198" value="" style="shape=image;verticalLabelPosition=bottom;labelBackgroundColor=default;verticalAlign=top;aspect=fixed;imageAspect=0;image=data:image/jpeg,/9j/4AAQSkZJRgABAQAAAQABAAD/2wCEAAkGBwgHBgkIBwgKCgkLDRYPDQwMDRsUFRAWIB0iIiAdHx8kKDQsJCYxJx8fLT0tMTU3Ojo6Iys/RD84QzQ5OjcBCgoKDQwNGg8PGjclHyU3Nzc3Nzc3Nzc3Nzc3Nzc3Nzc3Nzc3Nzc3Nzc3Nzc3Nzc3Nzc3Nzc3Nzc3Nzc3Nzc3N//AABEIAJQA1QMBIgACEQEDEQH/xAAbAAEAAQUBAAAAAAAAAAAAAAAABAEDBQYHAv/EAD4QAAICAQIEAwUHAQQLAQAAAAECAAMRBCEFEjFBBhNRBxQiYXEyQoGRobHRwRUjY+EXJDNDUlNic4KS8Rb/xAAaAQEAAwEBAQAAAAAAAAAAAAAAAQIDBQQG/8QAJhEAAgEDAwQCAwEAAAAAAAAAAAECAxESMUFRBBMUIQUVIjJSYf/aAAwDAQACEQMRAD8A7jERAEREAREQBERAEREAREQBERAEREAREQBERAEREAREQBERAEREAREQBESkArEs6nU06WprdRatVa9WY4EwGv8AGOg07cmmPvDd8HA/OUnUjD9mXjCU9EbLE0nVeM9XWodNCnIfvF/4ninxrqL2wK6kz6+v5zHy6XJr4tTg3mJodni7ianB06Kc43BO3rLw8XaghyHoKjo5GB+8jy6Q8WobtE1BPFWoNfNy1PkHHJLa+MLelgrR+6OpBWPLpcjxqnBucTTH8V6pcHlqKndcA7/KUHijXGotX5DtjoOo/WT5dLkeLU4N0iaOfFPEW5eRtGo75Pb+k9VeIeJs5Z7dMK9gMKdz8jHl0x4tQ3aJo48S8RDFLnWsgZY8gwJeTxPraw5tCNy7D4MZ+fXpHl0yfFqG5RNV0/ifU2BSdKp5h0GRPCeLLrFdk0qhEOGLN/nJ8qnyV8apwbbE0uvxhq2XzDpafK5sZ5yMfWTNH4w09gT3ms1lm5dj0+ohdVSe4fTVVsbREjaPW0aysWaexXQ9xJAm6aaujFq3plYiJJAiIgCIiADIXFtfVw3Q26u8/DWNgOpPYCTD0mg+0jiSP5PDlI5lYWsQd89hMq08INmlOGcrGB4zxvU8Va33uwVBcBagxwP85jEaso9TubFwOUIvX5fISM5BCYTHL3zkmSaEYElH5Fb4Sx7CcSc3J+zrxgkjzWXsZVNgwv8AzXPLiSURXWy02Up1wEzk+mO882VgH+7z6jI7STSlZrYWoS5GxXtMsjSxHK6lagWa4BxkcznDD85Pdvf0NhVaxSm+GzkypZ/JWguTWhygI6bTwlCg5AAJ6kSMraFkrkdC1Rym2fkJ7auzkWy1SQ+SCW6/OSDSGBA6y4ambk5ix5FwufSVuWsU01LrpmZ7QmmYZRA2/wD6yOFFbv5b8ynoXXMk+TgTz5fyhyZKRHqxYEr1FaVH4suPiB9PpL1Nenrqaq5UY83wEKGXPbB2IlwU5lWq6Z3x8pGQxKCi7T1tXqg/k2b87AM+fTJPSWE8tUZHRyR/s38zBX09ZJChXUsDydDjqPpLq1Vo9nKC6Wb4fqp+UnIjEx/n6hghZmLrtzYAI/ES4lliWFwRzN9oOBv85fNAbDdUU4btvPY5udXITnxys3L9oHsfWRk1uTii3UULMbn8sOA5A6ZHqvQz0Gr5rA1CHm+yQeh9d/2lBVnOdhglfrnpBQ7esnNjD0X9LbqdJbVq9OErYdFBwD8yPQzeOB8Yq4lSAxVdQFHOn8fKaI3PaQxIYqMY6ZGekkcPuOj1aamlSAm/If1nr6bqXCVtjydR0ynG+50jMS1RYLqUsXo6hh+MuzuJ3VzjCIiSBERAKHpOZeNKhVx61rKxiwBgfUYxOnGa74t4GeJ1JfplB1NQIAJxzKe08/U03OFkbUJqE7s5gKMjAG2ZOqoL19M/KXX0xo1Lae4GuwHo4wTLunYBRybA7zkOm7nUzRb5CORT+XpJVGnXy2cnfICj1l0Voy5PU95Rsoygbg7fSVdO3slTueFqJPSe/Ikute/fvPRQjrHaLd0i0UIy8wJPYZMveUFEkV1j6R7sXcry7desrgWzIzLtkjHTbvgw9HKSOu+JOr04CEkkt3Jnp6TnZdhI7bsT3DHrVt0g1Z7Seah1Ax8pTysynbsXUzHtT2nry9pNZOXGR1lDST02lcPZORCprZ6ruVsIh+PPTMCvp9ZPXTjJwOvX5y4+mAXmxvLODZCmkY4oAmAOnX6GUWrldW64OSJP8gnJGVON8HrPK1Y+1+frGBOaIBpw2RtAr5iQSeh/OT7KcAEj6bzwlLGwKq5LZwAcyVB3KuasbZwG7zuF0Z2KLyH8NpkZi+B6e/TaTlvAXJ+FR2mUHSfQ0b9tX1OBVtm7CIialBERAEo3rKyJxLX0cO0j6nUtyovoMkmQ3ZBe2cd9rXipK/Ea6PhyUu+nTl1VgB5ubqFz8h+806nxlrKGIs0/OR9kK+x+uZBusst1F1utLvqbXZ7HPdycn9Z5bTFK11BrPlkkA+v0nkli3do90YyS9Gfr9oNo8oe5FlX/AGvxft+kv3e0mmu1VTh1rVkAseYAj6TUrKfKAbGctvt2izQeY1bIqlG6/SRjC+hP5WN6r9pvBgQvu2tGw25FP9ZLX2kcBZwGOrQEHdqNh+RM5Z7kfeWXHMEG7Dfeexw52Xm5TjOMyXTplVKZ1Or2mcAK/H70rD/AJEuD2oeHQFJ97DZxjyDt67zldPDVGTY2fkYXRIzkIrDtyncyvbplspnVT7U/DqW/CutZQftLQAD+ZzLb+1ngiIxTTa5m+6CirzfrOYf2bWR6H0nptDUgAI5vT8owp8DKfJ0Ye1nhDHP9na4D/wAP5nvTe1bhLs3naLWVqCOUgK+R3PXbE50NHQF6LvKjQ1JgMoyRtiVdOk9iVKpydB4l7VOHJcU0OkvuRQOR2UJzHfOx6dv1kGr2sWDTnzuDqNRn4cWkqd+/eah7jQSA6/aGVBlbtKtFNlu2FX4d846RhT0sTepuzb/9K2sNVZHBVVvv5s269vwll/azxPqOEaYKB96xtprldXNpktuKICv3N/wEyFWipyvNWA/LjkaLU1sT+fI1/tD4/wARurfRmrRFVwwrAcP9eYH9JIq8aeJDphXdbSXU8zOEALLjGDj652wdpiE0a6HWrzAeTYvwCTNPpXYnmGAd94ljsglK/tkmjjPHbqtOur4lcyUMGQAKpG2MkgZPXvn17Tufg1Uv8O8N1LqHv8gA2EZY9s/pOG1JWwG5yCM56YnZvZmaz4YqNVjvl2JDDAU56D5S9FrMy6j9Dax0lYie08QiIgCIiADNW8dWh9LRowMl2LkfIdP3m0maR4280cSTl70jB/EzGvK0Ga0VeaOLeIKruG65zbWxqZvhciQzrKr6FoNgRV3GO86kdPTqagNRUro33WGZiOIeB+A6wlvKsocnbyW5RPGqkXqe3GS0NHGoVOVnIGOnfMuVaipUPI4VSS02Z/ZppCp924lqV26OQf6TEav2e8YoJWjUJagGQeXf6TROL3K3ktjC6G1We0WZQk5xnsczICyuqo2Ag4UbSP8A/keP0eZcKFcnAPK25+gke/QcZQMt2g1DKenKhOfyktLZkKX+EzS1JYvm2EczHdM4OJc1mlSmq66gEWHb7XQTFLZraPt6TUKQMgtSw2/KUs1zeW1dtThjjJ5TnaVxdy2SJlWna9y1jZwMqQesuW6FXVCHw4bIHy7yzo7GsHm+YqD0M9W60qFKk5YHdQTDvcXRJtqo96ro8v4+UknpJSrpxyqyDOcAfSYW3WudQLLA3wKOgIJ+sqOIagsGFTqAMj4T/EjEnJGW4fQbbHutsQ/3jKpHTBO2JLtqrrAChdyPu9ph9FbqtUW8nS3qvyQ7n5bTJ/2Vxe6jzUpYDIGLuYNg98YlXqWuiLxRqNIpyqtaX+Csn4diN5XQ3NZa2ocDYlRhu0VeCfEHFteGflXmOCeXAUfjNp4B7MtQj31cQ4myouy+7gZY+u+ZMsUtSmTuavfhnrtsKkIOXlB6y6mpd6x5NbWlmwAgzibnT7MdNTqg9mqsvTP+8/ibhw/g2i4dQtNFC4XPxFRvM5StoXOecA8N8R1ZS3VUmun59x851jwtQujqehV2Cjp0EjsAqgADEucAZq9bbWzZVskb/j/MtSnaorlasb02bHEoJWdM5oiIgCIiADNb8Z6Fr9HXqqwSaCeYAfdOM/tNknllDAgjIPYyk45xaLQljJM5Ur5AM9mxRjPabDxrwm6u13CuUg7+Qxxj6H+k1S826azy9ZS9DjqLFK//AGcmrSlDVHUpVIz0ZduvZThTKLxK9NgcCWRYvY5/CXVHN6eo+c8rb5PSkiRXxRsDIB9NpcOtDKua0z9BIRCkggnPp6SSiI/2oU5ck4RexK0/Eqa8PZRz5QIQO0seZw2zms9yXPMfuieBWvMV2wZd5FrXICkdMZk9yfJHbhwWXu0LAA6FMDcAoIou0in4dL025eXaXlFYGeQHP6T2BWPsrK5z5LYQ4LXkaOx2s91UMexGZPsTSXMrXaas8my4EsIay3JjPzleYKehUj1hVZckOlDgnJqa6/gQIgG220ui+srhgDn1mGclLOcKGVhnPzkpP7xRkY2HeSq0uSXSiZRdTWCACM4lTqUGSCcnrMabBX8Pf5zxVa1rYIwucZjvPQjtLUyS6r4v6z2dR6nI7THsGNilemMbS0b1VuRtioyWz0PpHcktSO2jIWals7EcsmcBzbxEsvRVJJ+fT+ZidLRq9a2NLUzDpzkYUfjNs4Pw0cPoYEhrnOXYdPoJ6+lpznNSeh5eqqQjDFamQErETsHKEREAREQBERAKYlu2iu5OS5Fdf+FlBH6y7EAw2q8L8H1Jy2jVG9amKftMXd4G0oOdNrdRX35WCsP6H9ZtsoZjKhTlqjSNapHRmhanwjxKos1NlN47fEVMj/2JxSgDzNG5H+GQ3+c6LgRiYS6Gk9DePW1Ecyu0msVia9Dq2x393f8AiY7V3cRqs34XrRgd9O/8Tr2IxM/r4cmnnz4OTafVam7AOg1aDHXyH6/lKNdqAd9Jq89v9Xc/0nWolfro/wBE/YS4OT13a5rV5eHa1VxksdM+P2k8pa5BXSagnuBS38TpErD+Nj/QXyEuDnQo1e3+o6pgW3Apbb9JISjVMNtDqs/9ojf8ZvsYEmPxsFuH8hJ7GgNwfi91oavTED/rIEyGn8Na0hTY1de+T8WZt+Imi6CktfZnLrqr0NY0fhPkLnVa+y7mOQqoFC/vMnpPD/DtLkpQHYksWsPMSfxmUErN49NSjpEwlXqS1Z5VFVQqgAegEqBiVibmQiIgCIiAIiIAiIgCIiAIiIAiIgCIiAIiIAiIgCIiAIiIAiIgCIiAIiIAiIgCIiAIiIAiIgCIiAIiIAiIgCIiAIiIAiIgCIiAIiIAiIgCIiAIiIB//9k=;labelBorderColor=none;clipPath=inset(16.22% 7.75% 16.22% 11.5%);container=0;rounded=0;" parent="ikJFBv8js-pOLj2k_Jm1-172" vertex="1">
          <mxGeometry x="110.5" y="21.220000000000027" width="99" height="57.56" as="geometry" />
        </mxCell>
        <mxCell id="ikJFBv8js-pOLj2k_Jm1-199" value="Hamburger $10.00" style="text;html=1;align=center;verticalAlign=middle;whiteSpace=wrap;rounded=0;fontSize=9;container=0;" parent="ikJFBv8js-pOLj2k_Jm1-172" vertex="1">
          <mxGeometry x="120" y="81.28000000000006" width="80" height="20" as="geometry" />
        </mxCell>
        <mxCell id="ikJFBv8js-pOLj2k_Jm1-201" value="" style="rounded=0;whiteSpace=wrap;html=1;container=0;" parent="ikJFBv8js-pOLj2k_Jm1-172" vertex="1">
          <mxGeometry x="220" width="100" height="100" as="geometry" />
        </mxCell>
        <mxCell id="ikJFBv8js-pOLj2k_Jm1-202" value="" style="shape=image;verticalLabelPosition=bottom;labelBackgroundColor=default;verticalAlign=top;aspect=fixed;imageAspect=0;image=data:image/jpeg,/9j/4AAQSkZJRgABAQAAAQABAAD/2wCEAAkGBwgHBgkIBwgKCgkLDRYPDQwMDRsUFRAWIB0iIiAdHx8kKDQsJCYxJx8fLT0tMTU3Ojo6Iys/RD84QzQ5OjcBCgoKDQwNGg8PGjclHyU3Nzc3Nzc3Nzc3Nzc3Nzc3Nzc3Nzc3Nzc3Nzc3Nzc3Nzc3Nzc3Nzc3Nzc3Nzc3Nzc3N//AABEIAJQA1QMBIgACEQEDEQH/xAAbAAEAAQUBAAAAAAAAAAAAAAAABAEDBQYHAv/EAD4QAAICAQIEAwUHAQQLAQAAAAECAAMRBCEFEjFBBhNRBxQiYXEyQoGRobHRwRUjY+EXJDNDUlNic4KS8Rb/xAAaAQEAAwEBAQAAAAAAAAAAAAAAAQIDBQQG/8QAJhEAAgEDAwQCAwEAAAAAAAAAAAECAxESMUFRBBMUIQUVIjJSYf/aAAwDAQACEQMRAD8A7jERAEREAREQBERAEREAREQBERAEREAREQBERAEREAREQBERAEREAREQBESkArEs6nU06WprdRatVa9WY4EwGv8AGOg07cmmPvDd8HA/OUnUjD9mXjCU9EbLE0nVeM9XWodNCnIfvF/4ninxrqL2wK6kz6+v5zHy6XJr4tTg3mJodni7ianB06Kc43BO3rLw8XaghyHoKjo5GB+8jy6Q8WobtE1BPFWoNfNy1PkHHJLa+MLelgrR+6OpBWPLpcjxqnBucTTH8V6pcHlqKndcA7/KUHijXGotX5DtjoOo/WT5dLkeLU4N0iaOfFPEW5eRtGo75Pb+k9VeIeJs5Z7dMK9gMKdz8jHl0x4tQ3aJo48S8RDFLnWsgZY8gwJeTxPraw5tCNy7D4MZ+fXpHl0yfFqG5RNV0/ifU2BSdKp5h0GRPCeLLrFdk0qhEOGLN/nJ8qnyV8apwbbE0uvxhq2XzDpafK5sZ5yMfWTNH4w09gT3ms1lm5dj0+ohdVSe4fTVVsbREjaPW0aysWaexXQ9xJAm6aaujFq3plYiJJAiIgCIiADIXFtfVw3Q26u8/DWNgOpPYCTD0mg+0jiSP5PDlI5lYWsQd89hMq08INmlOGcrGB4zxvU8Va33uwVBcBagxwP85jEaso9TubFwOUIvX5fISM5BCYTHL3zkmSaEYElH5Fb4Sx7CcSc3J+zrxgkjzWXsZVNgwv8AzXPLiSURXWy02Up1wEzk+mO882VgH+7z6jI7STSlZrYWoS5GxXtMsjSxHK6lagWa4BxkcznDD85Pdvf0NhVaxSm+GzkypZ/JWguTWhygI6bTwlCg5AAJ6kSMraFkrkdC1Rym2fkJ7auzkWy1SQ+SCW6/OSDSGBA6y4ambk5ix5FwufSVuWsU01LrpmZ7QmmYZRA2/wD6yOFFbv5b8ynoXXMk+TgTz5fyhyZKRHqxYEr1FaVH4suPiB9PpL1Nenrqaq5UY83wEKGXPbB2IlwU5lWq6Z3x8pGQxKCi7T1tXqg/k2b87AM+fTJPSWE8tUZHRyR/s38zBX09ZJChXUsDydDjqPpLq1Vo9nKC6Wb4fqp+UnIjEx/n6hghZmLrtzYAI/ES4lliWFwRzN9oOBv85fNAbDdUU4btvPY5udXITnxys3L9oHsfWRk1uTii3UULMbn8sOA5A6ZHqvQz0Gr5rA1CHm+yQeh9d/2lBVnOdhglfrnpBQ7esnNjD0X9LbqdJbVq9OErYdFBwD8yPQzeOB8Yq4lSAxVdQFHOn8fKaI3PaQxIYqMY6ZGekkcPuOj1aamlSAm/If1nr6bqXCVtjydR0ynG+50jMS1RYLqUsXo6hh+MuzuJ3VzjCIiSBERAKHpOZeNKhVx61rKxiwBgfUYxOnGa74t4GeJ1JfplB1NQIAJxzKe08/U03OFkbUJqE7s5gKMjAG2ZOqoL19M/KXX0xo1Lae4GuwHo4wTLunYBRybA7zkOm7nUzRb5CORT+XpJVGnXy2cnfICj1l0Voy5PU95Rsoygbg7fSVdO3slTueFqJPSe/Ikute/fvPRQjrHaLd0i0UIy8wJPYZMveUFEkV1j6R7sXcry7desrgWzIzLtkjHTbvgw9HKSOu+JOr04CEkkt3Jnp6TnZdhI7bsT3DHrVt0g1Z7Seah1Ax8pTysynbsXUzHtT2nry9pNZOXGR1lDST02lcPZORCprZ6ruVsIh+PPTMCvp9ZPXTjJwOvX5y4+mAXmxvLODZCmkY4oAmAOnX6GUWrldW64OSJP8gnJGVON8HrPK1Y+1+frGBOaIBpw2RtAr5iQSeh/OT7KcAEj6bzwlLGwKq5LZwAcyVB3KuasbZwG7zuF0Z2KLyH8NpkZi+B6e/TaTlvAXJ+FR2mUHSfQ0b9tX1OBVtm7CIialBERAEo3rKyJxLX0cO0j6nUtyovoMkmQ3ZBe2cd9rXipK/Ea6PhyUu+nTl1VgB5ubqFz8h+806nxlrKGIs0/OR9kK+x+uZBusst1F1utLvqbXZ7HPdycn9Z5bTFK11BrPlkkA+v0nkli3do90YyS9Gfr9oNo8oe5FlX/AGvxft+kv3e0mmu1VTh1rVkAseYAj6TUrKfKAbGctvt2izQeY1bIqlG6/SRjC+hP5WN6r9pvBgQvu2tGw25FP9ZLX2kcBZwGOrQEHdqNh+RM5Z7kfeWXHMEG7Dfeexw52Xm5TjOMyXTplVKZ1Or2mcAK/H70rD/AJEuD2oeHQFJ97DZxjyDt67zldPDVGTY2fkYXRIzkIrDtyncyvbplspnVT7U/DqW/CutZQftLQAD+ZzLb+1ngiIxTTa5m+6CirzfrOYf2bWR6H0nptDUgAI5vT8owp8DKfJ0Ye1nhDHP9na4D/wAP5nvTe1bhLs3naLWVqCOUgK+R3PXbE50NHQF6LvKjQ1JgMoyRtiVdOk9iVKpydB4l7VOHJcU0OkvuRQOR2UJzHfOx6dv1kGr2sWDTnzuDqNRn4cWkqd+/eah7jQSA6/aGVBlbtKtFNlu2FX4d846RhT0sTepuzb/9K2sNVZHBVVvv5s269vwll/azxPqOEaYKB96xtprldXNpktuKICv3N/wEyFWipyvNWA/LjkaLU1sT+fI1/tD4/wARurfRmrRFVwwrAcP9eYH9JIq8aeJDphXdbSXU8zOEALLjGDj652wdpiE0a6HWrzAeTYvwCTNPpXYnmGAd94ljsglK/tkmjjPHbqtOur4lcyUMGQAKpG2MkgZPXvn17Tufg1Uv8O8N1LqHv8gA2EZY9s/pOG1JWwG5yCM56YnZvZmaz4YqNVjvl2JDDAU56D5S9FrMy6j9Dax0lYie08QiIgCIiADNW8dWh9LRowMl2LkfIdP3m0maR4280cSTl70jB/EzGvK0Ga0VeaOLeIKruG65zbWxqZvhciQzrKr6FoNgRV3GO86kdPTqagNRUro33WGZiOIeB+A6wlvKsocnbyW5RPGqkXqe3GS0NHGoVOVnIGOnfMuVaipUPI4VSS02Z/ZppCp924lqV26OQf6TEav2e8YoJWjUJagGQeXf6TROL3K3ktjC6G1We0WZQk5xnsczICyuqo2Ag4UbSP8A/keP0eZcKFcnAPK25+gke/QcZQMt2g1DKenKhOfyktLZkKX+EzS1JYvm2EczHdM4OJc1mlSmq66gEWHb7XQTFLZraPt6TUKQMgtSw2/KUs1zeW1dtThjjJ5TnaVxdy2SJlWna9y1jZwMqQesuW6FXVCHw4bIHy7yzo7GsHm+YqD0M9W60qFKk5YHdQTDvcXRJtqo96ro8v4+UknpJSrpxyqyDOcAfSYW3WudQLLA3wKOgIJ+sqOIagsGFTqAMj4T/EjEnJGW4fQbbHutsQ/3jKpHTBO2JLtqrrAChdyPu9ph9FbqtUW8nS3qvyQ7n5bTJ/2Vxe6jzUpYDIGLuYNg98YlXqWuiLxRqNIpyqtaX+Csn4diN5XQ3NZa2ocDYlRhu0VeCfEHFteGflXmOCeXAUfjNp4B7MtQj31cQ4myouy+7gZY+u+ZMsUtSmTuavfhnrtsKkIOXlB6y6mpd6x5NbWlmwAgzibnT7MdNTqg9mqsvTP+8/ibhw/g2i4dQtNFC4XPxFRvM5StoXOecA8N8R1ZS3VUmun59x851jwtQujqehV2Cjp0EjsAqgADEucAZq9bbWzZVskb/j/MtSnaorlasb02bHEoJWdM5oiIgCIiADNb8Z6Fr9HXqqwSaCeYAfdOM/tNknllDAgjIPYyk45xaLQljJM5Ur5AM9mxRjPabDxrwm6u13CuUg7+Qxxj6H+k1S826azy9ZS9DjqLFK//AGcmrSlDVHUpVIz0ZduvZThTKLxK9NgcCWRYvY5/CXVHN6eo+c8rb5PSkiRXxRsDIB9NpcOtDKua0z9BIRCkggnPp6SSiI/2oU5ck4RexK0/Eqa8PZRz5QIQO0seZw2zms9yXPMfuieBWvMV2wZd5FrXICkdMZk9yfJHbhwWXu0LAA6FMDcAoIou0in4dL025eXaXlFYGeQHP6T2BWPsrK5z5LYQ4LXkaOx2s91UMexGZPsTSXMrXaas8my4EsIay3JjPzleYKehUj1hVZckOlDgnJqa6/gQIgG220ui+srhgDn1mGclLOcKGVhnPzkpP7xRkY2HeSq0uSXSiZRdTWCACM4lTqUGSCcnrMabBX8Pf5zxVa1rYIwucZjvPQjtLUyS6r4v6z2dR6nI7THsGNilemMbS0b1VuRtioyWz0PpHcktSO2jIWals7EcsmcBzbxEsvRVJJ+fT+ZidLRq9a2NLUzDpzkYUfjNs4Pw0cPoYEhrnOXYdPoJ6+lpznNSeh5eqqQjDFamQErETsHKEREAREQBERAKYlu2iu5OS5Fdf+FlBH6y7EAw2q8L8H1Jy2jVG9amKftMXd4G0oOdNrdRX35WCsP6H9ZtsoZjKhTlqjSNapHRmhanwjxKos1NlN47fEVMj/2JxSgDzNG5H+GQ3+c6LgRiYS6Gk9DePW1Ecyu0msVia9Dq2x393f8AiY7V3cRqs34XrRgd9O/8Tr2IxM/r4cmnnz4OTafVam7AOg1aDHXyH6/lKNdqAd9Jq89v9Xc/0nWolfro/wBE/YS4OT13a5rV5eHa1VxksdM+P2k8pa5BXSagnuBS38TpErD+Nj/QXyEuDnQo1e3+o6pgW3Apbb9JISjVMNtDqs/9ojf8ZvsYEmPxsFuH8hJ7GgNwfi91oavTED/rIEyGn8Na0hTY1de+T8WZt+Imi6CktfZnLrqr0NY0fhPkLnVa+y7mOQqoFC/vMnpPD/DtLkpQHYksWsPMSfxmUErN49NSjpEwlXqS1Z5VFVQqgAegEqBiVibmQiIgCIiAIiIAiIgCIiAIiIAiIgCIiAIiIAiIgCIiAIiIAiIgCIiAIiIAiIgCIiAIiIAiIgCIiAIiIAiIgCIiAIiIAiIgCIiAIiIAiIgCIiAIiIB//9k=;labelBorderColor=none;clipPath=inset(16.22% 7.75% 16.22% 11.5%);container=0;rounded=0;" parent="ikJFBv8js-pOLj2k_Jm1-172" vertex="1">
          <mxGeometry x="220.5" y="21.22" width="99" height="57.56" as="geometry" />
        </mxCell>
        <mxCell id="ikJFBv8js-pOLj2k_Jm1-203" value="Hamburger $10.00" style="text;html=1;align=center;verticalAlign=middle;whiteSpace=wrap;rounded=0;fontSize=9;container=0;" parent="ikJFBv8js-pOLj2k_Jm1-172" vertex="1">
          <mxGeometry x="230" y="81.28000000000003" width="80" height="20" as="geometry" />
        </mxCell>
        <mxCell id="ikJFBv8js-pOLj2k_Jm1-205" value="" style="rounded=0;whiteSpace=wrap;html=1;container=0;" parent="ikJFBv8js-pOLj2k_Jm1-172" vertex="1">
          <mxGeometry width="100" height="100" as="geometry" />
        </mxCell>
        <mxCell id="ikJFBv8js-pOLj2k_Jm1-206" value="" style="shape=image;verticalLabelPosition=bottom;labelBackgroundColor=default;verticalAlign=top;aspect=fixed;imageAspect=0;image=data:image/jpeg,/9j/4AAQSkZJRgABAQAAAQABAAD/2wCEAAkGBwgHBgkIBwgKCgkLDRYPDQwMDRsUFRAWIB0iIiAdHx8kKDQsJCYxJx8fLT0tMTU3Ojo6Iys/RD84QzQ5OjcBCgoKDQwNGg8PGjclHyU3Nzc3Nzc3Nzc3Nzc3Nzc3Nzc3Nzc3Nzc3Nzc3Nzc3Nzc3Nzc3Nzc3Nzc3Nzc3Nzc3N//AABEIAJQA1QMBIgACEQEDEQH/xAAbAAEAAQUBAAAAAAAAAAAAAAAABAEDBQYHAv/EAD4QAAICAQIEAwUHAQQLAQAAAAECAAMRBCEFEjFBBhNRBxQiYXEyQoGRobHRwRUjY+EXJDNDUlNic4KS8Rb/xAAaAQEAAwEBAQAAAAAAAAAAAAAAAQIDBQQG/8QAJhEAAgEDAwQCAwEAAAAAAAAAAAECAxESMUFRBBMUIQUVIjJSYf/aAAwDAQACEQMRAD8A7jERAEREAREQBERAEREAREQBERAEREAREQBERAEREAREQBERAEREAREQBESkArEs6nU06WprdRatVa9WY4EwGv8AGOg07cmmPvDd8HA/OUnUjD9mXjCU9EbLE0nVeM9XWodNCnIfvF/4ninxrqL2wK6kz6+v5zHy6XJr4tTg3mJodni7ianB06Kc43BO3rLw8XaghyHoKjo5GB+8jy6Q8WobtE1BPFWoNfNy1PkHHJLa+MLelgrR+6OpBWPLpcjxqnBucTTH8V6pcHlqKndcA7/KUHijXGotX5DtjoOo/WT5dLkeLU4N0iaOfFPEW5eRtGo75Pb+k9VeIeJs5Z7dMK9gMKdz8jHl0x4tQ3aJo48S8RDFLnWsgZY8gwJeTxPraw5tCNy7D4MZ+fXpHl0yfFqG5RNV0/ifU2BSdKp5h0GRPCeLLrFdk0qhEOGLN/nJ8qnyV8apwbbE0uvxhq2XzDpafK5sZ5yMfWTNH4w09gT3ms1lm5dj0+ohdVSe4fTVVsbREjaPW0aysWaexXQ9xJAm6aaujFq3plYiJJAiIgCIiADIXFtfVw3Q26u8/DWNgOpPYCTD0mg+0jiSP5PDlI5lYWsQd89hMq08INmlOGcrGB4zxvU8Va33uwVBcBagxwP85jEaso9TubFwOUIvX5fISM5BCYTHL3zkmSaEYElH5Fb4Sx7CcSc3J+zrxgkjzWXsZVNgwv8AzXPLiSURXWy02Up1wEzk+mO882VgH+7z6jI7STSlZrYWoS5GxXtMsjSxHK6lagWa4BxkcznDD85Pdvf0NhVaxSm+GzkypZ/JWguTWhygI6bTwlCg5AAJ6kSMraFkrkdC1Rym2fkJ7auzkWy1SQ+SCW6/OSDSGBA6y4ambk5ix5FwufSVuWsU01LrpmZ7QmmYZRA2/wD6yOFFbv5b8ynoXXMk+TgTz5fyhyZKRHqxYEr1FaVH4suPiB9PpL1Nenrqaq5UY83wEKGXPbB2IlwU5lWq6Z3x8pGQxKCi7T1tXqg/k2b87AM+fTJPSWE8tUZHRyR/s38zBX09ZJChXUsDydDjqPpLq1Vo9nKC6Wb4fqp+UnIjEx/n6hghZmLrtzYAI/ES4lliWFwRzN9oOBv85fNAbDdUU4btvPY5udXITnxys3L9oHsfWRk1uTii3UULMbn8sOA5A6ZHqvQz0Gr5rA1CHm+yQeh9d/2lBVnOdhglfrnpBQ7esnNjD0X9LbqdJbVq9OErYdFBwD8yPQzeOB8Yq4lSAxVdQFHOn8fKaI3PaQxIYqMY6ZGekkcPuOj1aamlSAm/If1nr6bqXCVtjydR0ynG+50jMS1RYLqUsXo6hh+MuzuJ3VzjCIiSBERAKHpOZeNKhVx61rKxiwBgfUYxOnGa74t4GeJ1JfplB1NQIAJxzKe08/U03OFkbUJqE7s5gKMjAG2ZOqoL19M/KXX0xo1Lae4GuwHo4wTLunYBRybA7zkOm7nUzRb5CORT+XpJVGnXy2cnfICj1l0Voy5PU95Rsoygbg7fSVdO3slTueFqJPSe/Ikute/fvPRQjrHaLd0i0UIy8wJPYZMveUFEkV1j6R7sXcry7desrgWzIzLtkjHTbvgw9HKSOu+JOr04CEkkt3Jnp6TnZdhI7bsT3DHrVt0g1Z7Seah1Ax8pTysynbsXUzHtT2nry9pNZOXGR1lDST02lcPZORCprZ6ruVsIh+PPTMCvp9ZPXTjJwOvX5y4+mAXmxvLODZCmkY4oAmAOnX6GUWrldW64OSJP8gnJGVON8HrPK1Y+1+frGBOaIBpw2RtAr5iQSeh/OT7KcAEj6bzwlLGwKq5LZwAcyVB3KuasbZwG7zuF0Z2KLyH8NpkZi+B6e/TaTlvAXJ+FR2mUHSfQ0b9tX1OBVtm7CIialBERAEo3rKyJxLX0cO0j6nUtyovoMkmQ3ZBe2cd9rXipK/Ea6PhyUu+nTl1VgB5ubqFz8h+806nxlrKGIs0/OR9kK+x+uZBusst1F1utLvqbXZ7HPdycn9Z5bTFK11BrPlkkA+v0nkli3do90YyS9Gfr9oNo8oe5FlX/AGvxft+kv3e0mmu1VTh1rVkAseYAj6TUrKfKAbGctvt2izQeY1bIqlG6/SRjC+hP5WN6r9pvBgQvu2tGw25FP9ZLX2kcBZwGOrQEHdqNh+RM5Z7kfeWXHMEG7Dfeexw52Xm5TjOMyXTplVKZ1Or2mcAK/H70rD/AJEuD2oeHQFJ97DZxjyDt67zldPDVGTY2fkYXRIzkIrDtyncyvbplspnVT7U/DqW/CutZQftLQAD+ZzLb+1ngiIxTTa5m+6CirzfrOYf2bWR6H0nptDUgAI5vT8owp8DKfJ0Ye1nhDHP9na4D/wAP5nvTe1bhLs3naLWVqCOUgK+R3PXbE50NHQF6LvKjQ1JgMoyRtiVdOk9iVKpydB4l7VOHJcU0OkvuRQOR2UJzHfOx6dv1kGr2sWDTnzuDqNRn4cWkqd+/eah7jQSA6/aGVBlbtKtFNlu2FX4d846RhT0sTepuzb/9K2sNVZHBVVvv5s269vwll/azxPqOEaYKB96xtprldXNpktuKICv3N/wEyFWipyvNWA/LjkaLU1sT+fI1/tD4/wARurfRmrRFVwwrAcP9eYH9JIq8aeJDphXdbSXU8zOEALLjGDj652wdpiE0a6HWrzAeTYvwCTNPpXYnmGAd94ljsglK/tkmjjPHbqtOur4lcyUMGQAKpG2MkgZPXvn17Tufg1Uv8O8N1LqHv8gA2EZY9s/pOG1JWwG5yCM56YnZvZmaz4YqNVjvl2JDDAU56D5S9FrMy6j9Dax0lYie08QiIgCIiADNW8dWh9LRowMl2LkfIdP3m0maR4280cSTl70jB/EzGvK0Ga0VeaOLeIKruG65zbWxqZvhciQzrKr6FoNgRV3GO86kdPTqagNRUro33WGZiOIeB+A6wlvKsocnbyW5RPGqkXqe3GS0NHGoVOVnIGOnfMuVaipUPI4VSS02Z/ZppCp924lqV26OQf6TEav2e8YoJWjUJagGQeXf6TROL3K3ktjC6G1We0WZQk5xnsczICyuqo2Ag4UbSP8A/keP0eZcKFcnAPK25+gke/QcZQMt2g1DKenKhOfyktLZkKX+EzS1JYvm2EczHdM4OJc1mlSmq66gEWHb7XQTFLZraPt6TUKQMgtSw2/KUs1zeW1dtThjjJ5TnaVxdy2SJlWna9y1jZwMqQesuW6FXVCHw4bIHy7yzo7GsHm+YqD0M9W60qFKk5YHdQTDvcXRJtqo96ro8v4+UknpJSrpxyqyDOcAfSYW3WudQLLA3wKOgIJ+sqOIagsGFTqAMj4T/EjEnJGW4fQbbHutsQ/3jKpHTBO2JLtqrrAChdyPu9ph9FbqtUW8nS3qvyQ7n5bTJ/2Vxe6jzUpYDIGLuYNg98YlXqWuiLxRqNIpyqtaX+Csn4diN5XQ3NZa2ocDYlRhu0VeCfEHFteGflXmOCeXAUfjNp4B7MtQj31cQ4myouy+7gZY+u+ZMsUtSmTuavfhnrtsKkIOXlB6y6mpd6x5NbWlmwAgzibnT7MdNTqg9mqsvTP+8/ibhw/g2i4dQtNFC4XPxFRvM5StoXOecA8N8R1ZS3VUmun59x851jwtQujqehV2Cjp0EjsAqgADEucAZq9bbWzZVskb/j/MtSnaorlasb02bHEoJWdM5oiIgCIiADNb8Z6Fr9HXqqwSaCeYAfdOM/tNknllDAgjIPYyk45xaLQljJM5Ur5AM9mxRjPabDxrwm6u13CuUg7+Qxxj6H+k1S826azy9ZS9DjqLFK//AGcmrSlDVHUpVIz0ZduvZThTKLxK9NgcCWRYvY5/CXVHN6eo+c8rb5PSkiRXxRsDIB9NpcOtDKua0z9BIRCkggnPp6SSiI/2oU5ck4RexK0/Eqa8PZRz5QIQO0seZw2zms9yXPMfuieBWvMV2wZd5FrXICkdMZk9yfJHbhwWXu0LAA6FMDcAoIou0in4dL025eXaXlFYGeQHP6T2BWPsrK5z5LYQ4LXkaOx2s91UMexGZPsTSXMrXaas8my4EsIay3JjPzleYKehUj1hVZckOlDgnJqa6/gQIgG220ui+srhgDn1mGclLOcKGVhnPzkpP7xRkY2HeSq0uSXSiZRdTWCACM4lTqUGSCcnrMabBX8Pf5zxVa1rYIwucZjvPQjtLUyS6r4v6z2dR6nI7THsGNilemMbS0b1VuRtioyWz0PpHcktSO2jIWals7EcsmcBzbxEsvRVJJ+fT+ZidLRq9a2NLUzDpzkYUfjNs4Pw0cPoYEhrnOXYdPoJ6+lpznNSeh5eqqQjDFamQErETsHKEREAREQBERAKYlu2iu5OS5Fdf+FlBH6y7EAw2q8L8H1Jy2jVG9amKftMXd4G0oOdNrdRX35WCsP6H9ZtsoZjKhTlqjSNapHRmhanwjxKos1NlN47fEVMj/2JxSgDzNG5H+GQ3+c6LgRiYS6Gk9DePW1Ecyu0msVia9Dq2x393f8AiY7V3cRqs34XrRgd9O/8Tr2IxM/r4cmnnz4OTafVam7AOg1aDHXyH6/lKNdqAd9Jq89v9Xc/0nWolfro/wBE/YS4OT13a5rV5eHa1VxksdM+P2k8pa5BXSagnuBS38TpErD+Nj/QXyEuDnQo1e3+o6pgW3Apbb9JISjVMNtDqs/9ojf8ZvsYEmPxsFuH8hJ7GgNwfi91oavTED/rIEyGn8Na0hTY1de+T8WZt+Imi6CktfZnLrqr0NY0fhPkLnVa+y7mOQqoFC/vMnpPD/DtLkpQHYksWsPMSfxmUErN49NSjpEwlXqS1Z5VFVQqgAegEqBiVibmQiIgCIiAIiIAiIgCIiAIiIAiIgCIiAIiIAiIgCIiAIiIAiIgCIiAIiIAiIgCIiAIiIAiIgCIiAIiIAiIgCIiAIiIAiIgCIiAIiIAiIgCIiAIiIB//9k=;labelBorderColor=none;clipPath=inset(16.22% 7.75% 16.22% 11.5%);container=0;rounded=0;" parent="ikJFBv8js-pOLj2k_Jm1-172" vertex="1">
          <mxGeometry x="0.5" y="21.22" width="99" height="57.56" as="geometry" />
        </mxCell>
        <mxCell id="ikJFBv8js-pOLj2k_Jm1-207" value="Hamburger $10.00" style="text;html=1;align=center;verticalAlign=middle;whiteSpace=wrap;rounded=0;fontSize=9;container=0;" parent="ikJFBv8js-pOLj2k_Jm1-172" vertex="1">
          <mxGeometry x="10" y="81.28000000000003" width="80" height="20" as="geometry" />
        </mxCell>
        <mxCell id="ikJFBv8js-pOLj2k_Jm1-209" value="" style="html=1;verticalLabelPosition=bottom;labelBackgroundColor=#ffffff;verticalAlign=top;shadow=0;dashed=0;strokeWidth=2;shape=mxgraph.ios7.misc.scroll_(vertical);fillColor=#C7C7C7;rounded=0;" parent="ikJFBv8js-pOLj2k_Jm1-172" vertex="1">
          <mxGeometry x="330" y="-10" width="6" height="340" as="geometry" />
        </mxCell>
        <mxCell id="ikJFBv8js-pOLj2k_Jm1-217" value="" style="rounded=0;whiteSpace=wrap;html=1;" parent="ikJFBv8js-pOLj2k_Jm1-172" vertex="1">
          <mxGeometry x="43" y="10" width="234" height="298.13" as="geometry" />
        </mxCell>
        <mxCell id="ikJFBv8js-pOLj2k_Jm1-210" value="" style="group;rounded=0;" parent="ikJFBv8js-pOLj2k_Jm1-172" vertex="1" connectable="0">
          <mxGeometry x="290" y="285.64" width="50" height="55" as="geometry" />
        </mxCell>
        <mxCell id="ikJFBv8js-pOLj2k_Jm1-211" value="" style="group;rounded=0;" parent="ikJFBv8js-pOLj2k_Jm1-210" vertex="1" connectable="0">
          <mxGeometry width="44.11764705882353" height="47.35294117647059" as="geometry" />
        </mxCell>
        <mxCell id="ikJFBv8js-pOLj2k_Jm1-212" value="" style="ellipse;whiteSpace=wrap;html=1;aspect=fixed;strokeColor=#B20000;fillColor=#e51400;fontColor=#ffffff;container=0;rounded=0;" parent="ikJFBv8js-pOLj2k_Jm1-211" vertex="1">
          <mxGeometry y="3.235294117647059" width="44.11764705882353" height="44.11764705882353" as="geometry" />
        </mxCell>
        <mxCell id="ikJFBv8js-pOLj2k_Jm1-213" value="" style="shape=image;html=1;verticalAlign=top;verticalLabelPosition=bottom;labelBackgroundColor=#ffffff;imageAspect=0;image=https://cdn0.iconfinder.com/data/icons/phosphor-regular-vol-4/256/shopping-cart-128.png;flipH=1;container=0;rounded=0;" parent="ikJFBv8js-pOLj2k_Jm1-211" vertex="1">
          <mxGeometry x="3.307142857142857" y="9.707176470588236" width="37.5" height="32.35294117647059" as="geometry" />
        </mxCell>
        <mxCell id="ikJFBv8js-pOLj2k_Jm1-214" value="5" style="ellipse;whiteSpace=wrap;html=1;aspect=fixed;fillColor=#e51400;strokeColor=#B20000;fontColor=#ffffff;container=0;rounded=0;" parent="ikJFBv8js-pOLj2k_Jm1-211" vertex="1">
          <mxGeometry x="31.25" width="11.029411764705882" height="11.029411764705882" as="geometry" />
        </mxCell>
        <mxCell id="ikJFBv8js-pOLj2k_Jm1-219" value="" style="shape=image;verticalLabelPosition=bottom;labelBackgroundColor=default;verticalAlign=top;aspect=fixed;imageAspect=0;image=data:image/jpeg,/9j/4AAQSkZJRgABAQAAAQABAAD/2wCEAAkGBwgHBgkIBwgKCgkLDRYPDQwMDRsUFRAWIB0iIiAdHx8kKDQsJCYxJx8fLT0tMTU3Ojo6Iys/RD84QzQ5OjcBCgoKDQwNGg8PGjclHyU3Nzc3Nzc3Nzc3Nzc3Nzc3Nzc3Nzc3Nzc3Nzc3Nzc3Nzc3Nzc3Nzc3Nzc3Nzc3Nzc3N//AABEIAJQA1QMBIgACEQEDEQH/xAAbAAEAAQUBAAAAAAAAAAAAAAAABAEDBQYHAv/EAD4QAAICAQIEAwUHAQQLAQAAAAECAAMRBCEFEjFBBhNRBxQiYXEyQoGRobHRwRUjY+EXJDNDUlNic4KS8Rb/xAAaAQEAAwEBAQAAAAAAAAAAAAAAAQIDBQQG/8QAJhEAAgEDAwQCAwEAAAAAAAAAAAECAxESMUFRBBMUIQUVIjJSYf/aAAwDAQACEQMRAD8A7jERAEREAREQBERAEREAREQBERAEREAREQBERAEREAREQBERAEREAREQBESkArEs6nU06WprdRatVa9WY4EwGv8AGOg07cmmPvDd8HA/OUnUjD9mXjCU9EbLE0nVeM9XWodNCnIfvF/4ninxrqL2wK6kz6+v5zHy6XJr4tTg3mJodni7ianB06Kc43BO3rLw8XaghyHoKjo5GB+8jy6Q8WobtE1BPFWoNfNy1PkHHJLa+MLelgrR+6OpBWPLpcjxqnBucTTH8V6pcHlqKndcA7/KUHijXGotX5DtjoOo/WT5dLkeLU4N0iaOfFPEW5eRtGo75Pb+k9VeIeJs5Z7dMK9gMKdz8jHl0x4tQ3aJo48S8RDFLnWsgZY8gwJeTxPraw5tCNy7D4MZ+fXpHl0yfFqG5RNV0/ifU2BSdKp5h0GRPCeLLrFdk0qhEOGLN/nJ8qnyV8apwbbE0uvxhq2XzDpafK5sZ5yMfWTNH4w09gT3ms1lm5dj0+ohdVSe4fTVVsbREjaPW0aysWaexXQ9xJAm6aaujFq3plYiJJAiIgCIiADIXFtfVw3Q26u8/DWNgOpPYCTD0mg+0jiSP5PDlI5lYWsQd89hMq08INmlOGcrGB4zxvU8Va33uwVBcBagxwP85jEaso9TubFwOUIvX5fISM5BCYTHL3zkmSaEYElH5Fb4Sx7CcSc3J+zrxgkjzWXsZVNgwv8AzXPLiSURXWy02Up1wEzk+mO882VgH+7z6jI7STSlZrYWoS5GxXtMsjSxHK6lagWa4BxkcznDD85Pdvf0NhVaxSm+GzkypZ/JWguTWhygI6bTwlCg5AAJ6kSMraFkrkdC1Rym2fkJ7auzkWy1SQ+SCW6/OSDSGBA6y4ambk5ix5FwufSVuWsU01LrpmZ7QmmYZRA2/wD6yOFFbv5b8ynoXXMk+TgTz5fyhyZKRHqxYEr1FaVH4suPiB9PpL1Nenrqaq5UY83wEKGXPbB2IlwU5lWq6Z3x8pGQxKCi7T1tXqg/k2b87AM+fTJPSWE8tUZHRyR/s38zBX09ZJChXUsDydDjqPpLq1Vo9nKC6Wb4fqp+UnIjEx/n6hghZmLrtzYAI/ES4lliWFwRzN9oOBv85fNAbDdUU4btvPY5udXITnxys3L9oHsfWRk1uTii3UULMbn8sOA5A6ZHqvQz0Gr5rA1CHm+yQeh9d/2lBVnOdhglfrnpBQ7esnNjD0X9LbqdJbVq9OErYdFBwD8yPQzeOB8Yq4lSAxVdQFHOn8fKaI3PaQxIYqMY6ZGekkcPuOj1aamlSAm/If1nr6bqXCVtjydR0ynG+50jMS1RYLqUsXo6hh+MuzuJ3VzjCIiSBERAKHpOZeNKhVx61rKxiwBgfUYxOnGa74t4GeJ1JfplB1NQIAJxzKe08/U03OFkbUJqE7s5gKMjAG2ZOqoL19M/KXX0xo1Lae4GuwHo4wTLunYBRybA7zkOm7nUzRb5CORT+XpJVGnXy2cnfICj1l0Voy5PU95Rsoygbg7fSVdO3slTueFqJPSe/Ikute/fvPRQjrHaLd0i0UIy8wJPYZMveUFEkV1j6R7sXcry7desrgWzIzLtkjHTbvgw9HKSOu+JOr04CEkkt3Jnp6TnZdhI7bsT3DHrVt0g1Z7Seah1Ax8pTysynbsXUzHtT2nry9pNZOXGR1lDST02lcPZORCprZ6ruVsIh+PPTMCvp9ZPXTjJwOvX5y4+mAXmxvLODZCmkY4oAmAOnX6GUWrldW64OSJP8gnJGVON8HrPK1Y+1+frGBOaIBpw2RtAr5iQSeh/OT7KcAEj6bzwlLGwKq5LZwAcyVB3KuasbZwG7zuF0Z2KLyH8NpkZi+B6e/TaTlvAXJ+FR2mUHSfQ0b9tX1OBVtm7CIialBERAEo3rKyJxLX0cO0j6nUtyovoMkmQ3ZBe2cd9rXipK/Ea6PhyUu+nTl1VgB5ubqFz8h+806nxlrKGIs0/OR9kK+x+uZBusst1F1utLvqbXZ7HPdycn9Z5bTFK11BrPlkkA+v0nkli3do90YyS9Gfr9oNo8oe5FlX/AGvxft+kv3e0mmu1VTh1rVkAseYAj6TUrKfKAbGctvt2izQeY1bIqlG6/SRjC+hP5WN6r9pvBgQvu2tGw25FP9ZLX2kcBZwGOrQEHdqNh+RM5Z7kfeWXHMEG7Dfeexw52Xm5TjOMyXTplVKZ1Or2mcAK/H70rD/AJEuD2oeHQFJ97DZxjyDt67zldPDVGTY2fkYXRIzkIrDtyncyvbplspnVT7U/DqW/CutZQftLQAD+ZzLb+1ngiIxTTa5m+6CirzfrOYf2bWR6H0nptDUgAI5vT8owp8DKfJ0Ye1nhDHP9na4D/wAP5nvTe1bhLs3naLWVqCOUgK+R3PXbE50NHQF6LvKjQ1JgMoyRtiVdOk9iVKpydB4l7VOHJcU0OkvuRQOR2UJzHfOx6dv1kGr2sWDTnzuDqNRn4cWkqd+/eah7jQSA6/aGVBlbtKtFNlu2FX4d846RhT0sTepuzb/9K2sNVZHBVVvv5s269vwll/azxPqOEaYKB96xtprldXNpktuKICv3N/wEyFWipyvNWA/LjkaLU1sT+fI1/tD4/wARurfRmrRFVwwrAcP9eYH9JIq8aeJDphXdbSXU8zOEALLjGDj652wdpiE0a6HWrzAeTYvwCTNPpXYnmGAd94ljsglK/tkmjjPHbqtOur4lcyUMGQAKpG2MkgZPXvn17Tufg1Uv8O8N1LqHv8gA2EZY9s/pOG1JWwG5yCM56YnZvZmaz4YqNVjvl2JDDAU56D5S9FrMy6j9Dax0lYie08QiIgCIiADNW8dWh9LRowMl2LkfIdP3m0maR4280cSTl70jB/EzGvK0Ga0VeaOLeIKruG65zbWxqZvhciQzrKr6FoNgRV3GO86kdPTqagNRUro33WGZiOIeB+A6wlvKsocnbyW5RPGqkXqe3GS0NHGoVOVnIGOnfMuVaipUPI4VSS02Z/ZppCp924lqV26OQf6TEav2e8YoJWjUJagGQeXf6TROL3K3ktjC6G1We0WZQk5xnsczICyuqo2Ag4UbSP8A/keP0eZcKFcnAPK25+gke/QcZQMt2g1DKenKhOfyktLZkKX+EzS1JYvm2EczHdM4OJc1mlSmq66gEWHb7XQTFLZraPt6TUKQMgtSw2/KUs1zeW1dtThjjJ5TnaVxdy2SJlWna9y1jZwMqQesuW6FXVCHw4bIHy7yzo7GsHm+YqD0M9W60qFKk5YHdQTDvcXRJtqo96ro8v4+UknpJSrpxyqyDOcAfSYW3WudQLLA3wKOgIJ+sqOIagsGFTqAMj4T/EjEnJGW4fQbbHutsQ/3jKpHTBO2JLtqrrAChdyPu9ph9FbqtUW8nS3qvyQ7n5bTJ/2Vxe6jzUpYDIGLuYNg98YlXqWuiLxRqNIpyqtaX+Csn4diN5XQ3NZa2ocDYlRhu0VeCfEHFteGflXmOCeXAUfjNp4B7MtQj31cQ4myouy+7gZY+u+ZMsUtSmTuavfhnrtsKkIOXlB6y6mpd6x5NbWlmwAgzibnT7MdNTqg9mqsvTP+8/ibhw/g2i4dQtNFC4XPxFRvM5StoXOecA8N8R1ZS3VUmun59x851jwtQujqehV2Cjp0EjsAqgADEucAZq9bbWzZVskb/j/MtSnaorlasb02bHEoJWdM5oiIgCIiADNb8Z6Fr9HXqqwSaCeYAfdOM/tNknllDAgjIPYyk45xaLQljJM5Ur5AM9mxRjPabDxrwm6u13CuUg7+Qxxj6H+k1S826azy9ZS9DjqLFK//AGcmrSlDVHUpVIz0ZduvZThTKLxK9NgcCWRYvY5/CXVHN6eo+c8rb5PSkiRXxRsDIB9NpcOtDKua0z9BIRCkggnPp6SSiI/2oU5ck4RexK0/Eqa8PZRz5QIQO0seZw2zms9yXPMfuieBWvMV2wZd5FrXICkdMZk9yfJHbhwWXu0LAA6FMDcAoIou0in4dL025eXaXlFYGeQHP6T2BWPsrK5z5LYQ4LXkaOx2s91UMexGZPsTSXMrXaas8my4EsIay3JjPzleYKehUj1hVZckOlDgnJqa6/gQIgG220ui+srhgDn1mGclLOcKGVhnPzkpP7xRkY2HeSq0uSXSiZRdTWCACM4lTqUGSCcnrMabBX8Pf5zxVa1rYIwucZjvPQjtLUyS6r4v6z2dR6nI7THsGNilemMbS0b1VuRtioyWz0PpHcktSO2jIWals7EcsmcBzbxEsvRVJJ+fT+ZidLRq9a2NLUzDpzkYUfjNs4Pw0cPoYEhrnOXYdPoJ6+lpznNSeh5eqqQjDFamQErETsHKEREAREQBERAKYlu2iu5OS5Fdf+FlBH6y7EAw2q8L8H1Jy2jVG9amKftMXd4G0oOdNrdRX35WCsP6H9ZtsoZjKhTlqjSNapHRmhanwjxKos1NlN47fEVMj/2JxSgDzNG5H+GQ3+c6LgRiYS6Gk9DePW1Ecyu0msVia9Dq2x393f8AiY7V3cRqs34XrRgd9O/8Tr2IxM/r4cmnnz4OTafVam7AOg1aDHXyH6/lKNdqAd9Jq89v9Xc/0nWolfro/wBE/YS4OT13a5rV5eHa1VxksdM+P2k8pa5BXSagnuBS38TpErD+Nj/QXyEuDnQo1e3+o6pgW3Apbb9JISjVMNtDqs/9ojf8ZvsYEmPxsFuH8hJ7GgNwfi91oavTED/rIEyGn8Na0hTY1de+T8WZt+Imi6CktfZnLrqr0NY0fhPkLnVa+y7mOQqoFC/vMnpPD/DtLkpQHYksWsPMSfxmUErN49NSjpEwlXqS1Z5VFVQqgAegEqBiVibmQiIgCIiAIiIAiIgCIiAIiIAiIgCIiAIiIAiIgCIiAIiIAiIgCIiAIiIAiIgCIiAIiIAiIgCIiAIiIAiIgCIiAIiIAiIgCIiAIiIAiIgCIiAIiIB//9k=;labelBorderColor=none;clipPath=inset(16.22% 7.75% 16.22% 11.5%);container=0;rounded=0;" parent="ikJFBv8js-pOLj2k_Jm1-172" vertex="1">
          <mxGeometry x="75.69" y="19.220000000000002" width="170.9" height="99.36" as="geometry" />
        </mxCell>
        <mxCell id="ikJFBv8js-pOLj2k_Jm1-220" value="Hamburger $10.01&lt;div&gt;This is a hmamburger&lt;/div&gt;" style="text;html=1;align=center;verticalAlign=middle;whiteSpace=wrap;rounded=0;fontSize=11;container=0;" parent="ikJFBv8js-pOLj2k_Jm1-172" vertex="1">
          <mxGeometry x="105.89" y="114.50999999999999" width="110.5" height="36.58" as="geometry" />
        </mxCell>
        <mxCell id="ikJFBv8js-pOLj2k_Jm1-231" value="" style="rounded=0;whiteSpace=wrap;html=1;" parent="ikJFBv8js-pOLj2k_Jm1-172" vertex="1">
          <mxGeometry x="73.415" y="150.79999999999998" width="175.45" height="54.36" as="geometry" />
        </mxCell>
        <mxCell id="ikJFBv8js-pOLj2k_Jm1-233" value="" style="group;rounded=0;" parent="ikJFBv8js-pOLj2k_Jm1-172" vertex="1" connectable="0">
          <mxGeometry x="89.89" y="153.29999999999998" width="67.25" height="49.360000000000014" as="geometry" />
        </mxCell>
        <mxCell id="ikJFBv8js-pOLj2k_Jm1-228" value="" style="dashed=0;labelPosition=right;align=left;shape=mxgraph.gmdl.checkbox;strokeColor=#666666;fillColor=none;strokeWidth=2;aspect=fixed;sketch=0;html=1;rounded=0;" parent="ikJFBv8js-pOLj2k_Jm1-233" vertex="1">
          <mxGeometry y="9" width="12" height="12" as="geometry" />
        </mxCell>
        <mxCell id="ikJFBv8js-pOLj2k_Jm1-229" value="`" style="dashed=0;labelPosition=right;align=left;shape=mxgraph.gmdl.checkbox;strokeColor=#666666;fillColor=none;strokeWidth=2;aspect=fixed;sketch=0;html=1;rounded=0;" parent="ikJFBv8js-pOLj2k_Jm1-233" vertex="1">
          <mxGeometry y="28.360000000000014" width="12" height="12" as="geometry" />
        </mxCell>
        <mxCell id="ikJFBv8js-pOLj2k_Jm1-225" value="Lettuce" style="text;html=1;align=center;verticalAlign=middle;whiteSpace=wrap;rounded=0;" parent="ikJFBv8js-pOLj2k_Jm1-233" vertex="1">
          <mxGeometry x="7.25" width="60" height="30" as="geometry" />
        </mxCell>
        <mxCell id="ikJFBv8js-pOLj2k_Jm1-226" value="Tomato" style="text;html=1;align=center;verticalAlign=middle;whiteSpace=wrap;rounded=0;" parent="ikJFBv8js-pOLj2k_Jm1-233" vertex="1">
          <mxGeometry x="7.25" y="19.360000000000014" width="60" height="30" as="geometry" />
        </mxCell>
        <mxCell id="ikJFBv8js-pOLj2k_Jm1-234" value="" style="rounded=0;whiteSpace=wrap;html=1;" parent="ikJFBv8js-pOLj2k_Jm1-172" vertex="1">
          <mxGeometry x="73.41499999999999" y="216.9399999999999" width="175.45" height="54.36" as="geometry" />
        </mxCell>
        <mxCell id="VFOHCxQq9T8Rhk1EeYQV-22" value="" style="group" parent="ikJFBv8js-pOLj2k_Jm1-172" vertex="1" connectable="0">
          <mxGeometry x="87.62000000000002" y="219.4399999999999" width="72.24999999999999" height="49.360000000000014" as="geometry" />
        </mxCell>
        <mxCell id="ikJFBv8js-pOLj2k_Jm1-236" value="" style="dashed=0;labelPosition=right;align=left;shape=mxgraph.gmdl.checkbox;strokeColor=#666666;fillColor=none;strokeWidth=2;aspect=fixed;sketch=0;html=1;rounded=0;" parent="VFOHCxQq9T8Rhk1EeYQV-22" vertex="1">
          <mxGeometry y="9" width="12" height="12" as="geometry" />
        </mxCell>
        <mxCell id="ikJFBv8js-pOLj2k_Jm1-237" value="`" style="dashed=0;labelPosition=right;align=left;shape=mxgraph.gmdl.checkbox;strokeColor=#666666;fillColor=none;strokeWidth=2;aspect=fixed;sketch=0;html=1;rounded=0;" parent="VFOHCxQq9T8Rhk1EeYQV-22" vertex="1">
          <mxGeometry y="28.360000000000042" width="12" height="12" as="geometry" />
        </mxCell>
        <mxCell id="ikJFBv8js-pOLj2k_Jm1-238" value="Ketchup" style="text;html=1;align=center;verticalAlign=middle;whiteSpace=wrap;rounded=0;" parent="VFOHCxQq9T8Rhk1EeYQV-22" vertex="1">
          <mxGeometry x="9.25" width="60" height="30" as="geometry" />
        </mxCell>
        <mxCell id="ikJFBv8js-pOLj2k_Jm1-239" value="Barbecue" style="text;html=1;align=center;verticalAlign=middle;whiteSpace=wrap;rounded=0;" parent="VFOHCxQq9T8Rhk1EeYQV-22" vertex="1">
          <mxGeometry x="12.25" y="19.360000000000042" width="60" height="30" as="geometry" />
        </mxCell>
        <mxCell id="VFOHCxQq9T8Rhk1EeYQV-25" value="" style="group;rounded=0;" parent="ikJFBv8js-pOLj2k_Jm1-172" vertex="1" connectable="0">
          <mxGeometry x="168.86" y="279.7650000000001" width="80" height="35" as="geometry" />
        </mxCell>
        <mxCell id="VFOHCxQq9T8Rhk1EeYQV-26" value="" style="group;rounded=0;" parent="VFOHCxQq9T8Rhk1EeYQV-25" vertex="1" connectable="0">
          <mxGeometry width="20" height="35" as="geometry" />
        </mxCell>
        <mxCell id="VFOHCxQq9T8Rhk1EeYQV-27" value="" style="ellipse;whiteSpace=wrap;html=1;aspect=fixed;rounded=0;" parent="VFOHCxQq9T8Rhk1EeYQV-26" vertex="1">
          <mxGeometry width="20" height="20" as="geometry" />
        </mxCell>
        <mxCell id="VFOHCxQq9T8Rhk1EeYQV-28" value="" style="endArrow=none;html=1;rounded=0;entryX=1;entryY=0.5;entryDx=0;entryDy=0;exitX=0;exitY=0.5;exitDx=0;exitDy=0;" parent="VFOHCxQq9T8Rhk1EeYQV-26" source="VFOHCxQq9T8Rhk1EeYQV-27" target="VFOHCxQq9T8Rhk1EeYQV-27" edge="1">
          <mxGeometry width="50" height="50" relative="1" as="geometry">
            <mxPoint x="17.142857142857135" y="72.5" as="sourcePoint" />
            <mxPoint x="45.71428571428571" y="22.5" as="targetPoint" />
          </mxGeometry>
        </mxCell>
        <mxCell id="VFOHCxQq9T8Rhk1EeYQV-29" value="" style="endArrow=none;html=1;rounded=0;entryX=0.5;entryY=0;entryDx=0;entryDy=0;exitX=0.5;exitY=1;exitDx=0;exitDy=0;" parent="VFOHCxQq9T8Rhk1EeYQV-26" source="VFOHCxQq9T8Rhk1EeYQV-27" target="VFOHCxQq9T8Rhk1EeYQV-27" edge="1">
          <mxGeometry width="50" height="50" relative="1" as="geometry">
            <mxPoint x="28.57142857142857" y="202.5" as="sourcePoint" />
            <mxPoint x="57.14285714285714" y="152.5" as="targetPoint" />
          </mxGeometry>
        </mxCell>
        <mxCell id="VFOHCxQq9T8Rhk1EeYQV-30" value="" style="group;rounded=0;" parent="VFOHCxQq9T8Rhk1EeYQV-25" vertex="1" connectable="0">
          <mxGeometry x="60" width="20" height="35" as="geometry" />
        </mxCell>
        <mxCell id="VFOHCxQq9T8Rhk1EeYQV-31" value="" style="ellipse;whiteSpace=wrap;html=1;aspect=fixed;rounded=0;" parent="VFOHCxQq9T8Rhk1EeYQV-30" vertex="1">
          <mxGeometry width="20" height="20" as="geometry" />
        </mxCell>
        <mxCell id="VFOHCxQq9T8Rhk1EeYQV-32" value="" style="endArrow=none;html=1;rounded=0;exitX=0;exitY=0.5;exitDx=0;exitDy=0;entryX=1;entryY=0.5;entryDx=0;entryDy=0;targetPerimeterSpacing=1;jumpStyle=none;" parent="VFOHCxQq9T8Rhk1EeYQV-30" source="VFOHCxQq9T8Rhk1EeYQV-31" target="VFOHCxQq9T8Rhk1EeYQV-31" edge="1">
          <mxGeometry width="50" height="50" relative="1" as="geometry">
            <mxPoint x="-17.142857142857135" y="62.5" as="sourcePoint" />
            <mxPoint x="11.428571428571427" y="12.5" as="targetPoint" />
          </mxGeometry>
        </mxCell>
        <mxCell id="VFOHCxQq9T8Rhk1EeYQV-33" value="3" style="rounded=0;whiteSpace=wrap;html=1;" parent="VFOHCxQq9T8Rhk1EeYQV-25" vertex="1">
          <mxGeometry x="30" width="20" height="20" as="geometry" />
        </mxCell>
        <mxCell id="VFOHCxQq9T8Rhk1EeYQV-23" value="Add to Cart" style="rounded=0;whiteSpace=wrap;html=1;" parent="ikJFBv8js-pOLj2k_Jm1-172" vertex="1">
          <mxGeometry x="73.42" y="280.29" width="86.58" height="20" as="geometry" />
        </mxCell>
        <mxCell id="ikJFBv8js-pOLj2k_Jm1-215" value="" style="html=1;verticalLabelPosition=bottom;labelBackgroundColor=#ffffff;verticalAlign=top;shadow=0;dashed=0;strokeWidth=2;shape=mxgraph.ios7.misc.scroll_(vertical);fillColor=#a0a0a0;aspect=fixed;rounded=0;" parent="1" vertex="1">
          <mxGeometry x="765" y="80.23499999999996" width="4" height="53.29" as="geometry" />
        </mxCell>
      </root>
    </mxGraphModel>
  </diagram>
</mxfile>
